<svg width="210" height="492" viewBox="0 0 210 492" fill="none" xmlns="http://www.w3.org/2000/svg">
<path d="M206.605 308.169C206.605 307.684 206.411 307.296 206.217 306.907C206.508 305.451 206.605 303.897 206.411 302.344L199.323 236.422V236.13C190.197 166.713 141.459 143.509 139.323 142.635C139.129 142.538 138.838 142.441 138.644 142.344C129.614 136.907 119.032 133.8 107.77 133.8C107.77 133.8 87.5754 132.732 70.5851 144.188L70.3909 143.703C68.3521 144.674 19.517 167.781 10.3907 237.198L3.20622 303.509C3.01204 305.16 3.10913 306.81 3.49748 308.364L3.10913 323.995C3.10913 325.354 4.1771 326.519 5.53632 326.519C6.89555 326.519 8.0606 325.451 8.0606 324.092L8.25478 316.228C8.64313 316.519 9.03148 316.81 9.41983 317.101L9.22566 328.267C9.22566 329.626 10.2936 330.791 11.6528 330.791C13.0121 330.791 14.1771 329.723 14.1771 328.364L14.2742 319.334C14.7597 319.432 15.148 319.529 15.6334 319.626L15.4393 329.626C15.4393 330.985 16.5072 332.15 17.8665 332.15C19.2257 332.15 20.3907 331.082 20.3907 329.723L20.5849 319.529C20.9733 319.432 21.3616 319.334 21.6529 319.237L22.0412 327.684C22.1383 329.043 23.3034 330.111 24.6626 330.014C26.0218 329.917 27.0898 328.752 26.9927 327.393L26.4102 316.713C26.7014 316.519 26.9927 316.228 27.1869 316.033L27.3811 319.723C27.4781 321.665 29.1286 323.121 31.0704 323.024C33.0121 322.927 34.4685 321.276 34.3714 319.334L33.5947 304.965C33.4976 303.897 33.0121 303.024 32.3325 302.441L38.9345 241.082C40.4879 229.237 43.4976 219.237 47.187 210.79V262.926C47.187 275.354 50.9734 283.315 57.4782 288.266L57.3812 353.801C57.3812 362.538 56.9928 371.471 56.3132 380.208L51.0705 446.325H51.5559C49.8083 450.306 48.8374 455.646 48.0607 461.762C46.7015 473.51 51.653 485.063 63.4977 487.879C64.1773 488.073 64.954 488.17 65.6336 488.267C77.7696 489.918 97.3813 490.791 105.731 479.82C109.517 474.772 110.1 468.461 109.323 461.859C107.867 448.752 99.5172 439.044 90.4881 438.655L94.857 383.218C95.6337 373.509 96.0221 363.606 96.0221 353.801L96.1192 296.81C99.8085 296.907 103.498 296.907 107.381 296.907C111.362 296.907 115.148 296.907 118.935 296.81L118.255 447.199C116.702 451.082 115.828 456.131 115.148 461.762C113.789 473.51 118.741 485.063 130.585 487.879C131.265 488.073 132.042 488.17 132.721 488.267C144.857 489.918 164.469 490.791 172.818 479.82C176.605 474.772 177.187 468.461 176.411 461.859C174.857 448.558 166.314 438.655 157.09 438.655H156.993L157.77 287.878C163.983 282.829 167.673 275.062 167.673 262.829V227.198C168.644 231.179 169.42 235.451 170.1 240.014L176.993 304.189C176.896 304.383 176.896 304.674 176.799 304.965L176.314 320.305C176.217 321.859 177.479 323.218 179.032 323.315C180.585 323.412 181.945 322.15 182.042 320.597L182.333 314.868C182.721 315.257 183.207 315.548 183.595 315.839L183.11 328.072C183.013 329.432 184.081 330.597 185.537 330.694C186.993 330.791 188.061 329.723 188.158 328.267L188.547 318.072C188.838 318.169 189.226 318.266 189.518 318.266L189.809 330.305C189.809 331.665 190.974 332.733 192.333 332.733C193.692 332.733 194.76 331.567 194.76 330.208L194.469 318.266C194.954 318.169 195.44 318.072 195.828 317.975L196.119 329.043C196.119 330.402 197.285 331.47 198.644 331.47C200.003 331.47 201.071 330.305 201.071 328.946L200.78 315.548C201.168 315.257 201.556 314.965 201.848 314.674L202.139 324.868C202.139 326.228 203.304 327.296 204.663 327.296C206.022 327.296 207.09 326.131 207.09 324.771L206.605 308.169Z" fill="white"/>
<path d="M206.69 309.722L206.593 308.169C206.593 307.683 206.399 307.295 206.205 306.907C206.399 305.936 206.496 304.965 206.496 303.994" stroke="black" stroke-width="4.11567" stroke-linecap="round" stroke-linejoin="round"/>
<path d="M206.01 298.17L199.311 236.422V236.131C190.185 166.713 141.447 143.509 139.311 142.635C139.117 142.538 138.826 142.441 138.632 142.344C129.602 136.907 119.02 133.8 107.758 133.8C107.758 133.8 91.2527 132.926 75.5245 141.179" stroke="black" stroke-width="4.11567" stroke-linecap="round" stroke-linejoin="round" stroke-dasharray="8.32 8.32"/>
<path d="M72.9031 142.536C72.0293 143.022 71.2526 143.507 70.4759 144.09L70.2818 143.604C69.9905 143.701 69.1167 144.187 67.6604 144.963" stroke="black" stroke-width="4.11567" stroke-linecap="round" stroke-linejoin="round"/>
<path d="M62.7089 147.877C48.2429 157.295 17.2719 183.314 10.2816 237.101L3.09709 303.412C2.90291 305.062 3 306.713 3.38835 308.266L3 323.897C3 325.257 4.06796 326.422 5.42719 326.422C6.78642 326.422 7.95147 325.354 7.95147 323.995V321.956" stroke="black" stroke-width="4.11567" stroke-linecap="round" stroke-linejoin="round" stroke-dasharray="8.11 8.11"/>
<path d="M8.14557 319.043L8.24266 316.13C8.63101 316.422 9.01936 316.713 9.40771 317.004V319.917" stroke="black" stroke-width="4.11567" stroke-linecap="round" stroke-linejoin="round"/>
<path d="M9.11652 327.295V328.168C9.11652 329.528 10.1845 330.693 11.5437 330.693C12.9029 330.693 14.068 329.625 14.068 328.266V325.838" stroke="black" stroke-width="4.11567" stroke-linecap="round" stroke-linejoin="round" stroke-dasharray="10.46 10.46"/>
<path d="M14.2621 322.053V319.141C14.7476 319.238 15.1359 319.335 15.6214 319.432V322.345" stroke="black" stroke-width="4.11567" stroke-linecap="round" stroke-linejoin="round"/>
<path d="M15.5243 329.722C15.7185 330.984 16.6893 331.858 17.9515 331.858C19.3107 331.858 20.4758 330.79 20.4758 329.431L20.5729 325.838" stroke="black" stroke-width="4.11567" stroke-linecap="round" stroke-linejoin="round" stroke-dasharray="10.46 10.46"/>
<path d="M20.5729 322.15V319.238C20.9612 319.14 21.3496 319.043 21.6408 318.946L21.835 321.859" stroke="black" stroke-width="4.11567" stroke-linecap="round" stroke-linejoin="round"/>
<path d="M22.7088 328.752C23.1942 329.335 23.9709 329.723 24.8447 329.723C26.204 329.626 27.2719 328.461 27.1748 327.102L26.9807 322.83" stroke="black" stroke-width="4.11567" stroke-linecap="round" stroke-linejoin="round" stroke-dasharray="9.96 9.96"/>
<path d="M26.7865 319.334L26.5923 316.421C26.8835 316.227 27.1748 315.936 27.369 315.742L27.5632 318.654" stroke="black" stroke-width="4.11567" stroke-linecap="round" stroke-linejoin="round"/>
<path d="M30.2816 322.636C30.5729 322.733 30.9612 322.733 31.2525 322.733C33.1942 322.636 34.6506 320.985 34.5535 319.044L33.9709 307.296" stroke="black" stroke-width="4.11567" stroke-linecap="round" stroke-linejoin="round" stroke-dasharray="7.39 7.39"/>
<path d="M33.7767 304.674C33.6796 303.606 33.1942 302.732 32.5146 302.15L32.8059 299.237" stroke="black" stroke-width="4.11567" stroke-linecap="round" stroke-linejoin="round"/>
<path d="M33.4855 293.411L39.2137 240.79C40.4758 231.372 42.6118 223.12 45.2331 215.838" stroke="black" stroke-width="4.11567" stroke-linecap="round" stroke-linejoin="round" stroke-dasharray="8.23 8.23"/>
<path d="M46.204 213.119C46.5923 212.246 46.9807 211.275 47.369 210.401V213.314" stroke="black" stroke-width="4.11567" stroke-linecap="round" stroke-linejoin="round"/>
<path d="M47.369 219.14V262.635C47.369 272.15 49.602 279.043 53.4855 283.994" stroke="black" stroke-width="4.11567" stroke-linecap="round" stroke-linejoin="round" stroke-dasharray="8.12 8.12"/>
<path d="M55.4274 286.033C56.107 286.712 56.8837 287.392 57.6604 287.974V290.887" stroke="black" stroke-width="4.11567" stroke-linecap="round" stroke-linejoin="round"/>
<path d="M57.5632 296.519L57.4661 353.51C57.4661 362.247 57.0778 371.179 56.3982 379.917L51.6409 440.403" stroke="black" stroke-width="4.11567" stroke-linecap="round" stroke-linejoin="round" stroke-dasharray="7.99 7.99"/>
<path d="M51.4467 443.218L51.2525 446.131H51.738C51.3496 447.005 51.0584 447.878 50.7671 448.849" stroke="black" stroke-width="4.11567" stroke-linecap="round" stroke-linejoin="round"/>
<path d="M49.3108 454.772C48.9225 456.908 48.6312 459.141 48.3399 461.568C46.9807 473.316 51.9322 484.869 63.7769 487.685C64.4565 487.879 65.2332 487.976 65.9128 488.073C78.0488 489.724 97.6605 490.597 106.01 479.626C109.796 474.578 110.379 468.267 109.602 461.665C108.437 451.374 103.097 443.219 96.4954 440.015" stroke="black" stroke-width="4.11567" stroke-linecap="round" stroke-linejoin="round" stroke-dasharray="8.57 8.57"/>
<path d="M93.6798 438.85C92.7089 438.656 91.738 438.461 90.7672 438.461L90.9613 435.549" stroke="black" stroke-width="4.11567" stroke-linecap="round" stroke-linejoin="round"/>
<path d="M91.4468 429.625L95.1362 383.023C95.9129 373.314 96.3012 363.411 96.3012 353.606L96.3983 302.44" stroke="black" stroke-width="4.11567" stroke-linecap="round" stroke-linejoin="round" stroke-dasharray="8.37 8.37"/>
<path d="M96.3983 299.528V296.615C97.3691 296.615 98.34 296.615 99.3109 296.615" stroke="black" stroke-width="4.11567" stroke-linecap="round" stroke-linejoin="round"/>
<path d="M105.039 296.712C105.913 296.712 106.787 296.712 107.661 296.712C109.602 296.712 111.544 296.712 113.486 296.712" stroke="black" stroke-width="4.11567" stroke-linecap="round" stroke-linejoin="round" stroke-dasharray="7.99 7.99"/>
<path d="M116.301 296.615C117.272 296.615 118.243 296.615 119.214 296.615V299.528" stroke="black" stroke-width="4.11567" stroke-linecap="round" stroke-linejoin="round"/>
<path d="M119.214 305.45L118.534 447.004C116.981 450.888 116.107 455.936 115.427 461.567C114.068 473.315 119.02 484.868 130.864 487.684C131.544 487.878 132.321 487.975 133 488.072C145.136 489.723 164.748 490.596 173.098 479.626C176.884 474.577 177.466 468.266 176.69 461.664C175.525 451.082 169.894 442.732 163 439.722" stroke="black" stroke-width="4.11567" stroke-linecap="round" stroke-linejoin="round" stroke-dasharray="8.35 8.35"/>
<path d="M160.282 438.753C159.311 438.559 158.437 438.461 157.466 438.461H157.369V435.549" stroke="black" stroke-width="4.11567" stroke-linecap="round" stroke-linejoin="round"/>
<path d="M157.466 429.723L158.049 293.509" stroke="black" stroke-width="4.11567" stroke-linecap="round" stroke-linejoin="round" stroke-dasharray="8.19 8.19"/>
<path d="M158.049 290.596V287.683C158.826 287.1 159.505 286.421 160.185 285.741" stroke="black" stroke-width="4.11567" stroke-linecap="round" stroke-linejoin="round"/>
<path d="M164.068 280.597C166.593 276.034 167.952 270.209 167.952 262.636V233.121" stroke="black" stroke-width="4.11567" stroke-linecap="round" stroke-linejoin="round" stroke-dasharray="9.07 9.07"/>
<path d="M167.952 229.819V226.907C168.146 227.878 168.437 228.751 168.632 229.722" stroke="black" stroke-width="4.11567" stroke-linecap="round" stroke-linejoin="round"/>
<path d="M169.797 235.742C169.991 237.101 170.185 238.363 170.379 239.722L177.272 303.897C177.175 304.091 177.175 304.383 177.078 304.674L176.302 320.305C176.204 321.858 177.467 323.218 179.02 323.315C180.573 323.412 181.835 322.247 182.03 320.791" stroke="black" stroke-width="4.11567" stroke-linecap="round" stroke-linejoin="round" stroke-dasharray="8.55 8.55"/>
<path d="M182.127 317.78L182.321 314.868C182.709 315.256 183.195 315.547 183.583 315.839L183.486 318.751" stroke="black" stroke-width="4.11567" stroke-linecap="round" stroke-linejoin="round"/>
<path d="M183.195 323.606L183.001 328.072C182.904 329.431 183.972 330.596 185.428 330.693C186.884 330.79 187.952 329.722 188.049 328.266L188.243 323.412" stroke="black" stroke-width="4.11567" stroke-linecap="round" stroke-linejoin="round" stroke-dasharray="6.92 6.92"/>
<path d="M188.34 320.984L188.438 318.072C188.729 318.169 189.117 318.266 189.408 318.266L189.506 321.179" stroke="black" stroke-width="4.11567" stroke-linecap="round" stroke-linejoin="round"/>
<path d="M189.603 326.422L189.7 330.403C189.7 331.762 190.865 332.83 192.224 332.83C193.583 332.83 194.651 331.665 194.651 330.306L194.457 323.898" stroke="black" stroke-width="4.11567" stroke-linecap="round" stroke-linejoin="round" stroke-dasharray="7.37 7.37"/>
<path d="M194.457 321.179L194.36 318.266C194.845 318.169 195.331 318.072 195.719 317.975L195.816 320.888" stroke="black" stroke-width="4.11567" stroke-linecap="round" stroke-linejoin="round"/>
<path d="M196.01 326.227L196.107 329.14C196.107 330.499 197.272 331.567 198.632 331.567C199.991 331.567 201.059 330.402 201.059 329.043L200.865 321.179" stroke="black" stroke-width="4.11567" stroke-linecap="round" stroke-linejoin="round" stroke-dasharray="7.5 7.5"/>
<path d="M200.768 318.46L200.671 315.547C201.059 315.256 201.447 314.965 201.739 314.673L201.836 317.586" stroke="black" stroke-width="4.11567" stroke-linecap="round" stroke-linejoin="round"/>
<path d="M202.127 323.509V324.771C202.127 326.131 203.292 327.199 204.651 327.199C206.01 327.199 207.078 326.034 207.078 324.674L206.69 312.83" stroke="black" stroke-width="4.11567" stroke-linecap="round" stroke-linejoin="round" stroke-dasharray="8.46 8.46"/>
<path d="M116.301 142.538L112.029 143.703C108.923 144.577 105.525 144.577 102.418 143.703L97.8546 142.441C96.3012 142.053 95.1362 140.596 95.1362 138.946V123.509H118.923V139.043C118.923 140.693 117.855 142.053 116.301 142.538Z" fill="#FFD0A9"/>
<path d="M86.01 23.7991C90.1847 33.4108 99.0197 40.4011 108.631 36.3234C118.243 32.2458 122.709 21.0807 118.534 11.469C114.36 1.85731 103.292 -2.60872 93.6799 1.56605C89.2139 3.50781 78.0488 8.65345 76.2041 18.9447C75.2332 23.9933 83.777 18.6535 86.01 23.7991Z" fill="black"/>
<path d="M45.8157 76.6149C45.8157 108.751 69.0196 132.635 108.437 132.635C141.35 132.635 161.738 108.751 161.738 76.6149C161.738 44.4789 138.34 18.3623 105.428 18.3623C72.5148 18.3623 45.8157 44.4789 45.8157 76.6149Z" fill="#FFD0A9"/>
<path d="M80.3788 85.5467C73.8739 85.5467 69.9904 78.7506 69.9904 72.1486C69.9904 65.5466 73.8739 58.7505 80.3788 58.7505C86.107 58.7505 89.3109 63.8961 90.3788 68.2651C90.573 69.1389 91.3497 69.7214 92.2235 69.7214C93.874 69.7214 95.5245 70.6923 95.5245 72.0515C95.5245 73.4107 93.874 74.3816 92.2235 74.3816C91.3497 74.3816 90.573 75.0612 90.3788 75.8379C89.3109 80.401 86.107 85.5467 80.3788 85.5467Z" fill="#FFEFE1"/>
<path d="M80.379 60.5949C84.9421 60.5949 87.5635 64.9639 88.4372 68.6532C88.8256 70.4008 90.379 71.6629 92.1266 71.6629C92.8062 71.6629 93.2916 71.9542 93.4858 72.0513C93.2916 72.2455 92.8062 72.4396 92.1266 72.4396C90.379 72.4396 88.8256 73.7018 88.4372 75.4494C87.5635 79.1387 84.9421 83.5076 80.379 83.5076C75.0391 83.5076 71.9323 77.6824 71.9323 72.0513C71.9323 66.4202 75.0391 60.5949 80.379 60.5949ZM80.379 56.7114C72.709 56.7114 68.0488 64.3814 68.0488 72.0513C68.0488 79.7212 72.709 87.3911 80.379 87.3911C86.5926 87.3911 90.8644 82.3426 92.2237 76.3231C94.845 76.226 97.4664 74.6727 97.4664 72.0513C97.4664 69.4299 94.845 67.7794 92.2237 67.7794C90.8644 61.76 86.5926 56.7114 80.379 56.7114Z" fill="black"/>
<path d="M80.9614 79.5282C84.0714 79.5282 86.5925 76.1812 86.5925 72.0524C86.5925 67.9237 84.0714 64.5767 80.9614 64.5767C77.8514 64.5767 75.3303 67.9237 75.3303 72.0524C75.3303 76.1812 77.8514 79.5282 80.9614 79.5282Z" fill="black"/>
<path d="M137.369 85.5469C131.641 85.5469 128.437 80.4012 127.369 76.0323C127.175 75.1585 126.398 74.5759 125.525 74.5759C123.874 74.5759 122.224 73.6051 122.224 72.2458C122.224 70.8866 123.874 69.9157 125.525 69.9157C126.398 69.9157 127.175 69.2361 127.369 68.4594C128.437 64.0905 131.641 58.9448 137.369 58.9448C143.874 58.9448 147.758 65.741 147.758 72.3429C147.758 78.6536 143.874 85.5469 137.369 85.5469Z" fill="#FFEFE1"/>
<path d="M137.369 60.5949C142.709 60.5949 145.816 66.4202 145.816 72.0513C145.816 77.6824 142.612 83.5076 137.369 83.5076C132.806 83.5076 130.185 79.1387 129.311 75.4494C128.923 73.7018 127.369 72.4396 125.622 72.4396C124.942 72.4396 124.457 72.1484 124.263 72.0513C124.457 71.8571 124.942 71.6629 125.622 71.6629C127.369 71.6629 128.923 70.4008 129.311 68.6532C130.185 64.9639 132.806 60.5949 137.369 60.5949ZM137.369 56.7114C131.156 56.7114 126.884 61.76 125.525 67.7794C122.903 67.8765 120.282 69.4299 120.282 72.0513C120.282 74.6727 122.903 76.3231 125.525 76.3231C126.884 82.3426 131.156 87.3911 137.369 87.3911C145.039 87.3911 149.7 79.7212 149.7 72.0513C149.7 64.3814 145.039 56.7114 137.369 56.7114Z" fill="black"/>
<path d="M136.496 79.5282C139.606 79.5282 142.127 76.1812 142.127 72.0524C142.127 67.9237 139.606 64.5767 136.496 64.5767C133.386 64.5767 130.865 67.9237 130.865 72.0524C130.865 76.1812 133.386 79.5282 136.496 79.5282Z" fill="black"/>
<path d="M107.855 88.654H109.991C112.127 88.654 113.971 87.3919 113.971 85.256C113.971 83.1201 112.224 81.8579 109.991 81.8579" stroke="black" stroke-width="4.11567" stroke-miterlimit="10" stroke-linecap="round" stroke-linejoin="round"/>
<path d="M100.961 105.256C103.389 105.839 105.427 106.033 108.437 106.033C111.641 106.033 113.971 105.742 116.495 105.062" stroke="black" stroke-width="4.11567" stroke-miterlimit="10" stroke-linecap="round" stroke-linejoin="round"/>
<path d="M105.428 18.3623C131.156 18.3623 151.059 34.2847 158.535 56.5178C126.496 51.3721 111.641 37.1973 99.2139 27.974C96.4955 41.9546 77.9517 60.9838 46.0099 71.4693C48.6313 41.7604 74.2624 18.3623 105.428 18.3623Z" fill="black"/>
</svg>
