<svg width="183" height="183" viewBox="0 0 183 183" fill="none" xmlns="http://www.w3.org/2000/svg">
<circle cx="91.5" cy="91.5" r="91.5" fill="url(#paint0_linear)"/>
<mask id="mask0" mask-type="alpha" maskUnits="userSpaceOnUse" x="0" y="0" width="183" height="183">
<circle cx="91.5" cy="91.5" r="91.5" fill="url(#paint1_linear)"/>
</mask>
<g mask="url(#mask0)">
<path fill-rule="evenodd" clip-rule="evenodd" d="M88.0029 17C73.8056 17 60.7234 24.6942 53.8238 37.1021L38.7023 64.2958C34.3209 72.175 31.3029 80.7381 29.7757 89.6232L29.1954 93H29.08C29.1125 93.034 29.1452 93.0679 29.1779 93.1017L29.0903 93.6113H29.678C42.1388 106.099 65.0714 114 96.1731 114C122.182 114 141.889 106.099 152.691 93.6113H153.783L153.552 91.9986C152.058 81.5687 148.519 71.5366 143.137 62.4785L139.818 56.8925C136.834 51.8699 133.309 47.1893 129.306 42.9344L116.485 29.3088C109.094 21.454 98.788 17 88.0029 17Z" fill="#BB5A00"/>
<path d="M104.126 165.118L99.7363 166.332C96.4948 167.222 93.0723 167.222 89.8307 166.332L85.1322 165.059C84.3434 164.846 83.6469 164.38 83.1509 163.732C82.6549 163.085 82.3871 162.292 82.389 161.477V145.617H106.839V161.536C106.841 162.347 106.577 163.136 106.087 163.783C105.597 164.43 104.908 164.899 104.126 165.118V165.118Z" fill="#FFD0A9"/>
<path d="M31.6639 97.551C31.6639 130.484 55.5351 154.96 95.9855 154.96C129.812 154.96 150.85 130.484 150.85 97.551C150.85 64.6181 126.76 37.9136 92.9929 37.9136C59.226 37.9136 31.6639 64.6181 31.6639 97.551Z" fill="#FFD0A9"/>
<path d="M81.1746 95.4955L81.1904 95.4952H81.2061C81.8228 95.4952 82.45 95.2892 82.891 94.9716C83.3273 94.6575 83.4527 94.3442 83.4527 94.1087C83.4527 93.8784 83.3327 93.5743 82.896 93.2626C82.4528 92.9462 81.8146 92.7341 81.177 92.7217L81.1746 92.7217C80.3195 92.7037 79.5109 92.3771 78.8748 91.819C78.2411 91.2629 77.815 90.511 77.6406 89.6938L77.6405 89.6938L77.6377 89.6802C77.1262 87.1693 76.0102 84.4914 74.3285 82.4746C72.6665 80.4816 70.5128 79.1919 67.8239 79.1919C64.7719 79.1919 62.242 80.8902 60.4096 83.6847C58.5659 86.4966 57.5239 90.3049 57.5239 94.1087C57.5239 97.9102 58.5731 101.719 60.4212 104.531C62.259 107.328 64.7897 109.025 67.8239 109.025C70.5109 109.025 72.6504 107.738 74.3061 105.745C75.9825 103.727 77.1012 101.045 77.6407 98.5227C77.8152 97.7057 78.2412 96.9541 78.8748 96.3982C79.5109 95.8401 80.3195 95.5134 81.1746 95.4955Z" fill="#FFEFE1" stroke="black" stroke-width="3"/>
<path d="M68.7925 101.62C71.9824 101.62 74.5683 98.1814 74.5683 93.9393C74.5683 89.6972 71.9824 86.2583 68.7925 86.2583C65.6026 86.2583 63.0167 89.6972 63.0167 93.9393C63.0167 98.1814 65.6026 101.62 68.7925 101.62Z" fill="black"/>
<path d="M111.674 94.5004L111.659 94.5H111.643C111.026 94.5 110.399 94.2941 109.958 93.9765C109.522 93.6624 109.396 93.349 109.396 93.1135C109.396 92.8832 109.516 92.5792 109.953 92.2675C110.396 91.9511 111.034 91.739 111.672 91.7266L111.674 91.7266C112.529 91.7086 113.338 91.382 113.974 90.8238C114.608 90.2678 115.034 89.5159 115.208 88.6987L115.208 88.6987L115.211 88.685C115.723 86.1742 116.839 83.4962 118.52 81.4795C120.182 79.4864 122.336 78.1968 125.025 78.1968C128.077 78.1968 130.607 79.8951 132.439 82.6896C134.283 85.5014 135.325 89.3098 135.325 93.1135C135.325 96.9151 134.276 100.723 132.428 103.536C130.59 106.333 128.059 108.03 125.025 108.03C122.338 108.03 120.198 106.742 118.543 104.75C116.866 102.732 115.748 100.05 115.208 97.5276C115.034 96.7106 114.608 95.959 113.974 95.4031C113.338 94.845 112.529 94.5183 111.674 94.5004Z" fill="#FFEFE1" stroke="black" stroke-width="3"/>
<path d="M124.864 100.625C128.054 100.625 130.64 97.1863 130.64 92.9442C130.64 88.7021 128.054 85.2632 124.864 85.2632C121.675 85.2632 119.089 88.7021 119.089 92.9442C119.089 97.1863 121.675 100.625 124.864 100.625Z" fill="black"/>
<path d="M95.387 109.948H97.6315C99.876 109.948 101.691 108.675 101.691 106.436C101.691 104.197 99.876 102.924 97.6315 102.924" stroke="black" stroke-width="3" stroke-linecap="round" stroke-linejoin="round"/>
<path d="M88.3344 126.922C90.848 127.511 93.4236 127.795 96.0055 127.768C98.8093 127.783 101.604 127.448 104.325 126.773" stroke="black" stroke-width="3" stroke-linecap="round" stroke-linejoin="round"/>
<path fill-rule="evenodd" clip-rule="evenodd" d="M79.9039 153.618C49.5283 147.852 32.0577 125.868 32.0577 97.694C32.0577 89.5675 33.736 81.8202 36.7716 74.7598L34.3939 76.0858L32.33 85.3734C31.0418 91.1702 30.2725 97.0702 30.0312 103.003L29.5973 113.675C29.289 121.257 29.8653 128.832 31.0345 136.33C33.4717 151.961 37.0276 179.828 33.8727 193.086C29.3516 212.086 28.3939 236.086 28.3939 236.086H60.4956C62.1945 228.869 61.7831 221.35 61.3287 213.046L61.3287 213.046C61.1455 209.697 60.9553 206.221 60.8937 202.586C60.8937 184.533 64.5066 179.947 69.003 174.239C72.3525 169.987 76.1922 165.112 79.3941 153.586L79.9039 153.618ZM109.958 153.676L111.394 153.586C114.306 164.505 119.082 170.954 123.294 176.641C127.761 182.671 131.594 187.845 131.894 196.586C132.003 199.78 132.156 202.842 132.306 205.832L132.306 205.833C132.812 215.955 133.277 225.254 131.879 236.086H151.394C151.394 236.086 154.769 211.586 155.581 200.586C156.267 191.3 155.795 183.084 155.143 171.726L155.143 171.724C155.022 169.627 154.895 167.423 154.769 165.086C154.175 154.131 153.582 121.306 153.305 104.4C153.193 97.5285 152.386 90.7061 150.883 84.0002L149.894 79.5858L148.346 78.4485C150.237 84.4865 151.244 90.9601 151.244 97.694C151.244 125.963 135.743 148.001 109.958 153.676Z" fill="black"/>
<path fill-rule="evenodd" clip-rule="evenodd" d="M149.894 79.5859C142.894 52.0859 118.644 36.0859 92.3938 36.0859C66.0117 36.0859 43.1242 53.0395 34.3094 76.0859C34.3094 76.0859 40.9628 77.2044 54.151 77.5097L54.4197 72.1357H55.4197L55.69 77.541C57.3308 77.5699 59.0655 77.5859 60.8939 77.5859C68.7283 77.5859 75.4418 76.932 91.4241 75.3751H91.4241L91.4362 75.3739C92.3885 75.2811 93.3736 75.1852 94.3939 75.0859C97.1899 74.814 100.462 74.6496 103.998 74.566L104.42 66.1357H105.42L105.839 74.53C113.349 74.4124 121.835 74.623 129.394 74.9238C141.223 75.3945 149.894 79.5859 149.894 79.5859Z" fill="black"/>
<path d="M88 86.5H105V92.5C105 92.5 100 91.5 96.5 91.5C93 91.5 88 92.5 88 92.5V86.5Z" fill="black"/>
<rect x="41" y="86.5" width="5" height="5" fill="black"/>
<rect x="146" y="86.5" width="5" height="5" fill="black"/>
<path d="M88.8113 85.4284L87.1502 104.807C86.8633 108.155 84.431 110.763 81.2856 111.138C77.5258 111.587 72.6597 112 67.5 112C62.3403 112 57.4742 111.587 53.7144 111.138C50.5691 110.763 48.1367 108.155 47.8498 104.807L46.1887 85.4283C45.8814 81.8427 48.133 78.9014 51.3503 78.4778C55.2797 77.9604 60.6897 77.5 67.5 77.5C74.3103 77.5 79.7202 77.9604 83.6497 78.4778C86.867 78.9014 89.1186 81.8428 88.8113 85.4284Z" stroke="black" stroke-width="5"/>
<path d="M103.21 85.4412L104.832 103.822C105.127 107.162 107.557 109.761 110.696 110.136C114.458 110.586 119.332 111 124.5 111C129.668 111 134.542 110.586 138.304 110.136C141.443 109.761 143.873 107.162 144.168 103.822L145.79 85.4412C146.107 81.849 143.853 78.8989 140.63 78.4752C136.702 77.9589 131.299 77.5 124.5 77.5C117.701 77.5 112.298 77.9589 108.37 78.4752C105.147 78.8989 102.893 81.849 103.21 85.4412Z" stroke="black" stroke-width="5"/>
<path fill-rule="evenodd" clip-rule="evenodd" d="M87.2006 17C73.3934 17 60.5623 24.1208 53.2574 35.8374L46.5474 46.5998L37.1102 65.9119C33.7757 72.7356 31.4299 79.9994 30.1434 87.4844L29.0903 93.6113H31.7795C45.4511 81.5794 68.0738 73.7122 93.5721 73.7122C119.07 73.7122 140.084 81.5794 152.513 93.6113H153.783L153.552 91.9986C152.058 81.5687 148.519 71.5366 143.137 62.4785L139.818 56.8925C136.834 51.8699 133.309 47.1893 129.306 42.9344L116.749 29.5896C109.19 21.5556 98.6486 17 87.6174 17H87.2006Z" fill="#FC7900"/>
<path fill-rule="evenodd" clip-rule="evenodd" d="M142.167 57.6703C129.252 50.2666 112.637 45.8535 93.7463 45.8535C71.914 45.8535 52.0308 51.7479 37.3564 61.3407L37.326 61.3895C31.3173 71.027 28.4408 82.2807 29.0899 93.6112H31.7793C45.451 81.5793 68.0736 73.7122 93.572 73.7122C119.07 73.7122 140.084 81.5793 152.513 93.6112H153.783C154.747 82.3911 152.568 71.206 145.848 62.157L142.167 57.6703Z" fill="#E36D00"/>
<path d="M94.04 65.1816V53.5016H97.8C98.632 53.5016 99.352 53.6456 99.96 53.9336C100.568 54.2216 101.037 54.6323 101.368 55.1656C101.709 55.699 101.88 56.3283 101.88 57.0536C101.88 57.811 101.693 58.4883 101.32 59.0856C100.957 59.683 100.461 60.115 99.832 60.3816L102.04 65.1816H99.432L97.544 60.7656H96.424V65.1816H94.04ZM96.424 58.6856H97.8C98.3333 58.6856 98.744 58.5523 99.032 58.2856C99.3307 58.019 99.48 57.6456 99.48 57.1656C99.48 56.6643 99.3307 56.275 99.032 55.9976C98.744 55.7203 98.3333 55.5816 97.8 55.5816H96.424V58.6856Z" fill="black"/>
</g>
<defs>
<linearGradient id="paint0_linear" x1="168.995" y1="21.1154" x2="-16.7016" y2="76.0549" gradientUnits="userSpaceOnUse">
<stop stop-color="#148EFF"/>
<stop offset="1" stop-color="#D0C9FF"/>
</linearGradient>
<linearGradient id="paint1_linear" x1="168.995" y1="21.1154" x2="-16.7016" y2="76.0549" gradientUnits="userSpaceOnUse">
<stop stop-color="#148EFF"/>
<stop offset="1" stop-color="#D0C9FF"/>
</linearGradient>
</defs>
</svg>
