<svg xmlns="http://www.w3.org/2000/svg" viewBox="0 0 90 90" fill-rule="evenodd"><style><![CDATA[.B{fill-rule:nonzero}.C{stroke:#000}.D{stroke-width:3}]]></style><g transform="scale(.491803)"><circle cx="91.5" cy="91.5" r="91.5" fill="url(#A)"/><g fill="#ffd0a9" class="B"><path d="M102.125 153.175l-4.389 1.214c-3.241.891-6.664.891-9.905 0l-4.699-1.273a3.71 3.71 0 0 1-1.981-1.327 3.69 3.69 0 0 1-.762-2.255v-15.86h24.45v15.92c.002.81-.262 1.599-.752 2.246s-1.179 1.116-1.962 1.335z"/><path d="M29.664 85.608c0 32.933 23.871 57.409 64.321 57.409 33.827 0 54.865-24.476 54.865-57.409s-24.09-59.637-57.857-59.637-61.329 26.704-61.329 59.637z"/></g><path d="M79.175 83.553l.015-.001h.016c.617 0 1.244-.206 1.685-.523.436-.314.562-.628.562-.863 0-.23-.12-.534-.557-.846-.443-.317-1.081-.529-1.719-.541h-.002a3.6 3.6 0 0 1-2.3-.903c-.634-.556-1.06-1.308-1.234-2.125l-.003-.014c-.512-2.511-1.628-5.188-3.31-7.205-1.662-1.993-3.815-3.283-6.504-3.283-3.052 0-5.582 1.698-7.414 4.493-1.844 2.812-2.886 6.62-2.886 10.424s1.049 7.61 2.897 10.423c1.838 2.796 4.369 4.493 7.403 4.493 2.687 0 4.826-1.287 6.482-3.28 1.677-2.018 2.795-4.7 3.335-7.222.174-.817.6-1.569 1.234-2.125a3.6 3.6 0 0 1 2.3-.902z" fill="#ffefe1" class="B C D"/><path d="M66.792 89.678c3.19 0 5.776-3.439 5.776-7.681s-2.586-7.682-5.776-7.682-5.775 3.439-5.775 7.682 2.586 7.681 5.775 7.681z" class="B"/><path d="M109.674 82.558l-.015-.001h-.016c-.617 0-1.244-.206-1.685-.523-.436-.314-.562-.628-.562-.863s.12-.535.557-.846c.443-.317 1.081-.529 1.719-.541h.002c.855-.018 1.664-.345 2.3-.903s1.06-1.308 1.234-2.125l.003-.014c.512-2.511 1.628-5.189 3.309-7.205 1.662-1.993 3.816-3.283 6.505-3.283 3.052 0 5.582 1.698 7.414 4.493 1.844 2.812 2.886 6.62 2.886 10.424s-1.049 7.61-2.897 10.422c-1.838 2.797-4.369 4.494-7.403 4.494-2.687 0-4.826-1.287-6.482-3.28-1.677-2.018-2.795-4.7-3.335-7.222-.174-.817-.6-1.569-1.234-2.125a3.6 3.6 0 0 0-2.3-.902z" fill="#ffefe1" class="B C D"/><path d="M122.864 88.682c3.19 0 5.776-3.439 5.776-7.681s-2.586-7.681-5.776-7.681-5.775 3.439-5.775 7.681 2.586 7.681 5.775 7.681z" class="B"/><path d="M93.387 98.005h2.244c2.245 0 4.06-1.273 4.06-3.512s-1.815-3.512-4.06-3.512m-9.296 23.998c2.513.589 5.089.873 7.671.846 2.803.015 5.598-.32 8.319-.995" fill="none" stroke-linecap="round" stroke-linejoin="round" class="C D"/><ellipse cx="34.664" cy="71.5" rx="10" ry="22.5"/><ellipse cx="146.664" cy="71.5" rx="11" ry="22.5"/><path d="M148.664 89c0-32.032-25.968-58-58-58a57.79 57.79 0 0 0-39 15.069m0 8a57.79 57.79 0 0 1 39-15.069c29.491 0 53.841 22.01 57.519 50.5m.481-7.5c0-32.032-25.968-58-58-58-15.016 0-28.7 5.706-39 15.069" fill="none" class="C"/><path d="M87.521 78.139h13.966l-.998 3.98s-2.992-.995-6.484-.995-5.486.995-5.486.995l-.998-3.98z" class="B"/><path d="M39.639 76.149h4.988v4.975h-4.988zm104.742 0h4.988v4.975h-4.988z"/><path d="M88.516 84.606c0 12.358-10.045 22.381-22.442 22.381S43.632 96.964 43.632 84.606s10.045-22.381 22.442-22.381 22.442 10.023 22.442 22.381zm56.86 0c0 12.358-10.045 22.381-22.442 22.381s-22.442-10.023-22.442-22.381 10.045-22.381 22.442-22.381 22.442 10.023 22.442 22.381z" fill="none" stroke-width="2" class="C"/></g><defs><linearGradient id="A" x1="168.995" y1="21.115" x2="-16.702" y2="76.055" gradientUnits="userSpaceOnUse"><stop offset="0" stop-color="#148eff"/><stop offset="1" stop-color="#d0c9ff"/></linearGradient></defs></svg>