<svg xmlns="http://www.w3.org/2000/svg" xmlns:xlink="http://www.w3.org/1999/xlink" viewBox="0 0 90 90" fill-rule="evenodd" stroke-linejoin="round" stroke-miterlimit="2"><g transform="scale(.491803)"><path d="M0 0h183v183H0z" fill="#fff" fill-rule="nonzero"/><circle cx="91.5" cy="91.5" r="91.5" fill="url(#A)"/><path d="M166.399 83.789a7.81 7.81 0 0 0 .265 1.228C168.184 90.078 169 95.444 169 101c0 30.652-24.848 55.5-55.5 55.5-3.806 0-7.522-.383-11.113-1.113-3.446-.25-6.818-.91-10.092-1.929a8.12 8.12 0 0 0-4.058-.207A60.24 60.24 0 0 1 76 154.5c-33.137 0-60-26.863-60-60 0-28.329 19.633-52.072 46.034-58.366a7.96 7.96 0 0 0 3.354-1.715C76.157 25.121 90.174 19.5 105.5 19.5c31.036 0 56.702 32.672 60.899 64.289z"/><circle cx="0" cy="0" r="55.5" transform="matrix(-1 0 0 1 69.5 101)"/><g fill-rule="nonzero"><use xlink:href="#B" fill="#ffd0a9"/><use xlink:href="#B" fill-opacity=".05"/><path d="M31 97.691c0 33.201 24.034 57.877 64.761 57.877 34.057 0 55.239-24.675 55.239-57.877s-24.255-60.123-58.252-60.123S31 64.489 31 97.691z" fill="#ffd0a9"/><path d="M67.249 110.547c6.487 0 10.155-6.328 11.311-11.748.11-.519.377-.982.758-1.317s.855-.523 1.345-.533c1.839 0 3.756-1.194 3.756-2.901s-1.916-2.865-3.756-2.901a2.1 2.1 0 0 1-1.345-.533 2.42 2.42 0 0 1-.758-1.317c-1.101-5.42-4.824-11.748-11.311-11.748-7.401 0-11.829 8.358-11.829 16.5s4.461 16.5 11.829 16.5v-.002z" fill="#ffefe1"/></g><path d="M79.712 94.047c-.885.178-1.702.591-2.374 1.182a5.43 5.43 0 0 0-1.711 2.944m4.085-4.126c-.885-.178-1.702-.591-2.374-1.182a5.42 5.42 0 0 1-1.711-2.945l-.006-.028c-.476-2.34-1.508-4.789-3.003-6.586-1.455-1.749-3.222-2.76-5.369-2.76-2.418 0-4.535 1.324-6.179 3.839-1.666 2.548-2.65 6.083-2.65 9.662s.989 7.109 2.661 9.659c1.651 2.52 3.77 3.841 6.168 3.841 2.143 0 3.895-1.006 5.345-2.756 1.49-1.798 2.528-4.254 3.032-6.617m2.934-8.879a2.42 2.42 0 0 0 .758 1.317c.381.335.855.523 1.345.533 1.839.036 3.756 1.194 3.756 2.901s-1.916 2.901-3.756 2.901a2.1 2.1 0 0 0-1.345.533 2.42 2.42 0 0 0-.758 1.317c-1.157 5.42-4.824 11.748-11.311 11.748-7.368 0-11.829-8.357-11.829-16.5s4.428-16.5 11.829-16.5c6.487 0 10.21 6.328 11.311 11.748v.002z"/><g fill-rule="nonzero"><use xlink:href="#C"/><path d="M124.591 109.547c-6.487 0-10.155-6.328-11.312-11.748-.105-.509-.371-.971-.758-1.317-.381-.335-.855-.523-1.345-.533-1.84 0-3.756-1.194-3.756-2.901s1.916-2.865 3.756-2.901c.49-.01.964-.198 1.345-.533.387-.346.653-.808.758-1.317 1.102-5.42 4.825-11.748 11.312-11.748 7.401 0 11.829 8.358 11.829 16.5s-4.461 16.5-11.829 16.5v-.002z" fill="#ffefe1"/></g><path d="M112.128 93.047a5.14 5.14 0 0 1 2.375 1.182c.871.772 1.471 1.805 1.71 2.944m-4.085-4.126a5.14 5.14 0 0 0 2.375-1.182c.887-.781 1.472-1.826 1.711-2.945l.003-.014.002-.014c.476-2.34 1.509-4.789 3.003-6.586 1.455-1.749 3.222-2.76 5.369-2.76 2.418 0 4.535 1.324 6.179 3.839 1.667 2.548 2.65 6.083 2.65 9.662s-.989 7.109-2.661 9.659c-1.651 2.52-3.769 3.841-6.168 3.841-2.143 0-3.895-1.006-5.345-2.756-1.49-1.798-2.528-4.254-3.032-6.617m-2.935-8.879c-.105.509-.371.971-.758 1.317-.381.335-.855.523-1.345.533-1.84.036-3.756 1.194-3.756 2.901s1.916 2.901 3.756 2.901c.49.01.964.198 1.345.533a2.42 2.42 0 0 1 .758 1.317c1.157 5.42 4.825 11.748 11.312 11.748 7.368 0 11.829-8.357 11.829-16.5s-4.428-16.5-11.829-16.5c-6.487 0-10.21 6.328-11.312 11.748v.002z"/><use xlink:href="#C" x="56.21" y="-1" fill-rule="nonzero"/><path d="M95.63 102.907a1.51 1.51 0 0 1 1.5-1.5c1.395 0 2.77.396 3.827 1.259 1.09.89 1.743 2.201 1.743 3.771s-.653 2.881-1.743 3.771c-1.057.863-2.432 1.259-3.827 1.259h-2.25a1.51 1.51 0 0 1-1.5-1.5 1.51 1.51 0 0 1 1.5-1.5h2.25c.855 0 1.515-.244 1.93-.583.383-.313.64-.767.64-1.447s-.257-1.134-.64-1.447c-.415-.339-1.075-.583-1.93-.583a1.51 1.51 0 0 1-1.5-1.5zm9.666 23.608a1.51 1.51 0 0 1-1.093 1.818c-2.845.708-5.767 1.059-8.699 1.044-2.705.028-5.403-.271-8.037-.89a1.51 1.51 0 0 1-1.117-1.803 1.51 1.51 0 0 1 1.803-1.117 30.66 30.66 0 0 0 7.331.81h.024a32.34 32.34 0 0 0 7.97-.955 1.51 1.51 0 0 1 1.818 1.093zm5.322-60.015c8.953-5.73 16.228-11.811 19-26.5l-.01-1.466C118.852 26.733 104.434 19 88.12 19c-29.526 1.079-49.269 10.809-59.719 26.786-1.725 3.221-3.378 6.48-4.956 9.776-2.639 6.953-3.945 14.745-3.945 23.244 0 9.079 2.107 18.451 5.837 27.354 9.995-16.353 23.277-31.266 39.566-29.547 22.832 0 33.215-2.113 45.715-10.113z"/></g><defs><linearGradient id="A" x1="168.995" y1="21.115" x2="-16.702" y2="76.055" gradientUnits="userSpaceOnUse"><stop offset="0" stop-color="#148eff"/><stop offset="1" stop-color="#d0c9ff"/></linearGradient><path id="B" d="M103.64 165.417l-4.4 1.22a18.7 18.7 0 0 1-9.93 0l-4.71-1.28c-.791-.213-1.489-.682-1.986-1.333a3.72 3.72 0 0 1-.764-2.267v-15.94h24.51v16a3.73 3.73 0 0 1-.754 2.258c-.491.65-1.182 1.121-1.966 1.342z"/><path id="C" d="M68.22 101.597c3.198 0 5.79-3.456 5.79-7.72s-2.592-7.72-5.79-7.72-5.79 3.456-5.79 7.72 2.592 7.72 5.79 7.72z"/></defs></svg>