<svg xmlns="http://www.w3.org/2000/svg" viewBox="0 0 90 90" fill-rule="evenodd"><style><![CDATA[.B{fill-rule:nonzero}.C{stroke:#000}.D{stroke-width:3}]]></style><g transform="scale(.491803)"><circle cx="91.5" cy="91.5" r="91.5" fill="url(#B)"/><clipPath id="A"><circle cx="91.5" cy="91.5" r="91.5"/></clipPath><g clip-path="url(#A)"><g fill="#ffd0a9" class="B"><path d="M102.126 153.175l-4.39 1.214c-3.241.891-6.664.891-9.905 0l-4.699-1.273a3.71 3.71 0 0 1-1.981-1.327 3.69 3.69 0 0 1-.762-2.255v-15.86h24.45v15.92c.002.81-.262 1.599-.752 2.246a3.72 3.72 0 0 1-1.961 1.335z"/><path d="M29.664 85.608c0 32.933 23.871 57.409 64.322 57.409 33.826 0 54.864-24.476 54.864-57.409s-24.09-59.637-57.857-59.637-61.329 26.704-61.329 59.637z"/></g><path d="M79.175 83.553l.015-.001h.016c.617 0 1.244-.206 1.685-.523.436-.314.562-.628.562-.863 0-.23-.12-.534-.557-.846-.443-.317-1.081-.529-1.719-.541h-.002c-.855-.018-1.664-.345-2.3-.903s-1.06-1.308-1.234-2.125h0l-.003-.014c-.512-2.511-1.628-5.188-3.309-7.205-1.662-1.993-3.816-3.283-6.505-3.283-3.052 0-5.582 1.698-7.414 4.493-1.844 2.812-2.886 6.62-2.886 10.424s1.049 7.61 2.897 10.423c1.838 2.796 4.369 4.493 7.403 4.493 2.687 0 4.826-1.287 6.482-3.28 1.677-2.018 2.795-4.7 3.335-7.222.174-.817.6-1.569 1.234-2.125a3.6 3.6 0 0 1 2.3-.902z" fill="#ffefe1" class="B C D"/><path d="M66.793 89.678c3.189 0 5.775-3.439 5.775-7.681s-2.586-7.682-5.775-7.682-5.776 3.439-5.776 7.682 2.586 7.681 5.776 7.681z" class="B"/><path d="M109.674 82.558l-.015-.001h-.016c-.617 0-1.244-.206-1.685-.523-.436-.314-.562-.628-.562-.863s.12-.535.557-.846c.443-.317 1.081-.529 1.719-.541h.002c.855-.018 1.664-.345 2.3-.903s1.06-1.308 1.234-2.125l.003-.014c.512-2.511 1.628-5.189 3.309-7.205 1.662-1.993 3.816-3.283 6.505-3.283 3.052 0 5.582 1.698 7.414 4.493 1.844 2.812 2.886 6.62 2.886 10.424s-1.049 7.61-2.897 10.422c-1.838 2.797-4.369 4.494-7.403 4.494-2.687 0-4.827-1.287-6.482-3.28-1.677-2.018-2.795-4.7-3.335-7.222-.174-.817-.6-1.569-1.234-2.125a3.6 3.6 0 0 0-2.3-.902z" fill="#ffefe1" class="B C D"/><path d="M122.864 88.682c3.19 0 5.776-3.439 5.776-7.681s-2.586-7.681-5.776-7.681-5.775 3.439-5.775 7.681 2.586 7.681 5.775 7.681z" class="B"/><g fill="none" stroke-linecap="round" stroke-linejoin="round" class="C D"><path d="M93.387 98.005h2.245c2.244 0 4.059-1.273 4.059-3.512s-1.815-3.512-4.059-3.512m-9.298 23.998a32.16 32.16 0 0 0 7.672.846c2.803.015 5.598-.32 8.319-.995"/></g><path d="M99.664 21.429c26.994 3.524 46.322 24.756 49.415 51.523 1.378 6.418 2.119 12.939 2.226 19.505l1.464 60.686.373 6.637.001.003c.652 11.358 1.124 19.575.438 28.86-.501 6.79-1.979 18.725-3.037 26.865-.644 4.954-4.872 8.635-9.867 8.635H121.54c-.266-9.875-.919-17.886-1.549-25.618-.551-6.765-1.085-13.316-1.327-20.714-.391-11.942-1.5-15.594-3.991-23.795-1.099-3.618-2.467-8.121-4.16-14.611 15.836-7.622 24.151-26.66 24.151-50.357C134.664 58.097 118.08 33 91.529 33S45.664 58.097 45.664 89.048c0 24.89 10.614 44.641 31.315 51.42-4.656 17.68-4.936 19.535-6.582 30.437h0l-2.733 17.408c.164 10.142-.167 18.239-.491 26.18l-.356 9.65H36.801c-5.679 0-10.194-4.717-9.722-10.376.729-8.73 2.154-21.53 4.794-32.624 3.155-13.258-.401-41.124-2.838-56.756-1.17-7.498-1.746-15.072-1.438-22.655l.434-10.671a100.09 100.09 0 0 1 2.299-17.63l2.064-9.288.35-.195c6.789-22.747 27.159-39.901 51.92-42.648 1.214-.135 2.438.324 3.672.787 1.099.412 2.207.827 3.321.827 1.265 0 2.517-.391 3.755-.777 1.437-.448 2.855-.89 4.252-.708z"/><g fill="none" class="C"><path d="M69.602 32.069a54.73 54.73 0 0 1 38.585 8.896c23.126 15.662 30.531 45.853 18.285 70.147"/><path d="M111.475 32.069a54.73 54.73 0 0 0-38.585 8.896c-23.126 15.662-30.531 45.853-18.285 70.147"/><path d="M114.966 29.366c-10.907.034-22.943 3.704-33.868 11.103C59.642 55.001 49.952 78.849 57.664 96"/></g><path d="M87.522 78.139h13.965l-.997 3.98s-2.993-.995-6.484-.995-5.487.995-5.487.995l-.997-3.98z" class="B"/><path d="M39.639 76.149h4.988v4.975h-4.988zm104.742 0h4.988v4.975h-4.988z"/><g fill="none" stroke-width="2" class="C"><path d="M88.516 84.606c0 12.358-10.045 22.381-22.442 22.381S43.632 96.964 43.632 84.606s10.045-22.381 22.442-22.381 22.442 10.023 22.442 22.381zm56.861 0c0 12.358-10.046 22.381-22.443 22.381s-22.442-10.023-22.442-22.381 10.045-22.381 22.442-22.381 22.443 10.023 22.443 22.381z"/></g></g></g><defs><linearGradient id="B" x1="168.995" y1="21.115" x2="-16.702" y2="76.055" gradientUnits="userSpaceOnUse"><stop offset="0" stop-color="#148eff"/><stop offset="1" stop-color="#d0c9ff"/></linearGradient></defs></svg>