<svg width="843" height="490" viewBox="0 0 843 490" fill="none" xmlns="http://www.w3.org/2000/svg">
<g clip-path="url(#clip0)">
<path d="M292.2 174.17C290.118 171.052 287.364 168.44 284.14 166.526C280.916 164.612 277.304 163.445 273.57 163.11C260.76 161.95 228.75 168.35 224.67 184.65C220.59 200.95 229.33 200.37 246.79 206.77C264.25 213.17 276.48 210.26 285.79 201.53C295.1 192.8 297.44 184.11 292.2 174.17Z" stroke="#0064FA" stroke-opacity="0.1" stroke-width="1.1" stroke-miterlimit="10"/>
<path d="M270.99 153.36C270.99 153.36 251.34 148.99 241.74 150.74C232.14 152.49 211.18 162.96 205.06 172.13C198.94 181.3 187.6 206.19 214.23 212.74C240.86 219.29 240.87 214.48 251.78 222.34C262.69 230.2 286.71 219.28 296.31 204C305.91 188.72 308.1 182.17 300.24 166.89C292.38 151.61 284.05 155.11 270.99 153.36Z" stroke="#0064FA" stroke-opacity="0.1" stroke-width="1.1" stroke-miterlimit="10"/>
<path d="M261.78 135.9C261.78 135.9 256.11 130.22 244.32 131.97C232.53 133.72 225.54 131.68 216.52 138.66C210.64 143.21 197.17 156.85 192.36 160.34C187.55 163.83 181.45 184.34 181.89 194.4C182.33 204.46 181.01 226.27 206.33 225.83C231.65 225.39 239.52 226.27 247.81 231.95C256.1 237.63 278.81 235.88 293.65 218.85C308.49 201.82 318.54 193.53 314.17 176.94C309.8 160.35 298.02 145.5 286.67 143.32C275.32 141.14 271.82 139.82 261.78 135.9Z" stroke="#0064FA" stroke-opacity="0.1" stroke-width="1.1" stroke-miterlimit="10"/>
<path d="M444.71 240.68C444.71 240.68 439.59 231.34 432.61 229.59C425.63 227.84 416.83 225.8 415.52 236.27C414.21 246.74 420.95 261.89 432.73 261.45C444.51 261.01 453.88 255.11 444.71 240.68Z" stroke="#0064FA" stroke-opacity="0.1" stroke-width="1.1" stroke-miterlimit="10"/>
<path d="M450.83 224.11C450.83 224.11 445.15 217.56 434.24 213.19C423.33 208.82 411.53 201.84 407.17 195.29C402.81 188.74 393.63 184.38 386.17 188.29C378.71 192.2 369.58 197.02 380.93 211.43C392.28 225.84 395.83 238.26 400.2 250.92C404.57 263.58 409.14 277.1 427.04 277.92C441.56 278.57 452.09 276.15 460.57 279.47C470.94 283.47 479.28 279.8 479.2 267.13C479.13 256.42 477.01 250.43 468.69 242.45C460.37 234.47 450.83 224.11 450.83 224.11Z" stroke="#0064FA" stroke-opacity="0.1" stroke-width="1.1" stroke-miterlimit="10"/>
<path d="M224.38 489.39C211.99 474.68 212.01 465.96 219.38 455.92C226.75 445.88 225.93 437.14 226.8 420.99C227.67 404.84 233.8 389.99 236.85 383.44C239.9 376.89 245.58 360.74 259.55 357.25C268.92 354.9 274.39 350.7 273.08 336.25C271.77 321.8 260.46 312.45 270.9 297.83C279.63 285.61 310.78 274.3 321.11 270.76C337.7 265.09 341.19 245 354.73 242.38C368.27 239.76 379.18 246.75 386.6 260.72C394.02 274.69 391.6 290.88 423.05 292.63C460.17 294.63 450.98 317.21 466.05 314.42C477.83 312.24 483.95 307.87 489.19 277.75C494.43 247.63 484.19 238.15 472.6 227.98C460.16 217.09 458.6 212.7 443.78 205.71C428.96 198.72 425.01 193.49 419.78 185.19C414.55 176.89 411.92 175.59 399.69 168.6C387.46 161.61 390.96 145.46 390.96 145.46C390.96 145.46 393.35 126.46 392.27 113.59C390.53 92.59 387.47 70.8002 395.33 60.3302C406.74 45.1102 418.03 35.8799 425.02 21.0299C432.01 6.17991 437.68 4.87989 440.73 0.509888" stroke="#0064FA" stroke-opacity="0.1" stroke-width="1.1" stroke-miterlimit="10" stroke-linecap="round"/>
<path d="M0.550049 460.28C10.16 455.04 15.11 454.75 30.24 452.72C45.37 450.69 44.2401 447.77 53.8201 440.2C63.4001 432.63 66.5301 433.41 73.3201 430.01C77.9801 427.68 81.47 420.41 81.47 410.51C81.47 400.61 78.2699 383.73 80.8899 376.17C83.5099 368.61 92.2399 370.64 102.43 373.55C112.62 376.46 112.61 372.67 119.6 371.8C126.59 370.93 133.86 366.85 138.81 365.4C143.76 363.95 142.3 365.69 149 363.94C155.7 362.19 161.22 365.4 166.46 369.76C171.7 374.12 183.05 368.02 176.94 356.67C170.83 345.32 179.27 336.87 186.83 319.99C194.39 303.11 178.39 298.45 165.88 281.86C153.37 265.27 162.09 253.92 165.59 246.64C169.09 239.36 165.88 227.43 161.8 216.08C157.72 204.73 160.06 178.25 160.35 173.59C160.64 168.93 161.8 156.71 168.21 149.43C174.62 142.15 188.87 129.06 190.91 117.7C192.135 110.889 195.036 104.491 199.35 99.0804C199.35 99.0804 210.61 87.6504 229.35 97.3304C246.23 106.06 255.35 102.12 259.62 95.3304C263.4 89.2204 258.16 85.4404 242.45 79.3304C226.74 73.2204 235.75 54.0102 243.03 46.4402C251.35 37.7902 254.38 41.7902 261.66 45.8602C268.94 49.9302 269.81 47.8599 279.66 44.1199C289.51 40.3799 293.92 46.7401 300.33 54.3001C306.74 61.8601 311.68 71.4803 307.02 78.7503C302.36 86.0203 294.51 91.2703 289.56 101.75C284.61 112.23 287.23 123.28 297.42 133.47C307.61 143.66 319.83 156.76 324.49 170.73C329.15 184.7 327.98 197.8 318.96 207.73C309.94 217.66 299.45 233.93 286.36 242.08C273.27 250.23 254.92 250.23 243.86 246.73C232.8 243.23 228.73 244.73 228.73 244.73C228.73 244.73 222.03 246.73 219.99 252.88C217.95 259.03 208.35 269.18 200.2 270.63C192.05 272.08 187.1 270.05 183.03 273.25C178.96 276.45 163.24 298.25 155.96 301.48C148.68 304.71 140.53 304.1 136.17 307.01C131.81 309.92 125.69 315.75 130.35 330.59C135.01 345.43 146.06 366.39 145.48 378.03C144.9 389.67 144.9 393.46 146.36 399.28C147.82 405.1 150.72 410.05 148.68 415.28C146.64 420.51 143.74 426.63 142.57 436.82C141.4 447.01 142.26 451.06 135 465.92C132.09 471.92 133.84 481.64 134.86 483.79" stroke="#0064FA" stroke-opacity="0.1" stroke-width="1.1" stroke-miterlimit="10" stroke-linecap="round"/>
<path d="M227.29 3.02991C223.744 4.71706 220.501 6.97732 217.69 9.71985C213.32 14.0898 210.69 23.3998 208.95 27.1798C207.21 30.9598 204.88 45.5198 197.02 50.1798C189.16 54.8398 178.83 57.3099 173.88 62.5499C168.93 67.7899 159.18 83.6501 159.18 88.0201C159.18 92.3901 160.64 103.73 161.18 110.72C161.72 117.71 160.6 127.31 151.28 138.08C144.5 145.92 134.69 160.49 134.4 172.13C134.11 183.77 134.11 189.01 130.04 196C125.97 202.99 117.43 213.8 115.39 224.86C113.35 235.92 104.76 264.27 100.39 275.46C95.6799 287.39 104.17 296.46 104.17 306.02C104.17 315.58 107.08 338.62 85.8298 343.86C63.6998 349.32 61.3898 367.14 48.2898 377.04C40.4998 382.93 35.7698 391.3 36.0598 399.16C36.3498 407.02 37.81 415.75 31.99 424.48C27.75 430.84 26.1698 434.38 16.2698 437.87C6.36978 441.36 3.46021 446.31 3.46021 446.31" stroke="#0064FA" stroke-opacity="0.1" stroke-width="1.1" stroke-miterlimit="10" stroke-linecap="round"/>
<path d="M197.17 2.7301C197.17 2.7301 198.17 15.98 192.07 24.13C185.97 32.28 176.07 33.88 169.07 34.9C162.07 35.92 148.55 45.9598 143.6 61.9698C138.65 77.9798 136.18 90.64 135.74 96.17C135.3 101.7 134.74 119.45 131.81 127.75C128.88 136.05 126.57 140.99 121.63 147.54C116.69 154.09 115.22 166.46 115.37 177.54C115.52 188.62 114.79 202.28 99.2102 225.54C83.6302 248.8 87.7199 236.75 82.9099 252.47C78.0999 268.19 77.82 273.13 76.51 276.04C74.9962 279.876 74.2673 283.976 74.3669 288.099C74.4666 292.221 75.3927 296.282 77.0901 300.04C82.0901 311.4 83.2101 315.62 82.0901 320.42C80.9701 325.22 75.0898 331.77 64.7698 340.21C54.4498 348.65 51.68 350.21 40.47 356.07C29.26 361.93 16.3101 366.99 13.8401 393.91C11.3701 420.83 10.6401 420.98 2.34009 429.13" stroke="#0064FA" stroke-opacity="0.1" stroke-width="1.1" stroke-miterlimit="10" stroke-linecap="round"/>
<path d="M3.46021 374.57C3.46021 373.98 8.11987 357.1 17.8699 351.72C27.6199 346.34 44.21 344.72 52.22 337.72C60.23 330.72 67.3501 322.72 64.5901 310.94C61.8301 299.16 55.42 292.02 62.26 273.83C69.1 255.64 73.3198 242.39 77.8298 236.14C82.3398 229.89 95.4398 210.67 97.0398 205.43C98.6398 200.19 103.15 187.82 104.61 174.58C106.07 161.34 110.43 145.76 114.61 132.08C118.79 118.4 127.27 87.5502 129.16 77.0802C131.05 66.6102 133.53 51.6102 142.41 40.0802C151.29 28.5502 175.73 16.9398 176.46 2.96985" stroke="#0064FA" stroke-opacity="0.1" stroke-width="1.1" stroke-miterlimit="10" stroke-linecap="round"/>
<path d="M152.78 2.88C151.095 8.85306 148.44 14.5082 144.92 19.6198C138.81 28.7798 132.84 36.0598 130.37 41.6198C127.9 47.1798 124.74 58.1598 123.37 64.3698C122 70.5798 118.71 83.7798 114.45 97.3698C111.19 107.73 103.58 121.43 103.58 130.94C103.58 140.45 103.97 149.94 101.83 155.78C99.6898 161.62 98.7299 168.19 97.3699 172.27C96.0099 176.35 91.7401 188.18 87.8601 194C83.9801 199.82 80.2901 209.53 77.3801 215.73C74.4701 221.93 69.8198 229.9 69.0398 233.39C68.2598 236.88 64.9702 238.24 62.4402 248.14C60.933 254.171 58.7871 260.024 56.0398 265.6C55.2598 267.35 49.2501 276.28 48.8601 287.53C48.4701 298.78 50.0202 302.08 51.1902 306.35C52.3602 310.62 53.7101 322.26 48.8601 326.92C44.0101 331.58 39.9301 334.92 31.5901 336.62C23.2501 338.32 10.59 340.31 3.44995 350.98" stroke="#0064FA" stroke-opacity="0.1" stroke-width="3.3" stroke-miterlimit="10" stroke-linecap="round"/>
<path d="M137.16 3.21985C137.16 3.21985 133.08 11.2198 128.82 22.2198C124.56 33.2198 120.82 38.5201 118.34 49.7701C115.86 61.0201 114.84 70.34 110.19 81.4C105.54 92.46 103.01 106.4 100.68 110.7C98.3499 115 93.4999 127.77 94.6799 134.95C95.8599 142.13 97.2101 153 95.0701 158.82C92.9301 164.64 91.1902 174.15 88.6702 176.87C86.1502 179.59 83.2398 189.29 78.5798 194.72C73.9198 200.15 68.49 210.24 65.97 217.03C63.45 223.82 62.47 227.71 57.97 234.11C53.47 240.51 53.3101 247.69 51.5701 252.54C49.8301 257.39 46.72 266.71 43.22 271.17C39.72 275.63 37.0099 286.31 37.5999 292.17C38.1899 298.03 40.6999 309.44 40.1199 313.51C39.6781 316.685 38.4038 319.686 36.426 322.208C34.4482 324.73 31.8378 326.684 28.8601 327.87C22.4001 330.39 8.67989 333.3 3.63989 339.87" stroke="#0064FA" stroke-opacity="0.1" stroke-width="1.1" stroke-miterlimit="10" stroke-linecap="round"/>
<path d="M3.84985 329.6C7.45966 326.092 11.7565 323.368 16.47 321.6C24.03 318.88 25.39 311.71 25.2 302.39C25.01 293.07 28.1101 280.46 32.5701 271.15C37.0301 261.84 42.2699 250.39 44.4099 242.24C46.5499 234.09 49.6501 230.01 51.5901 226.33C53.5301 222.65 56.83 212.74 64.2 203.04C71.57 193.34 83.8002 176.85 87.4802 165.4C91.1602 153.95 90.7698 148.65 87.2898 135.71C84.5698 125.62 94.4699 103.11 98.3499 89.3302C100.35 82.3302 109.41 53.2401 111.55 38.6901C113.69 24.1401 118.34 10.3599 123.38 2.98987" stroke="#0064FA" stroke-opacity="0.1" stroke-width="1.1" stroke-miterlimit="10" stroke-linecap="round"/>
<path d="M96.99 3.21985C97.7682 11.4181 97.7046 19.6747 96.8 27.86C95.25 39.86 97.8 42.22 95.8 54.86C93.8 67.5 91.7201 73.0999 91.3401 79.5099C90.9601 85.9199 86.8698 102.41 83.7698 111.51C80.6698 120.61 80.8601 132.67 80.8601 137.13C80.8601 141.59 84.3499 151.88 82.5999 158.28C80.7312 164.533 78.1967 170.568 75.0398 176.28C73.0998 179.58 59.5101 195.49 57.5701 198.79C55.6301 202.09 48.6498 210.63 47.2898 213.93C45.9298 217.23 41.4698 229.06 38.7498 233.53C36.0298 238 29.6299 248.66 26.9099 255.84C24.1899 263.02 21.9099 266.13 18.1799 278.16C14.4499 290.19 13.3299 298.16 11.3899 303.38C9.44989 308.6 5.56985 317.16 2.84985 318.9" stroke="#0064FA" stroke-opacity="0.1" stroke-width="1.1" stroke-miterlimit="10" stroke-linecap="round"/>
<path d="M3.65991 286.11C3.65991 286.11 6.95976 265.54 13.7498 253.51C20.5398 241.48 30.0498 232.56 37.9998 217.23C45.9498 201.9 48.8701 197.63 58.3801 185.23C67.8901 172.83 74.4799 170.1 74.0999 152.05C73.7199 134 72.1602 124.11 76.2302 108.78C80.3002 93.4499 81.4699 83.3599 80.8899 75.7799C80.3099 68.1999 76.81 62.3899 79.53 43.7799C82.25 25.1699 80.2998 13.7102 78.7498 3.04016" stroke="#0064FA" stroke-opacity="0.1" stroke-width="1.1" stroke-miterlimit="10" stroke-linecap="round"/>
<path d="M63.8098 3.21985C63.8098 3.21985 70.9902 20.4898 66.9202 39.1198C62.8502 57.7498 64.3899 58.52 64.3899 68.61C64.3899 78.7 66.7198 85.2998 65.7498 89.1798C64.7798 93.0598 62.4501 104.7 62.8401 110.52C63.2301 116.34 64.2001 137.69 62.8401 146.62C61.4801 155.55 62.06 157.29 56.24 165.24C50.42 173.19 42.6598 184.45 40.3298 189.5C37.9998 194.55 31.4101 199.01 28.8801 204.83C26.3501 210.65 22.8801 212.78 22.0901 220.16C21.3001 227.54 2.68997 237.82 1.71997 238.98" stroke="#0064FA" stroke-opacity="0.1" stroke-width="3.3" stroke-miterlimit="10" stroke-linecap="round"/>
<path d="M190.18 484.3C190.18 484.3 184.5 482.99 191.93 466.4C199.36 449.81 202.84 437.14 204.15 422.74C205.46 408.34 208.08 403.53 216.38 391.3C224.68 379.07 230.78 355.5 228.6 332.8C226.42 310.1 232.53 295.69 238.21 284.34C243.89 272.99 254.8 266.87 267.89 264.69C280.98 262.51 300.2 264.25 315.48 251.59C330.76 238.93 322.9 228.45 336.88 213.59C350.86 198.73 358.27 199.18 357.4 183.9C356.53 168.62 354.34 154.21 348.66 149.41C342.98 144.61 339.5 141.55 343.42 121.9C347.34 102.25 333.42 97.0201 346.92 66.0201C360.42 35.0201 357.4 37.2102 370.49 27.6002C383.58 17.9902 389.7 16.25 376.17 1.83997" stroke="#0064FA" stroke-opacity="0.1" stroke-width="1.1" stroke-miterlimit="10" stroke-linecap="round"/>
<path d="M484.44 1.85999C484.44 1.85999 475.28 16.71 469.16 22.86C463.04 29.01 442.97 33.7698 436.42 58.2198C429.87 82.6698 435.98 77.4301 438.16 85.7301C440.34 94.0301 446.46 101.01 442.97 110.18C439.48 119.35 433.8 132.01 438.6 142.05C443.4 152.09 441.66 153.4 437.29 164.31C432.92 175.22 426.81 180.9 447.29 196.19C467.77 211.48 476.55 210.19 487.02 223.69C497.49 237.19 498.81 248.58 498.37 267.79C497.93 287 500.99 301.79 495.76 307.52C490.53 313.25 476.98 324.98 473.49 329.78C470 334.58 451.22 353.36 436.82 327.6C436.82 327.6 424.15 308.83 406.25 308.83C388.35 308.83 382.68 309.26 379.62 295.73C376.56 282.2 372.2 269.53 363.9 269.53C355.6 269.53 349.5 276.08 340.76 290.05C332.02 304.02 324.17 314.5 321.99 321.92C319.81 329.34 314.57 339.82 298.42 352.49C282.27 365.16 282.26 369.49 273.09 375.19C263.92 380.89 253.01 383.92 251.26 395.71C249.51 407.5 257.38 411.86 255.63 424.09C253.88 436.32 254.76 445.09 262.63 453.34C270.5 461.59 275.73 470.34 283.15 467.75C290.57 465.16 302.8 462.94 308.04 468.18C313.28 473.42 323.76 483.03 337.29 482.59C350.82 482.15 364.8 485.65 373.09 480.84C381.38 476.03 392.3 467.31 402.78 454.65C413.26 441.99 422.43 428.45 431.16 431.51C439.89 434.57 451.24 444.17 456.48 456.39C461.72 468.61 476.13 486.52 476.13 486.52" stroke="#0064FA" stroke-opacity="0.1" stroke-width="1.1" stroke-miterlimit="10"/>
<path d="M489.25 484.73C485.593 476.219 481.21 468.039 476.15 460.28C468.29 448.5 457.38 436.71 451.26 427.54C445.14 418.37 442.09 421.43 435.55 413.54C429.01 405.65 428.55 398.26 422.01 406.12C415.47 413.98 408.91 417.47 402.36 432.31C395.81 447.15 380.53 462.44 368.31 465.06C356.09 467.68 341.68 467.68 333.38 465.49C325.08 463.3 305.88 447.59 297.58 444.97C289.28 442.35 284.05 422.27 284.48 411.79C284.91 401.31 283.17 391.27 302.82 375.99C322.47 360.71 331.64 365.51 342.99 348.49C354.34 331.47 349.99 332.77 363.07 336.26C376.15 339.75 377.07 340.19 386.65 341.06C396.23 341.93 402.8 344.12 408.91 352.42C415.02 360.72 416.77 367.7 417.21 374.24C417.65 380.78 424.21 400.88 428.56 396.95C432.91 393.02 437.73 380.36 449.56 372.06C461.39 363.76 470.51 349.8 480.56 339.75C490.61 329.7 503.27 319.67 506.32 313.12C509.73 305.763 510.945 297.58 509.82 289.55C508.51 281.25 503.7 269.03 505.45 258.11C507.2 247.19 505.45 234.11 504.14 227.99C502.83 221.87 501.08 216.64 495.41 213.14C489.74 209.64 473.58 194.37 465.28 189.14C456.98 183.91 451.75 180.84 455.28 170.8C458.81 160.76 469.28 148.97 470.13 143.3C470.98 137.63 480.13 121.47 478.86 114.92C477.59 108.37 473.18 95.2702 474.49 86.5402C475.8 77.8102 476.68 77.3698 476.24 69.9498C475.8 62.5298 473.18 59.0399 478.42 50.2999C483.66 41.5599 493.27 31.53 496.32 25.42C499.37 19.31 505.05 16.25 506.8 3.58997" stroke="#0064FA" stroke-opacity="0.1" stroke-width="3.3" stroke-miterlimit="10" stroke-linecap="round"/>
<path d="M518.5 2.29993C518.5 2.29993 520.24 25.44 513.26 31.11C506.28 36.78 507.15 49.4501 507.58 56.0001C508.01 62.5501 508.02 75.6501 504.09 80.0001C500.16 84.3501 495.8 93.5398 504.96 103.14C514.12 112.74 519.81 120.6 518.96 125.84C518.11 131.08 515.47 142 511.54 145.05C507.61 148.1 498.01 151.6 496.7 160.33C495.39 169.06 491.46 188.33 500.19 196.57C508.92 204.81 515.47 210.11 521.19 218.4C526.91 226.69 522.5 234.12 519.44 244.16C516.38 254.2 516.82 268.16 519.88 275.16C522.94 282.16 523.08 293.79 517.26 308.05C511.44 322.31 506.78 328.13 498.63 334.83C490.48 341.53 480 353.75 472.14 365.97C464.28 378.19 456.72 392.46 453.22 399.44C449.72 406.42 458.13 420.86 461.96 425.64C466.898 431.829 472.566 437.4 478.84 442.23C483.5 445.72 504.45 465.23 501.25 485.89" stroke="#0064FA" stroke-opacity="0.1" stroke-width="1.1" stroke-miterlimit="10" stroke-linecap="round"/>
<path d="M389.41 484.73C389.41 484.73 397.85 477.17 405.41 469.31C412.97 461.45 423.17 450.68 431.61 451.84C440.05 453 450.53 464.65 457.22 484.73" stroke="#0064FA" stroke-opacity="0.1" stroke-width="0.53" stroke-miterlimit="10"/>
<path d="M556.19 485.02C556.19 485.02 556.19 480.95 555.9 467.27C555.61 453.59 547.46 455.63 541.9 457.96C536.34 460.29 529.67 468.72 523.9 464.07C518.13 459.42 506.15 451.84 501.49 442.24C496.83 432.64 487.81 429.14 484.61 427.39C481.41 425.64 464.82 417.5 469.47 402.39C473.702 388.96 479.673 376.141 487.23 364.26C493.34 354.66 500.91 347.67 508.23 340.4C515.55 333.13 528.31 314.78 533.84 293.24C539.37 271.7 537.04 264.72 542.28 251.62C547.52 238.52 556.28 241.44 560.33 245.8C564.38 250.16 573.42 262.39 591.18 262.1C608.94 261.81 610.68 246.1 601.07 228.92C591.46 211.74 595.54 204.76 606.9 200.69C618.26 196.62 640.08 198.94 632.22 182.35C624.36 165.76 618.83 168.67 616.22 163.43C613.61 158.19 609.52 154.7 602.83 157.03C596.14 159.36 592.06 165.76 586.24 166.92C580.42 168.08 573.43 167.51 565.87 168.92C558.31 170.33 548.11 172.12 544.04 165.43C539.97 158.74 534.43 151.17 536.76 142.43C539.09 133.69 538.21 121.48 535.6 109.25C532.99 97.0201 530.65 83.06 533.6 67.63C536.55 52.2 534.76 29.5001 534.47 18.7301C534.18 7.9601 534.18 3.88977 534.18 3.88977" stroke="#0064FA" stroke-opacity="0.1" stroke-width="1.1" stroke-miterlimit="10" stroke-linecap="round"/>
<path d="M550.37 3.02991C550.37 3.02991 553.57 19.9099 559.68 28.0299C565.79 36.1499 563.76 49.27 560.56 58.59C557.36 67.91 554.15 86.53 556.77 97.59C559.39 108.65 562.88 115.64 563.47 123.79C564.06 131.94 566.09 143 574.82 138.92C583.55 134.84 595.48 129.32 604.22 125.82C612.96 122.32 623.43 125.53 630.7 134.26C637.97 142.99 647 148.26 657.48 153.77C667.96 159.28 679.31 166.28 677.85 175.01C676.39 183.74 672.91 202.08 673.49 212.01C674.07 221.94 678.15 245.48 674.07 252.17C669.99 258.86 660.07 269.35 662.72 280.12C665.37 290.89 665.34 297.87 663.88 303.12C662.42 308.37 651.08 312.12 643.22 306.9C635.36 301.68 613.53 286.24 606.22 285.07C598.91 283.9 590.8 281.87 577.12 282.46C563.44 283.05 557.03 282.75 549.17 292.64C541.31 302.53 533.17 321.46 529.38 328.73C525.59 336 523.85 348.53 516.28 353.73C508.71 358.93 498.82 368.57 497.37 378.47C495.92 388.37 486.6 402.04 494.16 408.15C501.72 414.26 509.88 421.54 512.79 423.87C515.7 426.2 522.4 429.98 526.79 424.74C531.18 419.5 527.38 416.01 530.58 398.55C533.78 381.09 532.58 370.32 543.38 369.15C554.18 367.98 568.12 370.02 568.12 370.02C568.12 370.02 578.89 370.32 575.4 382.83C571.91 395.34 566.67 416.01 574.53 425.62C582.39 435.23 591.7 441.33 588.53 456.76C585.36 472.19 579.8 477.76 580.09 484.7" stroke="#0064FA" stroke-opacity="0.1" stroke-width="1.1" stroke-miterlimit="10" stroke-linecap="round"/>
<path d="M598.99 484.73C598.99 484.73 605.68 462.03 606.55 446.31C607.42 430.59 607.43 411.97 608.01 404.11C608.59 396.25 604.52 384.03 604.81 372.67C605.1 361.31 607.43 353.76 610.92 355.21C614.41 356.66 621.69 362.78 628.38 367.73C635.07 372.68 642.06 379.37 645.56 384.03C649.06 388.69 664.48 395.38 670.88 391.03C677.28 386.68 686.6 382.03 687.47 374.44C688.34 366.85 697.07 349.44 700.57 339.8C704.07 330.16 707.26 309.24 704.64 304.29C702.02 299.34 678.45 288.58 683.64 272.57C688.83 256.56 698.19 249.28 707.21 244.34C716.23 239.4 726.71 232.69 728.46 221.34C730.21 209.99 727.59 198.93 733.41 192.24C739.23 185.55 744.47 182.92 739.23 176.24C733.99 169.56 728.17 168.96 722.06 163.14C715.95 157.32 713.06 154.41 705.17 153.53C697.28 152.65 682.76 147.71 676.65 141.6C670.54 135.49 667.65 131.41 660.93 127.34C654.21 123.27 630.08 106.09 621.64 100.27C613.2 94.4501 613.2 90.9598 614.07 83.3898C614.94 75.8198 616.4 71.1598 613.2 64.1798C610 57.1998 606.8 49.6301 605.63 38.2701C604.46 26.9101 600.63 25.1798 589.63 23.1398C578.63 21.0998 573.04 1.88977 573.04 1.88977" stroke="#0064FA" stroke-opacity="0.1" stroke-width="1.1" stroke-miterlimit="10" stroke-linecap="round"/>
<path d="M790.2 311.84C790.2 311.84 780.89 303.69 777.98 305.73C775.07 307.77 772.45 308.64 763.14 322.32C753.83 336 750.04 338.91 742.76 347.64C735.48 356.37 734.9 384.64 734.9 391.3C734.9 397.96 738.39 413.71 732.28 423.3C726.17 432.89 723.84 445.42 711.62 449.49C699.4 453.56 680.76 459.1 692.12 472.2C703.48 485.3 728.79 483.84 731.41 480.06C734.03 476.28 737.81 470.74 745.09 460.26C752.37 449.78 763.43 440.47 768.67 432.32C773.91 424.17 775.94 417.48 773.03 410.49C770.12 403.5 766.03 396.49 762.55 389.54C759.07 382.59 750.33 368.87 760.22 360.72C770.11 352.57 781.47 354.9 787.58 354.03C793.69 353.16 811.16 352.03 806.21 330.74C802.155 323.458 796.716 317.037 790.2 311.84V311.84Z" stroke="#0064FA" stroke-opacity="0.1" stroke-width="1.1" stroke-miterlimit="10" stroke-linecap="round"/>
<path d="M629.25 1.85999C636.663 4.89241 644.532 6.66375 652.53 7.10022C665.34 7.68022 690.95 1.85979 692.7 16.4098C694.45 30.9598 704.92 38.5398 719.48 35.6198C734.04 32.6998 756.73 36.2098 763.72 29.2198C770.71 22.2298 780.6 12.3399 788.17 20.4899C795.74 28.6399 796.32 33.88 796.32 44.36C796.32 54.84 799.23 58.91 797.48 65.9C795.73 72.89 793.99 89.18 789.91 90.9C785.83 92.62 780.6 94.3899 771.91 97.2999C763.22 100.21 760.85 104.87 758.52 107.78C756.19 110.69 751.52 114.78 741.05 107.2C730.58 99.6198 724.76 94.9699 717.19 99.0499C709.62 103.13 685.75 120 697.4 129.32C709.05 138.64 722.4 134.56 732.32 135.14C742.24 135.72 748.04 137.47 753.86 147.36C759.68 157.25 767.86 160.75 778.86 165.99C789.86 171.23 791.67 186.36 788.18 192.77C784.69 199.18 773.04 238.77 776.53 257.97C780.02 277.17 787.59 279.5 797.53 279.5C807.47 279.5 811.53 273.68 820.23 279.5C828.93 285.32 842.35 291.15 842.35 291.15" stroke="#0064FA" stroke-opacity="0.1" stroke-width="1.1" stroke-miterlimit="10" stroke-linecap="round"/>
</g>
<defs>
<clipPath id="clip0">
<rect width="842.85" height="489.94" fill="white"/>
</clipPath>
</defs>
</svg>
