<svg width="183" height="183" viewBox="0 0 183 183" fill="none" xmlns="http://www.w3.org/2000/svg">
<circle cx="91.5" cy="91.5" r="91.5" fill="url(#paint0_linear)"/>
<g clip-path="url(#clip0)">
<path d="M148.545 98.5759C148.545 132.266 124.192 157.293 82.9162 157.293C48.4153 157.293 26.9923 132.266 26.9923 98.5759C26.9923 64.8856 51.5732 37.5752 86.0741 37.5752C120.575 37.5752 148.545 64.8753 148.545 98.5759Z" fill="#FFCDA2"/>
<path d="M86.0741 37.5752C59.1204 37.5752 38.2258 54.2498 30.3734 77.5941C63.9201 72.2506 85.0891 71.1501 95.1092 55.3836C97.931 70.029 113.898 95.4641 148.291 93.3503C145.577 62.1022 118.767 37.5752 86.0741 37.5752Z" fill="black"/>
<path d="M109.785 49.009C123.292 56.5741 149.26 71.5222 152.37 104.435C152.305 107.77 146.431 118.439 143.342 125.245C145.861 94.115 111.201 73.6822 99.3907 66.643C78.9246 54.4295 45.7371 59.791 30.7197 76.2039C33.3389 69.021 37.8385 58.5032 40.001 55.6814C59.7899 38.4527 90.5403 38.2321 109.785 49.009Z" fill="white"/>
<path d="M69.692 42.4522C69.6198 42.4518 69.5477 42.4578 69.4765 42.4702L69.3021 42.4958H69.279H69.2585H69.2149H69.1944H69.1046C67.5979 42.737 66.0989 43.0294 64.6076 43.3732H64.5819H64.564H64.546H64.528H64.5127H64.4331H64.4152L63.9431 43.486C63.6084 43.5685 63.3153 43.7705 63.1191 44.054C62.9228 44.3374 62.8369 44.6829 62.8776 45.0252C62.9183 45.3676 63.0827 45.6833 63.3399 45.9129C63.5971 46.1425 63.9293 46.2702 64.2741 46.272C64.3874 46.2722 64.5002 46.2585 64.6101 46.2309C66.3417 45.8102 68.1272 45.4613 69.9126 45.1817C70.2868 45.1535 70.6345 44.9778 70.8791 44.6932C71.1238 44.4086 71.2453 44.0385 71.2171 43.6643C71.1889 43.2901 71.0131 42.9425 70.7286 42.6978C70.444 42.4532 70.0739 42.3316 69.6997 42.3599L69.692 42.4522ZM59.8412 44.7815C59.6941 44.7811 59.5478 44.8036 59.4077 44.8482C57.6171 45.4314 55.853 46.0975 54.1154 46.8466C53.7852 47.0045 53.5291 47.2844 53.4011 47.6274C53.2731 47.9703 53.2831 48.3495 53.429 48.6852C53.5749 49.0209 53.8454 49.2869 54.1834 49.4272C54.5215 49.5676 54.9008 49.5713 55.2416 49.4376C56.868 48.7347 58.5611 48.0934 60.2773 47.5367C60.5986 47.4342 60.8726 47.2201 61.0496 46.933C61.2267 46.6459 61.295 46.305 61.2423 45.9718C61.1895 45.6387 61.0192 45.3355 60.7622 45.1172C60.5052 44.8988 60.1785 44.7797 59.8412 44.7815ZM50.5445 48.7142C50.3119 48.7142 50.0828 48.7715 49.8775 48.8809L49.2593 49.2272H49.2413H49.2234H49.208H49.1951H49.1798H49.1644C47.8278 49.9737 46.5144 50.7818 45.2369 51.6437C45.0782 51.7456 44.9416 51.8783 44.8349 52.0338C44.7283 52.1893 44.6539 52.3645 44.616 52.5493C44.5782 52.734 44.5777 52.9244 44.6145 53.1093C44.6514 53.2942 44.7248 53.4699 44.8306 53.626C44.9364 53.7821 45.0723 53.9154 45.2304 54.0182C45.3885 54.1209 45.5655 54.191 45.7511 54.2243C45.9367 54.2576 46.1271 54.2535 46.311 54.2121C46.495 54.1707 46.6688 54.0929 46.8222 53.9833C48.3032 52.9836 49.8351 52.0614 51.4116 51.2205C51.6896 51.0719 51.91 50.8347 52.0378 50.5465C52.1655 50.2584 52.1933 49.9357 52.1166 49.63C52.0399 49.3242 51.8633 49.0528 51.6147 48.859C51.3661 48.6652 51.0598 48.56 50.7446 48.5602L50.5445 48.7142ZM42.1534 54.2937C41.8275 54.2931 41.5116 54.4065 41.2606 54.6144C41.1401 54.7119 41.0195 54.8093 40.9015 54.9094L40.845 54.9581L40.8322 54.971L40.8143 54.9864L40.7758 55.0197L40.7296 55.0582L40.6834 55.0967H40.668L40.6219 55.1351H40.609L40.5526 55.1839L40.5346 55.2018H40.5192L40.5013 55.2172C39.7407 56.3056 39.0673 57.4525 38.4875 58.6471C38.2928 58.7829 38.1355 58.9656 38.03 59.1783C37.9245 59.391 37.8744 59.6269 37.8841 59.8641C37.8938 60.1013 37.9631 60.3322 38.0856 60.5356C38.2081 60.739 38.3798 60.9082 38.585 61.0277C38.7839 61.1309 39.0048 61.1846 39.2289 61.1842C39.4894 61.1844 39.7448 61.1126 39.9671 60.9768C40.1894 60.841 40.3698 60.6464 40.4885 60.4146C40.9606 59.4488 41.4935 58.514 42.0841 57.6158C42.3996 57.3439 42.7229 57.0745 43.0461 56.8129C43.2721 56.6285 43.4356 56.3787 43.5141 56.0978C43.5926 55.8168 43.5822 55.5184 43.4844 55.2436C43.3866 54.9688 43.2062 54.7309 42.9679 54.5627C42.7296 54.3945 42.4451 54.3041 42.1534 54.304V54.2937ZM37.2305 62.5361C36.9595 62.5368 36.6944 62.6155 36.4669 62.7629C36.2394 62.9103 36.0592 63.1201 35.9478 63.3672C35.4912 64.378 35.0269 65.4349 34.5651 66.5123V66.5328L34.5446 66.5842V66.5995V66.6124V66.6252V66.638V66.656C34.2847 67.2665 34.0281 67.8814 33.775 68.5004C33.6989 68.6814 33.6619 68.8764 33.6663 69.0727C33.6707 69.269 33.7165 69.4621 33.8007 69.6394C33.661 69.8527 33.5815 70.0997 33.5707 70.3544C33.5599 70.6091 33.6182 70.862 33.7394 71.0862C33.8606 71.3105 34.0402 71.4978 34.2592 71.6283C34.4782 71.7588 34.7284 71.8277 34.9833 71.8277C35.2935 71.8285 35.5951 71.7256 35.8401 71.5352L36.3993 71.1145L36.5379 71.0119L36.6584 70.9195H36.6738H36.6892L36.7046 70.9067H36.72L36.738 70.8939L36.7713 70.8682L36.7867 70.8554H36.8021H36.8201H36.838C37.9462 70.0619 39.1006 69.3094 40.3012 68.5979C40.5679 68.4399 40.7752 68.1985 40.8912 67.911C41.0073 67.6236 41.0256 67.3059 40.9434 67.007C40.8611 66.7081 40.6829 66.4445 40.4361 66.2569C40.1894 66.0692 39.8878 65.9679 39.5778 65.9685C39.3246 65.9685 39.0762 66.0377 38.8595 66.1686C38.3285 66.4815 37.8077 66.8048 37.2921 67.1357C37.6564 66.2943 38.0146 65.4828 38.3669 64.7012C38.4438 64.5323 38.4866 64.3499 38.4929 64.1644C38.4992 63.9789 38.4688 63.794 38.4035 63.6203C38.3382 63.4466 38.2393 63.2875 38.1124 63.152C37.9855 63.0166 37.8331 62.9076 37.664 62.8311C37.4809 62.7487 37.2825 62.7058 37.0817 62.7054L37.2305 62.5361ZM33.262 72.0278C33.046 72.0269 32.8327 72.0755 32.6384 72.1698C32.4441 72.264 32.2739 72.4015 32.1409 72.5716L32.0947 72.5357C31.5971 73.8183 31.1276 75.0471 30.7095 76.199C31.8719 74.935 33.1181 73.7505 34.4394 72.6537C34.3106 72.4594 34.1356 72.3001 33.9301 72.19C33.7247 72.0798 33.4951 72.0224 33.262 72.0226V72.0278ZM49.3208 61.2842C49.1545 61.2845 48.9895 61.314 48.8334 61.3714C46.9608 62.0589 45.1266 62.8337 43.3796 63.6802C43.2074 63.7575 43.0524 63.8684 42.9238 64.0065C42.7952 64.1446 42.6955 64.3071 42.6307 64.4843C42.5659 64.6616 42.5372 64.85 42.5464 65.0385C42.5555 65.227 42.6023 65.4118 42.6841 65.5819C42.7658 65.752 42.8807 65.904 43.0221 66.029C43.1636 66.154 43.3286 66.2494 43.5074 66.3096C43.6863 66.3697 43.8754 66.3935 44.0636 66.3794C44.2518 66.3653 44.4353 66.3137 44.6032 66.2276C46.2809 65.4246 48.0202 64.6884 49.8083 64.0342C50.1195 63.9195 50.3805 63.699 50.5455 63.4113C50.7106 63.1236 50.7692 62.787 50.7111 62.4604C50.653 62.1338 50.4819 61.8381 50.2277 61.6249C49.9736 61.4118 49.6525 61.2948 49.3208 61.2945V61.2842ZM59.5103 58.4495C59.4182 58.4492 59.3262 58.4578 59.2358 58.4752C57.3067 58.8549 55.3878 59.3166 53.51 59.8502C53.1819 59.9435 52.8985 60.1523 52.7123 60.4381C52.526 60.724 52.4494 61.0675 52.4966 61.4054C52.5438 61.7432 52.7116 62.0526 52.9691 62.2765C53.2265 62.5003 53.5562 62.6235 53.8974 62.6233C54.0286 62.6234 54.159 62.6044 54.2847 62.5669C56.0873 62.0538 57.9189 61.6143 59.7796 61.2483C60.1221 61.1789 60.4268 60.985 60.6348 60.7042C60.8427 60.4234 60.9393 60.0754 60.9058 59.7276C60.8724 59.3797 60.7112 59.0566 60.4535 58.8206C60.1958 58.5845 59.8597 58.4524 59.5103 58.4495V58.4495ZM70.0024 57.2131H69.9434C67.9989 57.2926 66.0236 57.4696 64.0766 57.7005C63.7024 57.7236 63.3527 57.8944 63.1044 58.1754C62.8562 58.4563 62.7297 58.8244 62.7528 59.1986C62.776 59.5728 62.9468 59.9225 63.2278 60.1707C63.5087 60.419 63.8768 60.5454 64.251 60.5223C64.3099 60.5261 64.3691 60.5261 64.428 60.5223C66.2981 60.2889 68.1785 60.1324 70.0589 60.0554C70.4188 60.0277 70.7545 59.8633 70.9971 59.596C71.2396 59.3287 71.3708 58.9787 71.3636 58.6178C71.3563 58.2569 71.2113 57.9125 70.9582 57.6551C70.7051 57.3977 70.3632 57.2469 70.0024 57.2336V57.2131ZM74.8098 57.1874C74.4495 57.2028 74.1087 57.3554 73.8572 57.6139C73.6057 57.8723 73.4625 58.2172 73.457 58.5778C73.4514 58.9383 73.5839 59.2874 73.8273 59.5536C74.0707 59.8197 74.4066 59.9827 74.7662 60.0092C75.9924 60.0486 77.2118 60.1221 78.4244 60.2299H78.5039H78.5347H78.5886H78.8451C79.3581 60.2786 79.8712 60.3376 80.3971 60.3992C80.4535 60.403 80.51 60.403 80.5664 60.3992C80.9406 60.422 81.3085 60.2952 81.5893 60.0467C81.87 59.7982 82.0405 59.4484 82.0633 59.0742C82.0861 58.7 81.9593 58.3321 81.7108 58.0513C81.4623 57.7706 81.1125 57.6001 80.7383 57.5773C78.8143 57.3388 76.8313 57.1874 74.8381 57.1258L74.8098 57.1874ZM85.3276 58.4136C84.9768 58.4107 84.6375 58.5385 84.3758 58.7722C84.1142 59.0059 83.949 59.3287 83.9125 59.6776C83.8759 60.0265 83.9707 60.3765 84.1783 60.6593C84.3859 60.9422 84.6914 61.1375 85.0352 61.2072C85.6765 61.3406 86.3179 61.4869 86.9438 61.6408L87.049 61.6664H87.0669L87.1464 61.687H87.1644H87.1901H87.2465H87.2619H87.2773H87.3055H87.3363H87.3927H87.4055H87.4312H87.4902H87.503H87.5261H87.6698H87.6826H87.7006H87.7262H87.739H87.7749H87.7878H87.8109H87.8237H87.8596H87.8853H87.9032H87.916H87.9648H87.9776H88.011H88.0264H88.0597H88.0879H88.1213H88.1367H88.1649H88.1828L88.2393 61.7024H88.2547H88.2726L88.3547 61.7254H88.3752C89.0627 61.9178 89.7451 62.1231 90.4275 62.3411C90.7803 62.4432 91.1589 62.404 91.4833 62.2318C91.8077 62.0595 92.0523 61.7678 92.1653 61.4184C92.2783 61.0689 92.2509 60.6892 92.0889 60.3597C91.9268 60.0301 91.6429 59.7765 91.2971 59.6527C89.4064 59.0369 87.4839 58.5231 85.538 58.1135C85.4433 58.0952 85.3471 58.0857 85.2507 58.0853L85.3276 58.4136ZM95.4709 61.628C95.1475 61.6285 94.834 61.74 94.5828 61.9437C94.3316 62.1475 94.1579 62.4312 94.0907 62.7476C94.0234 63.064 94.0667 63.3939 94.2133 63.6822C94.3599 63.9705 94.601 64.1998 94.8963 64.3318C95.972 64.809 97.0212 65.322 98.0439 65.871L98.1106 65.9095L98.1799 65.9454L98.2466 65.9813H98.262L98.3107 66.0095H98.3261L98.3748 66.0377H98.3928L98.4415 66.066H98.4569L98.5057 66.0916H98.5211L98.5672 66.1173H98.5801L98.6262 66.1429H98.6391L98.6827 66.1686H98.6981L98.7391 66.1942H98.7519H98.7648H98.7802H98.7981H98.8109H98.8289H98.8417H98.8546H98.8674H98.8802H98.8982H98.911H98.9238L98.9443 66.2071H98.9572H98.97H98.9879H99.0033H99.0162L99.0367 66.2199H99.0546H99.0675H99.088L99.5857 66.5149C99.8033 66.6458 100.053 66.715 100.307 66.715C100.616 66.7152 100.917 66.6139 101.163 66.4266C101.409 66.2392 101.587 65.9763 101.67 65.678C101.752 65.3798 101.735 65.0627 101.619 64.7755C101.504 64.4883 101.298 64.2468 101.033 64.0881L100.797 63.947L100.527 63.788C98.978 62.8655 97.3743 62.0379 95.7249 61.3099C95.5455 61.2303 95.3515 61.1892 95.1554 61.1893L95.4709 61.628ZM104.673 66.774C104.365 66.7728 104.066 66.8721 103.82 67.0568C103.574 67.2415 103.395 67.5015 103.311 67.7971C103.226 68.0928 103.241 68.4079 103.352 68.6947C103.463 68.9814 103.665 69.224 103.926 69.3855C105.394 70.2936 107.005 71.3069 108.695 72.4331C109.008 72.6396 109.39 72.7133 109.758 72.638C110.125 72.5627 110.447 72.3446 110.654 72.0316C110.86 71.7186 110.934 71.3365 110.859 70.9691C110.783 70.6018 110.565 70.2795 110.252 70.073C108.713 69.0469 107.13 68.0438 105.412 66.9946C105.19 66.8568 104.934 66.7839 104.673 66.7842V66.774ZM113.395 72.5254C113.094 72.5234 112.801 72.6174 112.557 72.7938C112.314 72.9703 112.133 73.2199 112.041 73.5063C111.95 73.7927 111.952 74.1009 112.048 74.3859C112.143 74.6709 112.328 74.9179 112.574 75.0907L113.464 75.7295L113.485 75.7475L113.513 75.768C114.68 76.612 115.868 77.497 117.063 78.4282C117.36 78.649 117.731 78.7447 118.098 78.6948C118.464 78.6449 118.796 78.4535 119.023 78.1615C119.25 77.8695 119.353 77.5002 119.311 77.1329C119.269 76.7655 119.085 76.4293 118.797 76.1964C117.32 75.0471 115.76 73.8876 114.159 72.7563C113.921 72.5878 113.635 72.4982 113.343 72.4998L113.395 72.5254ZM121.686 78.9387C121.397 78.9386 121.115 79.0272 120.877 79.1924C120.64 79.3576 120.459 79.5916 120.359 79.8628C120.259 80.134 120.245 80.4293 120.318 80.709C120.391 80.9887 120.548 81.2394 120.767 81.4271C121.281 81.8581 121.794 82.2993 122.294 82.7457L122.325 82.7739L122.355 82.8021L122.42 82.8585L122.45 82.8867L122.481 82.915L122.514 82.9432L122.579 83.0022L122.609 83.0304L122.64 83.0561L122.671 83.0843L122.735 83.1433L122.766 83.1689L122.797 83.1971L122.827 83.2254L122.861 83.2536L122.894 83.2818L122.925 83.31L122.956 83.3357L123.02 83.3947L123.053 83.4229L123.084 83.4485L123.115 83.4768L123.146 83.5076L123.179 83.5358L123.21 83.564L123.24 83.5922L123.274 83.6204L123.338 83.6794L123.371 83.7102L123.402 83.7384L123.5 83.8256L123.533 83.8539L123.566 83.8821L123.63 83.9411L123.664 83.9719L123.697 84.0001L123.73 84.0283L123.795 84.0899L123.823 84.1181L123.854 84.1463L123.884 84.1745L123.948 84.2335L123.979 84.2618L124.01 84.29L124.041 84.3208L124.074 84.349L124.105 84.3772L124.133 84.4028L124.161 84.4285L124.19 84.4542L124.22 84.4798L124.246 84.5055L124.272 84.5285L124.297 84.5542L124.326 84.5799L124.351 84.6029L124.374 84.626L124.397 84.6466L124.421 84.6696L124.444 84.6902L124.467 84.7107L124.487 84.7312L124.508 84.7492H124.521L124.539 84.7646L124.556 84.7825L124.569 84.7953L124.587 84.8133L124.603 84.8261L124.621 84.8415L124.636 84.8569L124.659 84.88L124.685 84.9031L124.71 84.9262L124.792 85.0006C124.927 85.1285 125.085 85.2287 125.258 85.2955C125.431 85.3623 125.615 85.3944 125.8 85.3899C125.986 85.3853 126.168 85.3443 126.338 85.2692C126.507 85.194 126.66 85.0862 126.788 84.9518C127.047 84.6804 127.187 84.3173 127.178 83.9425C127.169 83.5678 127.011 83.212 126.74 82.9534C125.372 81.6554 123.918 80.3496 122.409 79.0747C122.155 78.8577 121.833 78.7385 121.499 78.7386L121.686 78.9387ZM129.331 86.155C129.055 86.1559 128.786 86.2372 128.556 86.3889C128.327 86.5406 128.146 86.7561 128.037 87.0089C127.928 87.2618 127.895 87.5409 127.943 87.8121C127.99 88.0833 128.116 88.3348 128.304 88.5356V88.5356L128.32 88.5535L128.338 88.5715H128.351L128.369 88.5894L128.386 88.6074L128.399 88.6228L128.417 88.6408H128.43L128.445 88.6587L128.463 88.6767L128.481 88.6946V88.7074L128.499 88.728L128.517 88.7485L128.53 88.7613L128.548 88.7818H128.561L128.579 88.7998L128.592 88.8152L128.61 88.8332L128.63 88.8537L128.648 88.8768L128.669 88.8973L128.689 88.9204L128.71 88.9435L128.73 88.9665L128.751 88.9896L128.774 89.0127L128.797 89.0358L128.82 89.0615L128.846 89.0897L128.871 89.1179L128.9 89.1487L128.928 89.1795L128.956 89.2077L128.982 89.2385L129.007 89.2667L129.036 89.2975C129.956 90.3065 130.851 91.3437 131.721 92.4092L131.747 92.4425L131.801 92.5092L131.824 92.5375L131.847 92.5631C131.961 92.7145 132.105 92.8414 132.269 92.9362C132.434 93.031 132.615 93.0917 132.804 93.1148C132.992 93.1379 133.183 93.1228 133.365 93.0705C133.547 93.0182 133.717 92.9297 133.865 92.8104C134.012 92.691 134.134 92.5432 134.223 92.3758C134.312 92.2083 134.367 92.0246 134.384 91.8357C134.4 91.6467 134.379 91.4563 134.32 91.2759C134.262 91.0954 134.167 90.9286 134.043 90.7854C132.85 89.3103 131.55 87.825 130.182 86.373C130.051 86.2329 129.892 86.1213 129.715 86.0449C129.539 85.9686 129.348 85.9292 129.156 85.9292L129.331 86.155ZM136.013 94.3332C135.755 94.3326 135.501 94.403 135.28 94.5366C135.059 94.6701 134.879 94.8618 134.76 95.0907C134.64 95.3196 134.586 95.5769 134.602 95.8346C134.619 96.0923 134.706 96.3405 134.854 96.5522C135.59 97.6142 136.298 98.7019 136.962 99.8127V99.8307V99.8461V99.864V99.882V99.8974V99.9153V99.9307V99.9487L137.009 100.026V100.041V100.054V100.067V100.079V100.095C137.221 100.457 137.427 100.818 137.629 101.183C137.715 101.353 137.834 101.503 137.979 101.626C138.125 101.749 138.294 101.841 138.475 101.897C138.657 101.953 138.849 101.972 139.038 101.952C139.227 101.932 139.411 101.875 139.577 101.782C139.743 101.69 139.889 101.565 140.006 101.415C140.123 101.265 140.209 101.093 140.258 100.909C140.306 100.725 140.318 100.533 140.291 100.345C140.263 100.156 140.198 99.9754 140.1 99.8127C139.206 98.1378 138.231 96.5069 137.18 94.9258C137.05 94.7386 136.877 94.5857 136.675 94.4803C136.473 94.3748 136.249 94.32 136.021 94.3204L136.013 94.3332ZM141.231 103.584C141.037 103.582 140.844 103.623 140.667 103.702C140.324 103.851 140.053 104.129 139.916 104.477C139.778 104.825 139.784 105.213 139.933 105.556C140.128 106.001 140.315 106.449 140.495 106.901V106.921V106.939V106.955V106.97V106.985V107.001V107.014V107.026V107.039V107.052V107.065V107.083L140.51 107.124V107.139V107.152V107.165V107.178V107.196L140.536 107.265V107.278V107.291V107.311V107.716V107.729V107.747V107.76V107.773V107.786V107.799V107.814V107.827V107.847V107.868V107.881V107.893V107.914V107.934V107.947V107.963L140.567 108.047V108.068V108.086V108.101V108.119V108.135V108.153V108.17V108.188V108.206V108.224V108.245C140.836 109.014 141.08 109.784 141.313 110.554C141.397 110.848 141.575 111.107 141.819 111.293C142.064 111.478 142.361 111.578 142.668 111.58C142.802 111.58 142.936 111.561 143.065 111.523C143.425 111.418 143.728 111.174 143.907 110.846C144.087 110.517 144.129 110.131 144.025 109.771C143.46 107.849 142.775 105.964 141.972 104.128C141.862 103.876 141.681 103.662 141.451 103.511C141.221 103.361 140.952 103.281 140.677 103.281L141.231 103.584ZM149.168 108.355C148.893 108.355 148.624 108.435 148.394 108.585C148.164 108.736 147.983 108.95 147.873 109.202C147.288 110.543 146.544 112.139 145.536 114.225C145.508 114.281 145.484 114.339 145.464 114.399C145.333 114.216 145.161 114.066 144.961 113.963C144.761 113.86 144.539 113.807 144.315 113.807C144.235 113.806 144.155 113.813 144.076 113.827C143.708 113.89 143.379 114.096 143.162 114.4C142.946 114.704 142.858 115.082 142.919 115.451C143.078 116.387 143.206 117.336 143.296 118.298V118.319V118.342V118.363V118.383V118.404V118.424V118.445V118.465V118.491V118.511V118.529V118.55V118.591V118.632V118.652V118.67V118.691C143.477 120.816 143.485 122.952 143.319 125.079C143.401 124.983 143.47 124.875 143.522 124.76C144.291 123.08 145.22 121.192 146.172 119.25C146.097 118.115 145.976 116.982 145.81 115.854C145.912 115.948 146.027 116.027 146.151 116.087C146.318 116.168 146.5 116.215 146.685 116.226C146.87 116.237 147.056 116.211 147.231 116.15C147.407 116.089 147.568 115.994 147.707 115.87C147.846 115.747 147.959 115.597 148.039 115.43C148.432 114.62 148.809 113.817 149.183 113.034L149.222 112.955C149.65 112.039 150.056 111.159 150.425 110.31C150.575 109.974 150.589 109.594 150.463 109.248C150.337 108.903 150.081 108.62 149.75 108.46C149.573 108.382 149.38 108.341 149.186 108.342L149.168 108.355ZM150.451 99.1457C150.376 99.1453 150.301 99.1513 150.228 99.1637C150.044 99.1924 149.868 99.257 149.71 99.3539C149.552 99.4507 149.414 99.5778 149.305 99.728C149.196 99.8781 149.117 100.048 149.074 100.229C149.031 100.409 149.023 100.597 149.053 100.78C149.248 101.996 149.407 103.245 149.53 104.494C149.497 104.73 149.447 104.963 149.381 105.192C149.284 105.556 149.336 105.943 149.525 106.268C149.714 106.594 150.024 106.831 150.388 106.928C150.752 107.024 151.139 106.972 151.464 106.784C151.79 106.595 152.027 106.284 152.123 105.921C152.2 105.644 152.259 105.385 152.303 105.151L152.318 105.054C152.318 105.013 152.334 104.969 152.339 104.931V104.895C152.339 104.864 152.339 104.833 152.339 104.805V104.792V104.728C152.339 104.712 152.339 104.7 152.339 104.687V104.666V103.961V103.93V103.892V103.83V103.797V103.733V103.707V103.64C152.339 103.609 152.339 103.579 152.339 103.548C152.224 102.534 152.089 101.537 151.934 100.559C151.879 100.229 151.71 99.928 151.455 99.711C151.199 99.4939 150.876 99.3745 150.541 99.374L150.451 99.1457ZM148.024 89.3334C147.799 89.3326 147.577 89.3856 147.377 89.488C147.177 89.5904 147.004 89.7393 146.874 89.9221C146.743 90.1049 146.658 90.3164 146.625 90.5389C146.593 90.7614 146.614 90.9884 146.687 91.2009C147.262 92.8838 147.762 94.6231 148.18 96.37C148.254 96.679 148.429 96.9541 148.678 97.151C148.927 97.3479 149.235 97.4551 149.553 97.4552C149.663 97.4549 149.774 97.442 149.881 97.4167C150.245 97.3302 150.56 97.1027 150.756 96.7843C150.952 96.4658 151.014 96.0824 150.928 95.7185C150.577 94.2357 150.177 92.794 149.727 91.3933V91.3728V91.3523V91.3369V91.3215V91.3061V91.2753V91.2574V91.242V91.224V91.2035C149.635 90.9136 149.538 90.6263 149.44 90.3416C149.345 90.0626 149.165 89.8204 148.925 89.6489C148.686 89.4773 148.398 89.3849 148.104 89.3847L148.024 89.3334ZM143.919 80.0982C143.674 80.0985 143.433 80.1627 143.219 80.2846C143.006 80.4066 142.828 80.5819 142.703 80.7935C142.579 81.0051 142.511 81.2455 142.508 81.4911C142.504 81.7367 142.564 81.979 142.683 82.1941C143.553 83.7615 144.35 85.3828 145.061 87.0169C145.171 87.2696 145.351 87.4849 145.582 87.6362C145.812 87.7875 146.081 87.8683 146.357 87.8686C146.55 87.8685 146.741 87.8284 146.918 87.7506C147.088 87.6772 147.242 87.5709 147.372 87.438C147.501 87.305 147.602 87.148 147.671 86.9757C147.739 86.8035 147.773 86.6195 147.77 86.4342C147.767 86.2489 147.728 86.066 147.655 85.8959C147.452 85.429 147.244 84.9698 147.031 84.5132V84.4978V84.4824V84.4695V84.4542V84.4413V84.4259L147.008 84.3746V84.3618V84.349V84.3361L146.97 84.2566V84.2412V84.2258V84.2104V84.1925V84.1745C146.739 83.6923 146.504 83.2177 146.267 82.7508V82.7328V82.7174V82.6995V82.6841L146.215 82.5866V82.5712V82.5584V82.5456V82.5327V82.5199L146.19 82.4712V82.4558V82.4404V82.425V82.4096V82.3916C145.964 81.9607 145.733 81.5323 145.5 81.109C145.377 80.8892 145.198 80.7062 144.981 80.579C144.764 80.4517 144.517 80.385 144.266 80.3856L143.919 80.0982ZM138.276 71.7045C138.01 71.7047 137.749 71.7801 137.524 71.9218C137.299 72.0636 137.118 72.266 137.003 72.5059C136.888 72.7458 136.842 73.0133 136.872 73.2777C136.902 73.5421 137.007 73.7926 137.173 74.0005C138.304 75.414 139.374 76.8813 140.351 78.3615C140.45 78.5232 140.581 78.6633 140.735 78.7735C140.89 78.8837 141.065 78.9616 141.25 79.0028C141.435 79.0439 141.626 79.0473 141.813 79.0129C141.999 78.9785 142.177 78.9069 142.335 78.8023C142.494 78.6978 142.629 78.5625 142.734 78.4045C142.839 78.2465 142.911 78.069 142.946 77.8825C142.981 77.6961 142.978 77.5046 142.937 77.3194C142.896 77.1341 142.818 76.959 142.709 76.8044C141.895 75.5747 141.05 74.3904 140.174 73.2514C140.151 73.2232 140.128 73.195 140.107 73.1642V73.1488L140.095 73.1334L140.082 73.118L140.069 73.1026V73.0872V73.0744L139.556 72.41C139.423 72.2451 139.255 72.112 139.064 72.0205C138.873 71.9291 138.664 71.8816 138.453 71.8815L138.276 71.7045ZM131.362 64.2831C131.079 64.2835 130.802 64.3691 130.567 64.529C130.333 64.6889 130.152 64.9155 130.049 65.1795C129.945 65.4434 129.923 65.7325 129.986 66.009C130.048 66.2856 130.193 66.537 130.4 66.7304C131.742 67.9797 133.032 69.2752 134.233 70.5784C134.49 70.8394 134.838 70.9906 135.204 71.0001C135.57 71.0097 135.925 70.8767 136.195 70.6293C136.465 70.3819 136.629 70.0394 136.651 69.6739C136.674 69.3083 136.554 68.9484 136.316 68.6698C135.015 67.2563 133.679 65.9223 132.322 64.6602C132.061 64.4177 131.718 64.283 131.362 64.2831ZM123.487 57.8287C123.186 57.8256 122.892 57.9187 122.647 58.0943C122.403 58.27 122.221 58.519 122.128 58.8053C122.035 59.0915 122.036 59.3999 122.13 59.6857C122.225 59.9715 122.408 60.2196 122.653 60.394C124.159 61.4869 125.616 62.6156 126.981 63.7443C127.121 63.8771 127.288 63.9796 127.47 64.0454C127.652 64.1112 127.845 64.1389 128.039 64.1269C128.232 64.1148 128.42 64.0633 128.593 63.9754C128.765 63.8875 128.917 63.7651 129.041 63.6159C129.164 63.4667 129.255 63.2938 129.309 63.1079C129.362 62.922 129.377 62.727 129.352 62.5351C129.328 62.3432 129.264 62.1585 129.165 61.9923C129.066 61.8261 128.933 61.682 128.776 61.569C127.286 60.3376 125.788 59.1832 124.305 58.1058C124.065 57.931 123.776 57.8367 123.479 57.8364L123.487 57.8287ZM114.965 52.2056C114.656 52.2057 114.356 52.307 114.11 52.494C113.864 52.681 113.686 52.9433 113.603 53.2409C113.521 53.5385 113.538 53.855 113.652 54.142C113.767 54.4289 113.972 54.6705 114.236 54.8299C115.909 55.8329 117.44 56.7923 118.918 57.7697C119.23 57.9613 119.605 58.0239 119.963 57.9444C120.321 57.8649 120.634 57.6495 120.836 57.3436C121.038 57.0377 121.113 56.6653 121.046 56.3049C120.979 55.9446 120.774 55.6245 120.475 55.4122C118.828 54.3245 117.222 53.324 115.686 52.4031C115.467 52.2741 115.218 52.2059 114.965 52.2056ZM106.03 47.2545C105.709 47.255 105.398 47.3646 105.147 47.5653C104.897 47.766 104.723 48.0459 104.652 48.359C104.582 48.6721 104.621 48.9997 104.762 49.288C104.902 49.5763 105.137 49.8082 105.427 49.9455C106.453 50.4252 107.448 50.9409 108.405 51.4847L110.224 52.5108C110.385 52.6027 110.563 52.6619 110.747 52.685C110.932 52.708 111.119 52.6945 111.298 52.6452C111.477 52.5959 111.644 52.5117 111.79 52.3975C111.937 52.2833 112.059 52.1414 112.151 51.9798C112.242 51.8183 112.301 51.6403 112.324 51.4561C112.346 51.2718 112.332 51.0849 112.283 50.906C112.233 50.7271 112.149 50.5597 112.035 50.4134C111.92 50.2671 111.779 50.1447 111.617 50.0533L110.704 49.5402L109.785 49.0271L109.76 49.0143L109.731 48.9707L109.708 48.9579H109.685L109.665 48.945H109.642H109.621H109.601H109.578H109.557H109.534H109.511H109.488H109.465L109.416 48.9194C108.518 48.4286 107.597 47.9608 106.653 47.5162C106.467 47.4294 106.264 47.3847 106.058 47.3853L106.03 47.2545ZM96.5355 43.8401C96.1933 43.8416 95.8633 43.9672 95.6067 44.1935C95.35 44.4199 95.1843 44.7317 95.1401 45.071C95.0959 45.4104 95.1763 45.7542 95.3664 46.0388C95.5565 46.3233 95.8434 46.5292 96.1738 46.6183C97.9285 47.0826 99.6549 47.629 101.304 48.237C101.461 48.2945 101.627 48.324 101.794 48.3242C102.132 48.3336 102.462 48.2216 102.725 48.0086C102.987 47.7955 103.164 47.4956 103.225 47.163C103.285 46.8304 103.224 46.4873 103.053 46.1958C102.882 45.9044 102.612 45.6838 102.292 45.5742C100.544 44.9312 98.7485 44.3642 96.9049 43.8734C96.7885 43.8429 96.6687 43.8274 96.5483 43.8272L96.5355 43.8401ZM86.5692 42.0443C86.2027 42.0384 85.8481 42.1751 85.5804 42.4256C85.3127 42.6761 85.1529 43.0209 85.1345 43.387C85.1162 43.7532 85.2409 44.1122 85.4823 44.3882C85.7237 44.6641 86.0628 44.8355 86.4282 44.8662C88.2239 45.0483 90.0196 45.3074 91.7845 45.6358C91.869 45.6527 91.9549 45.6613 92.0411 45.6614C92.3917 45.6586 92.7287 45.5256 92.9868 45.2882C93.2448 45.0509 93.4054 44.726 93.4374 44.3769C93.4693 44.0277 93.3704 43.6792 93.1598 43.3989C92.9491 43.1186 92.6419 42.9265 92.2976 42.8601C90.4608 42.5164 88.5882 42.247 86.6975 42.0546H86.5564L86.5692 42.0443ZM79.7994 41.6852H77.9036C76.6543 41.7211 75.405 41.7878 74.1531 41.893C73.7789 41.9079 73.426 42.071 73.172 42.3461C72.918 42.6213 72.7837 42.9861 72.7986 43.3603C72.8136 43.7345 72.9766 44.0875 73.2518 44.3415C73.527 44.5955 73.8918 44.7298 74.266 44.7148C74.3053 44.7174 74.3447 44.7174 74.384 44.7148C76.1797 44.5686 77.996 44.4942 79.7968 44.4942C80.5023 44.4942 81.218 44.4942 81.9209 44.5276H81.9671C82.3275 44.513 82.6688 44.3611 82.9209 44.1031C83.173 43.845 83.3169 43.5003 83.3232 43.1396C83.3294 42.7789 83.1975 42.4295 82.9544 42.1629C82.7114 41.8963 82.3756 41.7327 82.0158 41.7057C81.4899 41.6903 80.964 41.6775 80.4381 41.6724H79.7968L79.7994 41.6852Z" fill="#FCB800"/>
<path d="M148.18 101.726C132.75 73.7715 121.275 62.8228 107.348 56.0657C93.8752 49.5216 75.3998 43.7522 46.9171 59.5289C46.0115 60.7166 42.0661 62.7048 38.744 65.0469C36.8508 66.3783 35.1526 67.8251 34.3496 69.3028C41.3914 44.9374 65.5464 24.0865 91.2099 26.1387C142.757 30.2766 157 40.6687 157 78.3891C156.979 89.7811 153.569 100.909 147.206 110.358C147.821 106.495 148.152 103.165 148.18 101.726Z" fill="white"/>
<path d="M87.6929 26H86.5539C85.0438 26.0393 83.5431 26.1531 82.0518 26.3412C81.8665 26.353 81.6853 26.4011 81.5187 26.4829C81.352 26.5647 81.2031 26.6786 81.0804 26.8179C80.8326 27.0994 80.7068 27.4677 80.7306 27.8419C80.7544 28.2161 80.9259 28.5655 81.2074 28.8133C81.4888 29.061 81.8571 29.1868 82.2313 29.163C82.2911 29.1668 82.3511 29.1668 82.4109 29.163C84.1628 28.9411 85.927 28.8297 87.6929 28.8295C87.7737 28.8292 87.8543 28.8223 87.934 28.809C88.013 28.822 88.0927 28.8297 88.1726 28.8321C89.1089 28.8321 90.053 28.886 90.9945 28.9604C91.8769 29.0322 92.7517 29.104 93.6137 29.1784H93.7368C94.1013 29.1785 94.4517 29.0378 94.7149 28.7856C94.9781 28.5335 95.1337 28.1894 95.1492 27.8253C95.1648 27.4611 95.0391 27.1051 94.7984 26.8314C94.5576 26.5577 94.2205 26.3876 93.8574 26.3566L91.7204 26.177L91.5563 26.1616H91.0996H90.9868C90.4994 26.1257 90.0137 26.0975 89.5297 26.077H89.3911H88.8576L88.2137 26.0641H88.1829C88.1029 26.0644 88.0231 26.0712 87.9443 26.0847C87.8597 26.0692 87.7738 26.0615 87.6878 26.0616L87.6929 26ZM77.7395 27.1441C77.6333 27.1447 77.5275 27.1567 77.4239 27.18C75.7414 27.5679 74.0803 28.0431 72.4472 28.6038V28.6038H72.4318L72.3677 28.6243H72.3523L72.3087 28.6397H72.2779H72.2651L72.224 28.6551H72.2061H72.1779H72.1599H72.1394H72.1189H72.1009H72.0881H72.0624C71.7135 28.7834 71.4291 29.0439 71.2709 29.3804C71.1127 29.7168 71.0934 30.102 71.2172 30.4526C71.341 30.8032 71.598 31.0908 71.9324 31.2533C72.2668 31.4157 72.6518 31.4399 73.0039 31.3205C74.6793 30.7271 76.3872 30.2294 78.1191 29.83C78.4575 29.7522 78.7554 29.5527 78.9561 29.2693C79.1567 28.986 79.2461 28.6387 79.2071 28.2937C79.1681 27.9487 79.0035 27.6301 78.7446 27.3987C78.4858 27.1673 78.1508 27.0392 77.8036 27.039L77.7395 27.1441ZM68.2221 30.3995C68.0213 30.4 67.8229 30.4428 67.6398 30.5252C65.9235 31.3116 64.2479 32.1841 62.6195 33.1393C62.353 33.2972 62.1458 33.5384 62.0297 33.8256C61.9136 34.1128 61.8951 34.4302 61.977 34.729C62.0589 35.0277 62.2367 35.2913 62.483 35.4792C62.7293 35.667 63.0306 35.7688 63.3403 35.7687C63.5914 35.7697 63.8379 35.7023 64.0535 35.5738C65.5973 34.6686 67.1855 33.8416 68.8122 33.0957C69.1041 32.9605 69.3412 32.7298 69.4843 32.4416C69.6274 32.1535 69.6678 31.8251 69.5991 31.5108C69.5303 31.1965 69.3564 30.9151 69.106 30.7131C68.8557 30.511 68.5439 30.4004 68.2221 30.3995V30.3995ZM59.4718 35.425C59.1825 35.4253 58.9003 35.5149 58.6638 35.6815C58.5791 35.7405 58.4945 35.7995 58.4072 35.8611H58.3918H58.379H58.3636H58.3482C56.9356 36.8667 55.5674 37.9313 54.2437 39.0549C53.958 39.2978 53.7804 39.6442 53.7501 40.0181C53.7198 40.3919 53.8392 40.7624 54.0821 41.0481C54.325 41.3339 54.6715 41.5115 55.0453 41.5418C55.4191 41.5721 55.7896 41.4527 56.0754 41.2098C57.4504 40.0451 58.8972 38.9369 60.3441 37.9185C60.5877 37.7452 60.7701 37.4991 60.8651 37.2156C60.96 36.9321 60.9627 36.6258 60.8726 36.3407C60.7825 36.0556 60.6043 35.8064 60.3637 35.629C60.1231 35.4515 59.8324 35.355 59.5334 35.3531L59.4718 35.425ZM51.6989 41.8947C51.33 41.8945 50.9759 42.0402 50.7139 42.3C49.6672 43.3262 48.6573 44.3865 47.6842 45.481L47.6483 45.5195L47.6278 45.5451L47.6073 45.5682L47.5867 45.5913L47.5688 45.6118L47.5534 45.6272L47.5406 45.6452L47.5252 45.6632L47.5072 45.6837L47.4893 45.7042V45.7196L47.4713 45.7401L47.4533 45.7632L47.4328 45.7889L47.4123 45.8119L47.3892 45.8376L47.3661 45.8632L47.343 45.8889L47.3174 45.9197L47.2943 45.9505L47.2686 45.9813L47.243 46.012L47.1865 46.0787C47.1198 46.1557 47.0506 46.2327 46.9839 46.3122C46.8564 46.4521 46.7583 46.6163 46.6955 46.7949C46.6326 46.9735 46.6063 47.1629 46.6181 47.3519C46.6298 47.5408 46.6795 47.7255 46.764 47.8949C46.8485 48.0643 46.9661 48.2151 47.11 48.3381C47.2539 48.4612 47.421 48.5541 47.6015 48.6114C47.7819 48.6686 47.9721 48.689 48.1606 48.6714C48.3491 48.6537 48.5321 48.5984 48.6988 48.5086C48.8655 48.4189 49.0125 48.2966 49.1311 48.1489C50.3008 46.7816 51.5399 45.4528 52.82 44.1984C53.0201 44.0017 53.1572 43.7499 53.2137 43.4751C53.2703 43.2003 53.2438 42.9149 53.1376 42.6552C53.0314 42.3955 52.8503 42.1733 52.6174 42.0168C52.3845 41.8604 52.1103 41.7768 51.8298 41.7767L51.6989 41.8947ZM45.065 49.5419C44.8435 49.5419 44.625 49.5939 44.4271 49.6937C44.2293 49.7935 44.0577 49.9383 43.926 50.1165V50.1165C43.0538 51.3017 42.2227 52.516 41.4325 53.7593V53.7747L41.3966 53.8311V53.8465L41.3607 53.9055V53.9209L41.3325 53.9645L41.3068 54.0056L41.2709 54.062L41.2478 54.1005L41.2324 54.1261L41.2171 54.1492L41.1837 54.2057V54.2185L41.1478 54.2749V54.2903L41.1119 54.3468L41.0708 54.4135C40.8888 54.5559 40.7446 54.7409 40.6508 54.9522C40.5571 55.1634 40.5167 55.3945 40.5331 55.625C40.5496 55.8556 40.6224 56.0785 40.7453 56.2743C40.8681 56.4701 41.0372 56.6327 41.2376 56.7479C41.458 56.8842 41.7121 56.9561 41.9713 56.9557C42.2138 56.956 42.4524 56.8938 42.664 56.7752C42.8756 56.6566 43.0532 56.4855 43.1795 56.2784C44.1082 54.7392 45.1215 53.2411 46.1886 51.7943C46.3437 51.584 46.4374 51.335 46.4594 51.0747C46.4815 50.8144 46.431 50.5531 46.3135 50.3198C46.1961 50.0865 46.0163 49.8903 45.7941 49.753C45.5719 49.6157 45.316 49.5426 45.0548 49.5419H45.065ZM45.4062 57.6227C45.0828 57.622 44.7691 57.7335 44.5186 57.9382C43.5118 58.675 42.4681 59.3599 41.3915 59.9904L40.9785 60.247L40.9939 60.2136C41.1391 59.8833 41.1526 59.51 41.0314 59.1701C40.9103 58.8302 40.6638 58.5495 40.3424 58.3855C40.021 58.2215 39.649 58.1867 39.3027 58.2881C38.9564 58.3895 38.662 58.6195 38.4799 58.931C37.7684 60.3248 37.1134 61.74 36.5148 63.1766V63.192V63.2099L36.4969 63.2587V63.2741V63.2894L36.4789 63.3305C35.6754 65.2727 34.98 67.2578 34.3959 69.2769V69.2769C34.972 68.3185 35.7057 67.4642 36.5661 66.7501L36.5969 66.727L36.6149 66.7116L36.6431 66.6885L36.6713 66.6654C36.8971 66.4704 37.1331 66.2806 37.3742 66.0908C37.7847 65.7675 38.2156 65.4494 38.6569 65.139L38.7287 65.0877C39.0109 64.3848 39.3085 63.6828 39.6214 62.9816C39.8375 63.2493 40.1437 63.4291 40.4828 63.4872C40.8219 63.5453 41.1705 63.4777 41.4633 63.2971L42.0456 62.9354L42.7845 62.4814C43.9677 61.7927 45.1119 61.0391 46.2117 60.2239C46.4378 60.0395 46.6013 59.7897 46.6797 59.5088C46.7582 59.2278 46.7479 58.9295 46.6501 58.6546C46.5523 58.3798 46.3719 58.142 46.1335 57.9737C45.8952 57.8055 45.6107 57.7151 45.319 57.715L45.4062 57.6227ZM54.8543 52.6023C54.6601 52.6026 54.468 52.6428 54.2899 52.7203C52.5609 53.4745 50.7934 54.3108 49.031 55.2061C48.7481 55.3502 48.5219 55.5854 48.3889 55.8737C48.2559 56.162 48.2239 56.4867 48.298 56.7955C48.372 57.1042 48.5479 57.379 48.7972 57.5756C49.0466 57.7722 49.3548 57.8792 49.6723 57.8792C49.8945 57.8795 50.1135 57.8267 50.3111 57.7253C52.0538 56.8411 53.7572 56.0356 55.4212 55.3087C55.7174 55.1779 55.9597 54.9493 56.1075 54.6612C56.2554 54.3731 56.2998 54.043 56.2335 53.726C56.1671 53.4091 55.9939 53.1245 55.7428 52.92C55.4918 52.7155 55.1781 52.6033 54.8543 52.6023V52.6023ZM64.7615 49.0109C64.6295 49.0109 64.4982 49.0299 64.3716 49.0673C62.54 49.5804 60.6673 50.2089 58.7997 50.9015C58.4604 51.0402 58.1882 51.3054 58.0407 51.641C57.8931 51.9765 57.8817 52.3563 58.0088 52.7002C58.136 53.044 58.3917 53.325 58.7221 53.4838C59.0525 53.6427 59.4317 53.6669 59.7797 53.5515C61.6182 52.8674 63.4096 52.2774 65.154 51.7814C65.4805 51.6863 65.7617 51.4767 65.9461 51.191C66.1305 50.9054 66.2058 50.5628 66.1581 50.2261C66.1104 49.8894 65.943 49.5813 65.6865 49.3581C65.4299 49.1348 65.1016 49.0116 64.7615 49.0109V49.0109ZM75.1408 46.9176H74.9817C73.0603 47.1331 71.0953 47.4512 69.138 47.8616C68.9555 47.8994 68.7823 47.9727 68.6282 48.0773C68.4741 48.182 68.3422 48.316 68.2399 48.4717C68.1375 48.6273 68.0669 48.8016 68.0319 48.9846C67.997 49.1676 67.9984 49.3556 68.0362 49.5381C68.0739 49.7205 68.1472 49.8937 68.2518 50.0478C68.3565 50.2019 68.4905 50.3339 68.6462 50.4362C68.8019 50.5385 68.9762 50.6091 69.1591 50.6441C69.3421 50.679 69.5302 50.6776 69.7126 50.6399L70.4309 50.4936L70.6079 50.4577H70.6515H70.6951H70.7387H70.7592H70.7849H70.8259H70.849H70.8695H70.8952H70.9362H71.1723H71.1928H71.4493H71.4878H71.5109H71.5365H71.5596H71.5981H71.6212H71.6443H71.6674H71.7084H71.8392H71.8649H71.8854H71.9265H71.947H71.9752H72.0573H72.0829H72.1035H72.1471H72.1907H72.2112H72.2548H72.2959H72.3164H72.36H72.4062H72.4677H72.5139L72.6832 50.4321H72.7268H72.7704H72.791H72.8346L72.9398 50.4167L73.0475 50.4013L73.1552 50.3859C73.8812 50.2756 74.597 50.1832 75.305 50.1037C75.6729 50.0745 76.0148 49.9026 76.2577 49.6247C76.5005 49.3468 76.625 48.9849 76.6046 48.6164C76.5842 48.2479 76.4204 47.902 76.1483 47.6526C75.8762 47.4032 75.5174 47.2702 75.1485 47.2819L75.1408 46.9176ZM81.2565 46.579C80.8178 46.579 80.3715 46.579 79.9302 46.5944C79.5707 46.6199 79.2345 46.7818 78.9904 47.047C78.7463 47.3122 78.6127 47.6606 78.617 48.021C78.6213 48.3814 78.763 48.7266 79.0133 48.9859C79.2636 49.2453 79.6036 49.3992 79.9636 49.4162H80.197C80.4921 49.4162 80.7871 49.4162 81.0795 49.4162H83.1318C83.9809 49.447 84.8172 49.5009 85.6406 49.5701C85.6799 49.5727 85.7194 49.5727 85.7586 49.5701C86.1231 49.5702 86.4735 49.4295 86.7367 49.1773C86.9999 48.9252 87.1555 48.5811 87.1711 48.217C87.1867 47.8528 87.061 47.4968 86.8202 47.2231C86.5795 46.9494 86.2424 46.7793 85.8792 46.7483C84.34 46.6149 82.8008 46.5508 81.2616 46.5508L81.2565 46.579ZM90.5584 47.4076C90.2035 47.4032 89.8599 47.5327 89.5963 47.7704C89.3327 48.008 89.1683 48.3363 89.1359 48.6897C89.1036 49.0432 89.2056 49.3958 89.4217 49.6774C89.6378 49.959 89.952 50.1487 90.3018 50.2089V50.2089H90.3249H90.348H90.4019H90.4917H90.5455H90.5686H90.6276H90.6789H90.7482H90.7738H90.8585H90.8816H91.1022H91.1253H91.1432H91.1586H91.174H91.192H91.2176H91.3023H91.3254H91.3433H91.4023H91.4177H91.5357H91.5588H91.6717H91.6922H91.7051H91.7179H91.7307H91.7435H91.7564H91.8513H91.8641H91.8795H91.9718H91.9872H92.0103H92.0462H92.0616H92.077H92.1181H92.136H92.1488H92.2104H92.2335H92.3156H92.3412H92.4003H92.4131H92.4336H92.4593H92.4746H92.5336H92.5593H92.5773H92.6106H92.6286H92.6491H92.6747H92.6927H92.726H92.7466H92.7697H92.7902H92.8056H92.8389H92.8877H92.9082H92.9261H92.9467H92.9723H92.9928H93.0108H93.0313H93.0826H93.3135H93.3315H93.3571H93.3828H93.4059H93.4264H93.4495H93.4982H93.5187H93.5393H93.5906H93.6137H93.6342H93.6547H93.706H93.7291H93.7522H93.8035H93.824H93.8445H93.8676H93.9164H93.9369H93.9574H94.0087H94.0318H94.0523H94.0754L94.1267 50.2217H94.1498H94.1729L94.2216 50.2345H94.2421H94.2627L94.3371 50.2551H94.3576H94.3781H94.4294H94.4499H94.4705H94.4936H94.5192H94.5397H94.5577H94.5756L94.6218 50.2679H94.6398H94.8527H94.8707H94.8912H94.9066H94.9399H94.9527H94.9707H94.9861H95.0194H95.0323H95.0554H95.0759H95.0887H95.1118H95.1246H95.1554L95.2093 50.2833H95.2272H95.2555H95.2708L95.3298 50.3012H95.3478H95.3658L95.7608 50.4141C95.8883 50.4517 96.0205 50.4707 96.1533 50.4706C96.4933 50.4699 96.8217 50.3466 97.0782 50.1234C97.3348 49.9002 97.5022 49.592 97.5499 49.2553C97.5976 48.9187 97.5223 48.5761 97.3379 48.2904C97.1535 48.0048 96.8723 47.7951 96.5458 47.7C94.6414 47.1474 92.7097 46.6935 90.7585 46.3404C90.6738 46.3256 90.5879 46.3187 90.5019 46.3199L90.5584 47.4076ZM100.768 50.2525C100.438 50.2536 100.119 50.3703 99.8657 50.5823C99.6126 50.7942 99.4416 51.0881 99.3825 51.4129C99.3234 51.7377 99.3799 52.073 99.5421 52.3605C99.7043 52.6481 99.9621 52.8698 100.271 52.9871C100.848 53.2052 101.415 53.4284 101.977 53.6541H101.997H102.018H102.038H102.056H102.074L102.164 53.6926H102.184H102.202H102.218H102.236H102.251H102.266H102.284H102.305H102.323H102.336H102.349H102.361H102.374H102.387L102.433 53.7106H102.449H102.464H102.477H102.492H102.508H102.526L102.605 53.7439H102.623H102.638H102.654H102.669H102.685H102.703L102.823 53.7926H102.841C103.647 54.1347 104.436 54.4853 105.209 54.8444C105.394 54.9276 105.594 54.9713 105.796 54.9727C106.053 54.939 106.295 54.8355 106.497 54.6735C106.699 54.5115 106.852 54.2973 106.941 54.0541C107.029 53.8109 107.049 53.5481 106.998 53.2944C106.948 53.0407 106.828 52.8057 106.653 52.6152C104.765 51.743 103 51.0016 101.253 50.3449C101.095 50.2853 100.927 50.2549 100.758 50.2551L100.768 50.2525ZM110.368 54.6135C110.053 54.6133 109.746 54.7185 109.498 54.9123C109.249 55.1061 109.072 55.3775 108.996 55.6833C108.919 55.989 108.947 56.3117 109.075 56.5998C109.202 56.888 109.423 57.1252 109.701 57.2738C110.455 57.674 111.202 58.0904 111.943 58.5231H111.961H111.979H111.994H112.01H112.022H112.035H112.048H112.061H112.074H112.092C112.842 58.9677 113.588 59.4304 114.329 59.9109H114.341H114.354H114.367L114.385 59.9237C114.699 60.1081 115.071 60.1643 115.426 60.0808C115.78 59.9973 116.088 59.7805 116.286 59.4755C116.485 59.1704 116.558 58.8006 116.49 58.4431C116.423 58.0856 116.22 57.7678 115.924 57.556C114.285 56.4888 112.623 55.5037 110.842 54.5571C110.638 54.4497 110.411 54.3933 110.18 54.3929L110.368 54.6135ZM119.269 60.3316C118.974 60.3314 118.686 60.4238 118.446 60.5956C118.206 60.7675 118.025 61.0104 117.93 61.29C117.835 61.5697 117.83 61.8721 117.916 62.1548C118.001 62.4375 118.173 62.6863 118.407 62.8662C119.854 63.9769 121.293 65.175 122.733 66.5012C123.009 66.7543 123.375 66.8872 123.749 66.8706C124.124 66.854 124.477 66.6893 124.73 66.4127C124.983 66.1362 125.116 65.7704 125.099 65.3958C125.082 65.0213 124.918 64.6687 124.641 64.4156C123.174 63.0714 121.655 61.7964 120.129 60.6241C119.883 60.4341 119.58 60.3312 119.269 60.3316V60.3316ZM127.117 67.3991C126.84 67.3986 126.569 67.4794 126.338 67.6315C126.106 67.7836 125.925 68.0002 125.815 68.2546C125.706 68.509 125.674 68.7898 125.723 69.0623C125.772 69.3348 125.9 69.5869 126.091 69.7874C126.645 70.3646 127.199 70.9572 127.755 71.5831L127.784 71.6139L127.797 71.6293L127.812 71.6472C128.424 72.3313 129.04 73.0351 129.659 73.7585L129.677 73.779V73.7918L129.69 73.8072L129.764 73.8945C129.896 74.0538 130.06 74.1824 130.247 74.2711C130.434 74.3597 130.637 74.4063 130.844 74.4075C131.178 74.409 131.501 74.2907 131.755 74.074C131.897 73.9546 132.014 73.8083 132.099 73.6435C132.185 73.4787 132.237 73.2987 132.252 73.1138C132.268 72.9289 132.247 72.7427 132.191 72.5659C132.135 72.3891 132.044 72.2251 131.924 72.0834C130.641 70.5442 129.323 69.0973 128.025 67.7454C127.892 67.6078 127.732 67.4984 127.556 67.4239C127.38 67.3494 127.19 67.3113 126.999 67.3119L127.117 67.3991ZM133.948 75.3849C133.685 75.3845 133.426 75.458 133.202 75.597C132.978 75.7359 132.798 75.9348 132.681 76.1711C132.564 76.4075 132.516 76.6718 132.542 76.9341C132.568 77.1964 132.667 77.4462 132.827 77.6552C133.934 79.0901 135.051 80.6105 136.18 82.2164C136.401 82.5097 136.727 82.7055 137.09 82.7623C137.453 82.8192 137.824 82.7326 138.124 82.5208C138.424 82.3091 138.63 81.9889 138.698 81.628C138.766 81.2671 138.691 80.8939 138.489 80.5874C137.347 78.9661 136.198 77.3987 135.069 75.9339C134.937 75.763 134.767 75.6246 134.572 75.5295C134.378 75.4343 134.164 75.3849 133.948 75.3849V75.3849ZM140.002 83.9069C139.728 83.9072 139.461 83.9884 139.233 84.1403C138.92 84.3466 138.702 84.6686 138.626 85.0356C138.551 85.4027 138.624 85.7847 138.83 86.0977C139.088 86.4893 139.345 86.8869 139.6 87.2906L139.623 87.3239V87.3419V87.3598C140.136 88.1679 140.669 88.9939 141.2 89.843V89.8584L141.213 89.8738L141.236 89.9097V89.9226V89.9354V89.9482V89.961C141.405 90.233 141.577 90.5075 141.749 90.7845C141.95 91.0956 142.264 91.3158 142.625 91.3977C142.986 91.4796 143.364 91.4168 143.679 91.2227C143.994 91.0286 144.221 90.7186 144.31 90.3595C144.399 90.0003 144.343 89.6206 144.156 89.3018C143.129 87.6266 142.085 86.0002 141.077 84.4661C140.948 84.2703 140.773 84.1097 140.566 83.9986C140.36 83.8876 140.129 83.8296 139.895 83.8299L140.002 83.9069ZM145.507 92.7675C145.258 92.7672 145.014 92.8329 144.798 92.9578C144.583 93.0827 144.404 93.2625 144.281 93.4787C144.157 93.695 144.093 93.9401 144.095 94.1892C144.097 94.4382 144.165 94.6823 144.291 94.8967C145.215 96.4667 146.156 98.0999 147.113 99.7965C147.3 100.117 147.605 100.35 147.963 100.448C148.321 100.545 148.702 100.498 149.025 100.317C149.349 100.135 149.588 99.8343 149.691 99.4784C149.795 99.1224 149.754 98.7401 149.579 98.4138C148.622 96.7104 147.665 95.0455 146.734 93.4627C146.609 93.2508 146.43 93.0752 146.217 92.9533C146.003 92.8313 145.761 92.7673 145.515 92.7675H145.507ZM150.687 99.7913C150.415 99.7922 150.149 99.8716 149.922 100.02C149.694 100.168 149.515 100.379 149.404 100.628C148.994 101.544 148.557 102.451 148.093 103.347C148.004 104.432 147.855 105.833 147.644 107.415C147.542 108.185 147.426 108.991 147.295 109.827C147.276 109.964 147.276 110.103 147.295 110.24C148.738 108.093 150.031 105.85 151.167 103.526L151.197 103.467L151.226 103.408L151.254 103.349V103.319V103.293V103.265V103.239L151.269 103.211V103.188L151.282 103.162V103.139L151.295 103.113V103.093L151.308 103.067V103.049V103.024V103.008V102.985V102.972V102.96V102.947V102.926V102.913V102.901V102.877V102.862L151.323 102.834V102.816L151.338 102.78V102.762L151.367 102.703C151.49 102.446 151.623 102.169 151.733 101.903C151.809 101.733 151.851 101.55 151.856 101.365C151.861 101.179 151.83 100.995 151.764 100.821C151.697 100.648 151.598 100.489 151.47 100.354C151.343 100.219 151.19 100.111 151.02 100.035C150.84 99.9535 150.644 99.9115 150.446 99.9119L150.687 99.7913ZM153.965 90.2458C153.649 90.2458 153.342 90.3516 153.094 90.5465C152.845 90.7413 152.669 91.0139 152.593 91.3207C152.167 93.0548 151.649 94.7864 151.054 96.4693C150.931 96.8217 150.953 97.2083 151.115 97.5447C151.276 97.8811 151.564 98.14 151.916 98.265C152.067 98.3175 152.225 98.3444 152.385 98.3445C152.677 98.3445 152.963 98.2539 153.201 98.0854C153.44 97.9168 153.621 97.6785 153.719 97.403C154.042 96.4846 154.342 95.5603 154.619 94.6299L154.637 94.5684L154.655 94.5068L154.673 94.4478L154.689 94.3913V94.3631V94.3452V94.3246V94.3093V94.2939V94.281V94.2657V94.2451V94.2323V94.2169V94.2041V94.181V94.1682V94.1528V94.1194V94.0963V94.0835V94.0656V94.0399V94.0194V93.9937V93.9706V93.9424V93.9168V93.886V93.8578V93.827C154.853 93.2395 155.009 92.6495 155.153 92.0569C155.204 91.8492 155.206 91.6327 155.161 91.4238C155.115 91.2149 155.023 91.019 154.891 90.851C154.759 90.683 154.59 90.5472 154.398 90.4539C154.205 90.3606 153.994 90.3123 153.781 90.3125L153.965 90.2458ZM155.484 80.2667C155.125 80.2673 154.779 80.4048 154.517 80.6512C154.256 80.8975 154.098 81.2343 154.076 81.593C153.968 83.3682 153.77 85.1639 153.486 86.9288C153.426 87.2986 153.516 87.6767 153.736 87.9802C153.955 88.2836 154.286 88.4877 154.655 88.5476C154.73 88.5598 154.805 88.5658 154.881 88.5655C155.217 88.5655 155.541 88.4459 155.796 88.2282C156.052 88.0105 156.221 87.709 156.274 87.3778C156.546 85.6898 156.744 83.9916 156.862 82.2933V82.2728V81.9265V81.8957V81.8316V81.7726C156.873 81.5874 156.847 81.4019 156.786 81.2266C156.726 81.0513 156.631 80.8897 156.508 80.751C156.385 80.6124 156.235 80.4993 156.069 80.4184C155.902 80.3375 155.72 80.2903 155.535 80.2795L155.484 80.2667ZM155.394 70.0773H155.315C154.94 70.0985 154.59 70.2674 154.34 70.5469C154.091 70.8263 153.962 71.1935 153.983 71.5677C154.081 73.3019 154.14 75.1592 154.158 77.0832C154.161 77.4554 154.311 77.8112 154.575 78.0735C154.839 78.3357 155.196 78.4832 155.569 78.4838H155.584C155.958 78.4798 156.316 78.3273 156.578 78.0599C156.84 77.7925 156.986 77.4319 156.982 77.0575C156.982 76.2161 156.967 75.3892 156.936 74.5768C156.936 74.5409 156.936 74.5076 156.936 74.4717V74.251V74.1997V74.1766V74.0484C156.905 73.1539 156.866 72.2758 156.818 71.4138C156.796 71.0547 156.639 70.7173 156.377 70.4704C156.115 70.2235 155.769 70.0856 155.41 70.085L155.394 70.0773ZM154.212 60.0007C154.12 60.0004 154.029 60.0089 153.94 60.0264C153.757 60.0617 153.584 60.1326 153.429 60.235C153.274 60.3374 153.141 60.4694 153.037 60.6233C152.933 60.7772 152.861 60.95 152.824 61.1319C152.787 61.3139 152.786 61.5013 152.821 61.6836C153.147 63.351 153.416 65.1544 153.622 67.0374C153.659 67.3832 153.824 67.7029 154.082 67.9353C154.341 68.1677 154.677 68.2965 155.025 68.2969C155.076 68.2969 155.127 68.2969 155.179 68.2969C155.363 68.2771 155.542 68.2211 155.705 68.1321C155.868 68.0431 156.011 67.9228 156.128 67.7781C156.244 67.6335 156.331 67.4673 156.383 67.2891C156.435 67.111 156.451 66.9243 156.431 66.7398V66.591V66.5679V66.5217C156.26 64.9826 156.046 63.4981 155.789 62.0684V62.0478V62.0273V62.0094V61.9478V61.3885C155.789 61.3398 155.771 61.2936 155.764 61.2475V61.2295V61.2064V61.191V61.1654C155.702 60.8441 155.53 60.5544 155.277 60.3461C155.025 60.1378 154.708 60.0238 154.381 60.0238L154.212 60.0007ZM151.249 50.4475C151.012 50.4482 150.78 50.508 150.573 50.6216C150.366 50.7351 150.191 50.8987 150.063 51.0974C149.936 51.2962 149.86 51.5237 149.843 51.7593C149.826 51.9948 149.868 52.2309 149.966 52.4459C150.686 54.0394 151.292 55.6819 151.78 57.361C151.826 57.5453 151.909 57.7182 152.024 57.8696C152.139 58.021 152.283 58.1476 152.448 58.242C152.613 58.3363 152.796 58.3965 152.984 58.4188C153.173 58.4411 153.364 58.4251 153.547 58.3717C153.729 58.3184 153.899 58.2289 154.046 58.1084C154.193 57.988 154.314 57.8391 154.402 57.6708C154.49 57.5024 154.544 57.318 154.559 57.1286C154.574 56.9392 154.551 56.7486 154.491 56.5683C154.473 56.5067 154.455 56.4426 154.435 56.381V56.3657V56.3477L154.412 56.2759V56.2605V56.2451V56.2297V56.2169V56.1527V56.1245V56.0937V56.0629V56.0322V56.0168V55.9963V55.9783V55.9655V55.9526V55.9372V55.9193V55.8757V55.8552V55.8372V55.8192V55.8013C154.412 55.7654 154.389 55.7295 154.378 55.6961C153.912 54.2185 153.356 52.7707 152.713 51.3607C152.602 51.1144 152.421 50.9055 152.194 50.759C151.966 50.6125 151.701 50.5346 151.431 50.5347L151.249 50.4475ZM145.764 42.2641C145.401 42.2625 145.051 42.4024 144.789 42.654C144.518 42.9129 144.361 43.2689 144.352 43.6437C144.344 44.0184 144.484 44.3813 144.743 44.6524C145.922 45.8872 146.982 47.2306 147.909 48.6646C148.113 48.9792 148.433 49.1999 148.8 49.2781C149.167 49.3563 149.55 49.2855 149.865 49.0814C150.179 48.8773 150.4 48.5566 150.478 48.1897C150.556 47.8229 150.486 47.4401 150.281 47.1254C149.862 46.4789 149.422 45.8521 148.96 45.245V45.2296L148.919 45.1757L148.906 45.1604V45.145L148.881 45.1116V45.0962V45.0808L148.868 45.0629V45.0449L148.842 45.0116V44.9962V44.9808V44.9654V44.95V44.9346V44.9192L148.83 44.9038L148.817 44.8884L148.799 44.8705L148.781 44.8499L148.765 44.8346V44.8192L148.737 44.7884L148.724 44.7756L148.709 44.7602V44.7448L148.681 44.7114H148.668L148.653 44.696L148.624 44.6627L148.611 44.6473L148.568 44.5985L148.552 44.5832C148.365 44.3754 148.175 44.1701 147.98 43.9675C147.848 43.8288 147.689 43.7185 147.512 43.6436C147.336 43.5686 147.146 43.5304 146.954 43.5314L145.764 42.2641ZM137.878 36.2844C137.564 36.2815 137.257 36.3835 137.007 36.5743C136.758 36.7651 136.578 37.0338 136.498 37.3379C136.418 37.6419 136.442 37.964 136.565 38.2532C136.689 38.5423 136.905 38.782 137.18 38.9343C138.704 39.7753 140.161 40.7297 141.541 41.7895C141.687 41.912 141.856 42.0038 142.038 42.0594C142.22 42.1151 142.411 42.1334 142.601 42.1133C142.79 42.0932 142.973 42.035 143.139 41.9424C143.305 41.8498 143.451 41.7245 143.568 41.5742C143.685 41.4238 143.77 41.2514 143.818 41.0674C143.867 40.8834 143.877 40.6914 143.85 40.5031C143.822 40.3148 143.757 40.134 143.658 39.9716C143.559 39.8091 143.428 39.6683 143.273 39.5577C142.515 38.9728 141.722 38.4101 140.892 37.8697H140.877H140.862L140.8 37.8312H140.787H140.774H140.759H140.746H140.731H140.713H140.697H140.682H140.669H140.654L140.597 37.7953H140.579H140.562H140.541C139.965 37.4345 139.366 37.083 138.745 36.741C138.536 36.6241 138.3 36.5623 138.06 36.5614L137.878 36.2844ZM128.61 32.3389C128.274 32.3398 127.95 32.4599 127.695 32.6779C127.44 32.8959 127.271 33.1976 127.218 33.5289C127.165 33.8602 127.231 34.1995 127.405 34.4863C127.579 34.773 127.85 34.9885 128.168 35.094C129.964 35.6789 131.657 36.3177 133.214 36.9898C133.391 37.0653 133.581 37.1046 133.774 37.1053C134.098 37.1044 134.412 36.992 134.664 36.7869C134.915 36.5818 135.088 36.2965 135.154 35.9788C135.22 35.6611 135.175 35.3305 135.026 35.0423C134.876 34.7542 134.633 34.5261 134.335 34.3963C132.681 33.6806 130.918 33.0213 129.043 32.4056C128.903 32.3611 128.757 32.3386 128.61 32.3389V32.3389ZM118.741 29.7531C118.39 29.7515 118.051 29.8805 117.79 30.1151C117.529 30.3497 117.364 30.673 117.328 31.0222C117.293 31.3713 117.388 31.7213 117.596 32.0041C117.804 32.2868 118.11 32.4821 118.454 32.5518C120.329 32.9443 122.13 33.3676 123.807 33.8114C123.925 33.8439 124.047 33.8603 124.169 33.8601C124.513 33.861 124.845 33.7364 125.104 33.5098C125.363 33.2831 125.53 32.97 125.574 32.629C125.619 32.288 125.537 31.9425 125.345 31.6572C125.153 31.372 124.863 31.1665 124.531 31.0793H124.487H124.472H124.459H124.413H124.367H124.349H124.326H124.303H124.285H124.264H124.241H124.192H124.172H124.151L124.077 31.0588H124.051L123.238 30.7561L123.015 30.6997H122.992H122.969L122.894 30.6817H122.871H122.851H122.827H122.779H122.763H122.745H122.715H122.692H122.661H122.643H122.627H122.607H122.581H122.561H122.545H122.499H122.479H122.43H122.417H122.302H122.248H122.232H122.217H122.186L122.112 30.6637H122.094H122.076L121.994 30.6432H121.976H121.958L121.878 30.6253H121.86L120.834 30.3918L120.703 30.3636H120.655L120.575 30.3482H120.506H120.49H120.447H120.434H120.334H120.311H120.29H120.257H120.239L120.162 30.3303H120.136L119.031 30.0942C118.936 30.074 118.84 30.0637 118.743 30.0635L118.741 29.7531ZM108.621 28.0112C108.247 27.9854 107.877 28.1092 107.595 28.3555C107.312 28.6018 107.138 28.9505 107.112 29.3247C107.086 29.6989 107.21 30.068 107.457 30.3509C107.703 30.6338 108.052 30.8072 108.426 30.8331C110.334 31.1024 112.184 31.3923 113.921 31.695C114.005 31.7101 114.091 31.717 114.177 31.7155C114.529 31.7117 114.866 31.5771 115.124 31.3379C115.381 31.0987 115.54 30.7722 115.57 30.422C115.6 30.0717 115.498 29.723 115.285 29.4437C115.071 29.1645 114.762 28.9748 114.416 28.9116L114.093 28.8475H114.075H113.99H113.964H113.939C112.502 28.5807 111.019 28.3379 109.49 28.119H109.375H109.321L108.826 28.0471C108.76 28.0377 108.693 28.0335 108.626 28.0343L108.621 28.0112ZM98.3954 26.7901C98.0291 26.785 97.6751 26.9222 97.4081 27.173C97.141 27.4237 96.9817 27.7683 96.9638 28.1342C96.9458 28.5 97.0706 28.8586 97.3118 29.1343C97.553 29.4099 97.8918 29.5812 98.2569 29.612C100.178 29.8044 102.048 30.0096 103.816 30.2225C103.873 30.2263 103.931 30.2263 103.988 30.2225C104.362 30.2453 104.73 30.1185 105.011 29.87C105.291 29.6215 105.462 29.2717 105.485 28.8975C105.507 28.5233 105.381 28.1554 105.132 27.8747C104.884 27.594 104.534 27.4235 104.16 27.4007C102.343 27.1818 100.468 26.9757 98.5339 26.7824C98.4878 26.7799 98.4415 26.7799 98.3954 26.7824V26.7901Z" fill="#FCB800"/>
<path d="M82.3391 33.6738H57.1452C52.3295 33.6738 48.4257 37.5777 48.4257 42.3933V56.7232C48.4257 61.5389 52.3295 65.4427 57.1452 65.4427H82.3391C87.1548 65.4427 91.0587 61.5389 91.0587 56.7232V42.3933C91.0587 37.5777 87.1548 33.6738 82.3391 33.6738Z" fill="white"/>
<path d="M82.3365 33.6735H76.6928C76.3333 33.6952 75.9956 33.8532 75.7487 34.1155C75.5019 34.3777 75.3644 34.7242 75.3644 35.0844C75.3644 35.4445 75.5019 35.7911 75.7487 36.0533C75.9956 36.3155 76.3333 36.4736 76.6928 36.4953H82.3365C82.5289 36.5069 82.7217 36.479 82.903 36.4134C83.0842 36.3477 83.2501 36.2457 83.3905 36.1135C83.5309 35.9814 83.6427 35.8219 83.7192 35.6449C83.7956 35.4679 83.8351 35.2772 83.8351 35.0844C83.8351 34.8916 83.7956 34.7008 83.7192 34.5239C83.6427 34.3469 83.5309 34.1874 83.3905 34.0552C83.2501 33.9231 83.0842 33.821 82.903 33.7554C82.7217 33.6897 82.5289 33.6619 82.3365 33.6735V33.6735ZM71.9777 33.6735H66.334C65.9745 33.6952 65.6369 33.8532 65.39 34.1155C65.1431 34.3777 65.0056 34.7242 65.0056 35.0844C65.0056 35.4445 65.1431 35.7911 65.39 36.0533C65.6369 36.3155 65.9745 36.4736 66.334 36.4953H71.9777C72.3372 36.4736 72.6749 36.3155 72.9217 36.0533C73.1686 35.7911 73.3061 35.4445 73.3061 35.0844C73.3061 34.7242 73.1686 34.3777 72.9217 34.1155C72.6749 33.8532 72.3372 33.6952 71.9777 33.6735ZM61.6164 33.6735H56.7295C56.5294 33.6735 56.3318 33.6991 56.1369 33.7222H55.9958H55.9676C55.7823 33.7345 55.6012 33.7832 55.4348 33.8654C55.2683 33.9477 55.1196 34.062 54.9973 34.2017C54.7503 34.4838 54.6254 34.8526 54.6503 35.2268C54.6751 35.601 54.8476 35.95 55.1297 36.197C55.4119 36.4441 55.7806 36.5689 56.1548 36.5441C56.218 36.5492 56.2815 36.5492 56.3447 36.5441C56.6093 36.5103 56.8757 36.4931 57.1425 36.4927H61.6164C61.9759 36.4711 62.3135 36.313 62.5604 36.0507C62.8073 35.7885 62.9448 35.442 62.9448 35.0818C62.9448 34.7217 62.8073 34.3751 62.5604 34.1129C62.3135 33.8507 61.9759 33.6926 61.6164 33.6709V33.6735ZM52.5762 35.2768C52.2565 35.2765 51.9462 35.3851 51.6963 35.5846C50.9553 36.1792 50.3151 36.8895 49.8005 37.6882V37.6882V37.7061V37.7241H49.7031V37.7395V37.7574V37.778C49.2354 38.5434 48.8892 39.3768 48.6769 40.2484C48.586 40.612 48.643 40.9968 48.8353 41.3185C49.0277 41.6402 49.3397 41.8726 49.7031 41.9646C49.8164 41.9921 49.9327 42.0059 50.0494 42.0056C50.3636 42.0054 50.6687 41.9003 50.9164 41.7069C51.1641 41.5136 51.3401 41.2432 51.4167 40.9384C51.7356 39.6943 52.4494 38.5871 53.451 37.7831C53.6786 37.5997 53.8437 37.3502 53.9236 37.0691C54.0035 36.7879 53.9943 36.4889 53.8973 36.2132C53.8002 35.9375 53.6201 35.6987 53.3816 35.5296C53.1432 35.3605 52.8583 35.2695 52.566 35.2691L52.5762 35.2768ZM49.8365 43.532C49.6508 43.5316 49.467 43.5679 49.2954 43.6386C49.1237 43.7093 48.9677 43.8131 48.8362 43.9442C48.7047 44.0752 48.6003 44.2308 48.529 44.4022C48.4576 44.5735 48.4207 44.7573 48.4204 44.9429V50.5866C48.4421 50.9461 48.6002 51.2837 48.8624 51.5306C49.1246 51.7775 49.4712 51.915 49.8313 51.915C50.1915 51.915 50.538 51.7775 50.8003 51.5306C51.0625 51.2837 51.2206 50.9461 51.2423 50.5866V44.9429C51.2416 44.5685 51.0924 44.2096 50.8274 43.9451C50.5623 43.6805 50.2032 43.532 49.8288 43.532H49.8365ZM49.8365 53.8907C49.4616 53.8907 49.1021 54.0396 48.837 54.3047C48.5719 54.5698 48.423 54.9293 48.423 55.3042V56.7305V56.7459V56.7613V56.7793V56.7921V57.436V57.4514V57.4719V57.4873V57.5027V57.5181V57.5335V57.5489V57.5643V57.5797V57.595V57.6181V57.631V57.6464V57.6592V57.6746V57.69V57.7054V57.7207V57.7438V57.7567V57.7797V57.808V57.8362C48.423 57.8567 48.4409 57.8772 48.4486 57.8952C48.5128 58.0337 48.5795 58.1671 48.6487 58.3005C48.7332 58.4685 48.8504 58.6179 48.9934 58.7401C49.1363 58.8622 49.3022 58.9546 49.4814 59.0118C49.6605 59.069 49.8492 59.09 50.0365 59.0733C50.2238 59.0567 50.406 59.0028 50.5722 58.9149C50.7384 58.827 50.8854 58.7069 51.0047 58.5614C51.1239 58.416 51.2129 58.2482 51.2664 58.068C51.32 57.8877 51.337 57.6986 51.3166 57.5117C51.2961 57.3247 51.2386 57.1438 51.1473 56.9794C51.177 56.8931 51.2086 56.8076 51.2423 56.7228V55.3042C51.2423 54.9293 51.0933 54.5698 50.8283 54.3047C50.5632 54.0396 50.2036 53.8907 49.8288 53.8907H49.8365ZM53.3535 61.5585C53.0456 61.5588 52.7462 61.6597 52.5008 61.8458C52.2554 62.0319 52.0776 62.293 51.9942 62.5894C51.9109 62.8859 51.9267 63.2015 52.0391 63.4881C52.1516 63.7748 52.3546 64.0169 52.6173 64.1776V64.1776H52.6481H52.6737H52.7045H52.7814H52.7994H52.8558H52.9302H52.9482H52.9662H53.1021H53.1355H53.1534H53.2791H53.5613H53.6562H53.8435H53.8948H53.9102H54.0333H54.0487H54.2847H54.3001H54.3155H54.3437H54.3591H54.413H54.4309H54.4463H54.5772H54.5926H54.6464H54.6644H54.7183H54.7337H54.7901H54.8055H54.8619H54.8773H54.9337H54.9491H54.9774H54.9953H55.0107H55.0389H55.0569H55.0723H55.1005H55.1185H55.2005H55.2185H55.2467H55.2647H55.2801H55.3468H55.3622H55.3801H58.0224C58.2148 64.1893 58.4076 64.1614 58.5889 64.0957C58.7702 64.0301 58.9361 63.928 59.0764 63.7959C59.2168 63.6637 59.3287 63.5042 59.4051 63.3273C59.4816 63.1503 59.521 62.9595 59.521 62.7667C59.521 62.5739 59.4816 62.3832 59.4051 62.2062C59.3287 62.0292 59.2168 61.8697 59.0764 61.7376C58.9361 61.6054 58.7702 61.5034 58.5889 61.4377C58.4076 61.3721 58.2148 61.3442 58.0224 61.3558H57.1425C56.065 61.3568 55.008 61.0612 54.0872 60.5015C53.8661 60.3672 53.6123 60.2962 53.3535 60.2963V61.5585ZM68.3991 62.6179H62.7554C62.563 62.6063 62.3702 62.6342 62.1889 62.6999C62.0076 62.7655 61.8417 62.8676 61.7014 62.9997C61.561 63.1319 61.4491 63.2913 61.3727 63.4683C61.2962 63.6453 61.2568 63.8361 61.2568 64.0289C61.2568 64.2216 61.2962 64.4124 61.3727 64.5894C61.4491 64.7664 61.561 64.9258 61.7014 65.058C61.8417 65.1902 62.0076 65.2922 62.1889 65.3579C62.3702 65.4235 62.563 65.4514 62.7554 65.4398H68.3991C68.7586 65.4181 69.0962 65.26 69.3431 64.9978C69.59 64.7356 69.7275 64.389 69.7275 64.0289C69.7275 63.6687 69.59 63.3221 69.3431 63.0599C69.0962 62.7977 68.7586 62.6396 68.3991 62.6179V62.6179ZM78.7578 62.6179H73.1141C72.7547 62.6396 72.417 62.7977 72.1701 63.0599C71.9233 63.3221 71.7858 63.6687 71.7858 64.0289C71.7858 64.389 71.9233 64.7356 72.1701 64.9978C72.417 65.26 72.7547 65.4181 73.1141 65.4398H78.7578C78.9503 65.4514 79.1431 65.4235 79.3243 65.3579C79.5056 65.2922 79.6715 65.1902 79.8119 65.058C79.9523 64.9258 80.0641 64.7664 80.1406 64.5894C80.217 64.4124 80.2565 64.2216 80.2565 64.0289C80.2565 63.8361 80.217 63.6453 80.1406 63.4683C80.0641 63.2913 79.9523 63.1319 79.8119 62.9997C79.6715 62.8676 79.5056 62.7655 79.3243 62.6999C79.1431 62.6342 78.9503 62.6063 78.7578 62.6179V62.6179ZM87.4645 60.5144C87.0931 60.5133 86.7363 60.659 86.4718 60.9197C85.5613 61.825 84.3771 62.404 83.1035 62.5666C82.7293 62.5904 82.3799 62.7619 82.1321 63.0434C81.8844 63.3248 81.7585 63.6931 81.7824 64.0673C81.8062 64.4415 81.9777 64.791 82.2591 65.0387C82.5405 65.2865 82.9089 65.4123 83.2831 65.3885C83.3437 65.3922 83.4045 65.3922 83.4652 65.3885C84.5467 65.243 85.5911 64.8949 86.5436 64.3623V64.3623H86.5667L86.5923 64.347H86.6128H86.6257H86.6411H86.6539H86.6693H86.6847H86.6975H86.8796H86.8976H86.9156H86.9592H86.972H86.9874H87.0002H87.0156H87.0336H87.0541H87.0695H87.0874L87.108 64.3316L87.1618 64.2931C87.5746 64.0084 87.9617 63.6882 88.3188 63.3362C88.693 63.2229 89.0069 62.9657 89.1914 62.621C89.3759 62.2762 89.4159 61.8724 89.3026 61.4982C89.1893 61.124 88.932 60.8101 88.5873 60.6256C88.2426 60.4411 87.8387 60.4011 87.4645 60.5144V60.5144ZM89.6451 51.8641C89.4596 51.8638 89.2758 51.9 89.1043 51.9708C88.9328 52.0415 88.777 52.1454 88.6457 52.2765C88.5144 52.4075 88.4103 52.5632 88.3392 52.7345C88.2681 52.9059 88.2316 53.0895 88.2316 53.275V56.7203C88.2314 57.2187 88.1685 57.7152 88.0443 58.1979C87.9978 58.3783 87.9875 58.5662 88.014 58.7506C88.0405 58.935 88.1033 59.1123 88.1987 59.2724C88.2941 59.4324 88.4202 59.572 88.5699 59.683C88.7195 59.794 88.8896 59.8743 89.0704 59.9192C89.186 59.9497 89.3049 59.9652 89.4244 59.9654C89.7374 59.9647 90.0413 59.8604 90.2887 59.6687C90.536 59.477 90.7129 59.2088 90.7918 58.9059C90.9004 58.4786 90.9776 58.0439 91.0226 57.6053V57.6053V57.5797V57.5514V57.5258V57.4976V57.436V57.4155V57.3975V57.377V57.359V57.3436V57.3257V57.3103V57.1795V57.1666V57.1512V57.1359V53.2776C91.0226 52.9034 90.874 52.5445 90.6094 52.2799C90.3448 52.0153 89.9859 51.8667 89.6117 51.8667L89.6451 51.8641ZM89.6451 41.5028C89.2702 41.5028 88.9106 41.6517 88.6456 41.9168C88.3805 42.1819 88.2316 42.5414 88.2316 42.9163V48.56C88.2533 48.9195 88.4113 49.2571 88.6736 49.504C88.9358 49.7509 89.2823 49.8884 89.6425 49.8884C90.0026 49.8884 90.3492 49.7509 90.6114 49.504C90.8736 49.2571 91.0317 48.9195 91.0534 48.56V42.9163C91.0534 42.5419 90.9048 42.1827 90.6403 41.9177C90.3758 41.6527 90.0169 41.5035 89.6425 41.5028H89.6451ZM85.4687 34.3764C85.1473 34.3749 84.8349 34.4832 84.5834 34.6834C84.3319 34.8836 84.1563 35.1637 84.0857 35.4773C84.0151 35.7909 84.0536 36.1192 84.195 36.4079C84.3365 36.6966 84.5722 36.9284 84.8633 37.0648C86.0225 37.6198 86.9711 38.5351 87.5671 39.6737C87.65 39.8432 87.766 39.9944 87.9082 40.1184C88.0504 40.2424 88.216 40.3366 88.3952 40.3956C88.5744 40.4546 88.7636 40.4771 88.9516 40.4618C89.1397 40.4465 89.3228 40.3937 89.4901 40.3065C89.6574 40.2193 89.8056 40.0995 89.9259 39.9542C90.0462 39.8089 90.1362 39.6409 90.1905 39.4603C90.2449 39.2796 90.2625 39.0899 90.2424 38.9023C90.2223 38.7147 90.1649 38.533 90.0735 38.368C89.1923 36.686 87.7888 35.3357 86.0741 34.52C85.8849 34.4305 85.6781 34.3841 85.4687 34.3841V34.3764Z" fill="#FCB800"/>
<path d="M69.7408 59.8778C75.4405 59.8778 80.0611 55.2573 80.0611 49.5576C80.0611 43.8578 75.4405 39.2373 69.7408 39.2373C64.0411 39.2373 59.4205 43.8578 59.4205 49.5576C59.4205 55.2573 64.0411 59.8778 69.7408 59.8778Z" fill="white"/>
<path d="M62.2269 43.3622C61.9894 43.3618 61.7555 43.4213 61.547 43.5352C61.3385 43.6491 61.1621 43.8137 61.0341 44.0138C60.8095 44.3707 60.6064 44.7408 60.4261 45.122V45.122V45.1374V45.1528V45.1682C59.9425 46.3438 59.6815 47.599 59.6565 48.8699C59.6531 49.0552 59.6862 49.2394 59.754 49.4119C59.8218 49.5843 59.9229 49.7418 60.0515 49.8752C60.1802 50.0086 60.3338 50.1153 60.5037 50.1893C60.6736 50.2634 60.8565 50.3032 61.0418 50.3065H61.07C61.4398 50.3066 61.7948 50.1614 62.0587 49.9024C62.3226 49.6433 62.4742 49.291 62.4809 48.9212C62.5056 47.546 62.9105 46.2044 63.6507 45.045C63.7876 44.8317 63.8645 44.5854 63.8732 44.332C63.882 44.0786 63.8224 43.8276 63.7006 43.6053C63.5788 43.3829 63.3993 43.1975 63.1811 43.0685C62.9628 42.9395 62.7139 42.8717 62.4604 42.8722L62.2269 43.3622ZM61.6677 51.9124C61.4298 51.9126 61.1957 51.9727 60.9871 52.0872C60.7786 52.2018 60.6022 52.367 60.4744 52.5677C60.3466 52.7684 60.2714 52.9981 60.2558 53.2355C60.2401 53.4729 60.2846 53.7105 60.385 53.9262C61.1512 55.5635 62.3328 56.9715 63.8123 58.0102H63.8251L63.8431 58.023H63.8585H63.8764H63.8893H63.9149C64.1425 58.1763 64.4101 58.2593 64.6845 58.2616C64.9883 58.2622 65.2843 58.1649 65.5285 57.9841C65.7727 57.8034 65.9522 57.5487 66.0403 57.2579C66.1284 56.9671 66.1204 56.6557 66.0176 56.3698C65.9148 56.0838 65.7226 55.8387 65.4695 55.6706C64.3211 54.907 63.4051 53.842 62.8221 52.5922C62.708 52.3484 62.5267 52.1421 62.2995 51.9976C62.0723 51.8531 61.8087 51.7764 61.5394 51.7764L61.6677 51.9124ZM73.3501 56.2888C73.1574 56.2897 72.9669 56.3307 72.7909 56.4094C71.8345 56.833 70.7996 57.0506 69.7536 57.0482C69.4268 57.0483 69.1004 57.0278 68.7762 56.9866C68.7155 56.9828 68.6547 56.9828 68.5941 56.9866C68.2199 56.9621 67.8512 57.0873 67.5693 57.3345C67.2874 57.5818 67.1153 57.931 67.0908 58.3052C67.0663 58.6794 67.1914 59.048 67.4387 59.3299C67.686 59.6118 68.0351 59.7839 68.4093 59.8084C68.5838 59.8315 68.7582 59.8495 68.9224 59.8623H70.6643H70.713H70.8284H70.9157H70.9952L71.1081 59.8469H71.1568C72.11 59.7146 73.04 59.4495 73.9196 59.0594C74.2153 58.9272 74.4566 58.6974 74.6032 58.4086C74.7497 58.1197 74.7926 57.7893 74.7247 57.4727C74.6568 57.156 74.4822 56.8722 74.2301 56.6689C73.978 56.4655 73.6638 56.3549 73.3399 56.3555L73.3501 56.2888ZM78.5475 49.483C78.2091 49.4837 77.8821 49.6057 77.626 49.8269C77.3699 50.0482 77.2017 50.354 77.1519 50.6887C76.9449 52.0414 76.3688 53.3107 75.4871 54.3571C75.3621 54.4985 75.2667 54.6635 75.2066 54.8423C75.1464 55.0212 75.1226 55.2102 75.1367 55.3984C75.1507 55.5865 75.2023 55.77 75.2884 55.9379C75.3745 56.1058 75.4933 56.2548 75.6378 56.376C75.7824 56.4973 75.9498 56.5884 76.1301 56.644C76.3104 56.6995 76.5 56.7184 76.6877 56.6995C76.8755 56.6806 77.0575 56.6243 77.2232 56.534C77.3888 56.4436 77.5347 56.321 77.6522 56.1734C78.7676 54.8458 79.5284 53.2571 79.8635 51.5558V51.5404V51.5353V51.5199V51.5071V51.4917V51.4763V51.4609C79.9186 51.0905 79.8245 50.7133 79.6018 50.4122C79.3791 50.1111 79.0461 49.9107 78.6757 49.855C78.6061 49.8449 78.5358 49.8397 78.4654 49.8396L78.5475 49.483ZM75.5897 41.4279C75.3021 41.4282 75.0214 41.5161 74.7851 41.6801C74.5488 41.844 74.3682 42.0761 74.2672 42.3454C74.1663 42.6147 74.15 42.9084 74.2203 43.1873C74.2907 43.4661 74.4444 43.7169 74.661 43.906C75.7024 44.8084 76.4754 45.9799 76.8954 47.2923C76.9855 47.5788 77.1648 47.8291 77.407 48.0068C77.6492 48.1844 77.9418 48.2801 78.2422 48.2799C78.3868 48.2804 78.5305 48.2579 78.6681 48.2132C79.0245 48.1 79.3216 47.8502 79.4942 47.5184C79.6668 47.1866 79.7009 46.8 79.589 46.4431C79.5454 46.3072 79.5018 46.1738 79.453 46.0404V46.025V46.0096V45.9968V45.9814V45.966V45.9455V45.9301V45.9147V45.8942L79.4376 45.8582V45.8429V45.8223L79.4146 45.7736C79.129 45.1663 78.7854 44.5881 78.3884 44.0471V44.0471L78.3653 44.0163L78.3423 43.9856V43.9727L78.3294 43.9548H77.665H77.6496H77.6368H77.624V43.942L77.5957 43.9137L77.5804 43.8983C77.4264 43.7444 77.2674 43.5956 77.1032 43.4545C76.8469 43.2304 76.5177 43.1073 76.1771 43.1082L75.5897 41.4279ZM69.7407 39.2372H67.6885H67.6731H67.6013H67.5859H67.5679H67.5166L67.3242 39.2833L67.237 39.3039C66.6998 39.4386 66.174 39.6153 65.6645 39.8323V39.8323L65.6003 39.8605H65.5849H65.5721H65.5593H65.5234H65.5105H65.4875H65.4669H65.4541H65.4413H65.4182H65.1617H65.1463H65.1309H65.1155H65.1027C64.8666 39.9811 64.6358 40.1171 64.41 40.2479C64.1015 40.4489 63.8837 40.7624 63.8028 41.1216C63.7219 41.4808 63.7844 41.8574 63.9769 42.1712C64.1694 42.485 64.4768 42.7114 64.8336 42.8021C65.1905 42.8927 65.5686 42.8406 65.8876 42.6567C67.0618 41.9399 68.4113 41.5617 69.7869 41.5639V41.5639C70.4383 41.5665 71.0866 41.6527 71.716 41.8204C71.8348 41.8528 71.9573 41.8692 72.0803 41.8692C72.4225 41.8677 72.7525 41.7421 73.0092 41.5157C73.2658 41.2893 73.4316 40.9775 73.4758 40.6382C73.5199 40.2989 73.4395 39.955 73.2494 39.6705C73.0593 39.3859 72.7724 39.18 72.442 39.0909C72.206 39.0268 71.9674 38.9729 71.7263 38.9268H71.6801H71.6416H71.5929H71.5698H69.7869L69.7407 39.2372Z" fill="#FCB800"/>
<path d="M44.7159 98.3781C41.6811 98.3781 39.8674 95.2048 39.8674 92.1341C39.8674 89.0634 41.6811 85.8901 44.7159 85.8901C47.3812 85.8901 48.882 88.2861 49.3591 90.3384C49.4035 90.5341 49.5118 90.7095 49.667 90.8367C49.8222 90.964 50.0153 91.036 50.2159 91.0413C50.9855 91.0567 51.7551 91.4748 51.7551 92.1392C51.7551 92.8037 50.9855 93.2218 50.2159 93.2398C50.0153 93.2433 49.8217 93.314 49.6659 93.4405C49.5101 93.5669 49.4012 93.7419 49.3565 93.9375C48.882 95.9847 47.3941 98.3781 44.7159 98.3781Z" fill="#FFEEDE"/>
<path d="M44.716 86.7928C46.8504 86.7928 48.0766 88.8117 48.4794 90.5407C48.5682 90.9324 48.7858 91.283 49.0974 91.5364C49.409 91.7899 49.7965 91.9316 50.1981 91.9388C50.4227 91.9374 50.6423 92.0055 50.8266 92.1338C50.6427 92.2632 50.423 92.3322 50.1981 92.3313C49.7969 92.3384 49.4096 92.4797 49.0981 92.7327C48.7866 92.9856 48.5687 93.3356 48.4794 93.7268C48.0766 95.4559 46.8504 97.4748 44.716 97.4748C44.1691 97.4627 43.633 97.3196 43.1527 97.0576C42.6724 96.7956 42.262 96.4223 41.9558 95.9689C41.1837 94.839 40.7707 93.5023 40.7707 92.1338C40.7707 90.7653 41.1837 89.4286 41.9558 88.2986C42.4688 87.6137 43.3564 86.7928 44.716 86.7928ZM44.716 84.9971C41.1554 84.9971 38.9646 88.5885 38.9646 92.144C38.9646 95.6996 41.1554 99.2936 44.716 99.2936C47.6046 99.2936 49.5901 96.9361 50.2392 94.1476C51.4577 94.1193 52.6634 93.3626 52.6634 92.144C52.6634 90.9255 51.4577 90.1687 50.2392 90.1431C49.5901 87.352 47.6046 84.9971 44.716 84.9971Z" fill="black"/>
<path d="M44.993 95.62C46.4367 95.62 47.607 94.0591 47.607 92.1337C47.607 90.2083 46.4367 88.6475 44.993 88.6475C43.5493 88.6475 42.3789 90.2083 42.3789 92.1337C42.3789 94.0591 43.5493 95.62 44.993 95.62Z" fill="black"/>
<path d="M85.9742 99.6502C83.3114 99.6502 81.8081 97.2542 81.3309 95.2019C81.2854 95.0068 81.1763 94.8323 81.0207 94.7059C80.8651 94.5796 80.6719 94.5086 80.4716 94.5042C79.7148 94.4862 78.9324 94.0706 78.9324 93.4062C78.9324 92.7418 79.7148 92.3237 80.4716 92.3057C80.6721 92.3017 80.8655 92.2309 81.0211 92.1045C81.1768 91.9781 81.2858 91.8033 81.3309 91.6079C81.8081 89.5557 83.3114 87.1597 85.9742 87.1597C89.0089 87.1597 90.8226 90.3355 90.8226 93.4062C90.8226 96.4769 89.0089 99.6502 85.9742 99.6502Z" fill="#FFEEDE"/>
<path d="M85.9741 88.0655C86.5211 88.0776 87.0571 88.2206 87.5374 88.4826C88.0177 88.7446 88.4281 89.118 88.7344 89.5713C89.5065 90.7008 89.9197 92.037 89.9197 93.4052C89.9197 94.7734 89.5065 96.1096 88.7344 97.2391C88.4273 97.691 88.0165 98.0628 87.5362 98.3235C87.056 98.5841 86.5204 98.726 85.9741 98.7372C83.8397 98.7372 82.6135 96.7183 82.2108 94.9893C82.1187 94.5996 81.8991 94.2519 81.5867 94.0013C81.2744 93.7508 80.8872 93.6119 80.4869 93.6066C80.2624 93.6069 80.0432 93.5389 79.8584 93.4116C80.0423 93.2822 80.262 93.2132 80.4869 93.2141C80.8881 93.207 81.2754 93.0657 81.5869 92.8127C81.8984 92.5598 82.1163 92.2098 82.2056 91.8186C82.6084 90.0895 83.8346 88.0706 85.969 88.0706L85.9741 88.0655ZM85.969 86.2749C83.0804 86.2749 81.0949 88.6324 80.4458 91.4209C79.2273 91.4492 78.0216 92.1905 78.0216 93.4244C78.0216 94.6584 79.2273 95.3972 80.4458 95.4254C81.0949 98.2139 83.0804 100.571 85.969 100.571C89.5296 100.571 91.7204 96.98 91.7204 93.4244C91.7204 89.8689 89.5296 86.2749 85.969 86.2749Z" fill="black"/>
<path d="M85.574 96.89C87.0177 96.89 88.1881 95.3292 88.1881 93.4037C88.1881 91.4783 87.0177 89.9175 85.574 89.9175C84.1303 89.9175 82.96 91.4783 82.96 93.4037C82.96 95.3292 84.1303 96.89 85.574 96.89Z" fill="black"/>
<path d="M65.3923 110.281H63.104C60.8158 110.281 58.9611 108.978 58.9611 106.69C58.9611 104.401 60.8158 103.098 63.104 103.098" stroke="black" stroke-width="3.05273" stroke-linecap="round" stroke-linejoin="round"/>
<path d="M65.5258 129.629C63.4584 129.631 61.4004 129.349 59.4101 128.79C59.0515 128.707 58.7159 128.546 58.4275 128.317C58.1391 128.089 57.9052 127.799 57.7426 127.469C57.6556 127.289 57.6105 127.092 57.6105 126.893C57.6105 126.693 57.6556 126.497 57.7426 126.317C57.948 125.946 58.2518 125.638 58.6207 125.428C58.9895 125.218 59.4091 125.114 59.8333 125.127C60.0612 125.127 60.2881 125.157 60.508 125.217C63.7857 126.123 67.2479 126.123 70.5256 125.217C70.7437 125.157 70.9689 125.126 71.1951 125.127C71.6221 125.11 72.0453 125.212 72.4176 125.422C72.7899 125.632 73.0967 125.941 73.3038 126.314C73.3914 126.494 73.4369 126.692 73.4369 126.892C73.4369 127.092 73.3914 127.289 73.3038 127.469C73.1416 127.799 72.9077 128.089 72.6192 128.317C72.3307 128.545 71.9949 128.706 71.6364 128.787C69.648 129.348 67.5917 129.631 65.5258 129.629V129.629Z" fill="#FF00F3"/>
<path d="M59.8462 125.929C60.0004 125.929 60.1539 125.949 60.3029 125.988C63.7176 126.931 67.3238 126.931 70.7386 125.988C70.8916 125.947 71.0495 125.927 71.208 125.927C71.4836 125.917 71.7568 125.982 71.9994 126.113C72.2419 126.244 72.4452 126.437 72.5882 126.673C72.5882 126.686 72.5882 126.696 72.6061 126.709C72.6356 126.783 72.649 126.862 72.6455 126.941C72.6419 127.02 72.6215 127.098 72.5856 127.168C72.4672 127.389 72.3024 127.581 72.1027 127.731C71.903 127.882 71.673 127.987 71.4286 128.041C67.5693 129.12 63.4875 129.12 59.6282 128.041C59.3841 127.987 59.1545 127.881 58.9549 127.73C58.7552 127.58 58.5903 127.388 58.4712 127.168C58.4354 127.094 58.4169 127.012 58.4169 126.929C58.4169 126.846 58.4354 126.764 58.4712 126.689C58.611 126.446 58.8144 126.246 59.0594 126.111C59.3044 125.975 59.5818 125.909 59.8616 125.919L59.8462 125.929ZM59.8616 124.341C59.2948 124.331 58.7358 124.475 58.2449 124.758C57.7539 125.042 57.3497 125.454 57.0757 125.95V125.95C56.3882 127.245 57.2629 129 59.21 129.541C63.3516 130.704 67.7334 130.704 71.875 129.541C73.8221 128.992 74.6968 127.233 74.0093 125.95C73.7358 125.453 73.3316 125.041 72.8406 124.757C72.3495 124.474 71.7903 124.33 71.2234 124.341C70.9255 124.342 70.6289 124.38 70.3409 124.457C67.2001 125.326 63.8824 125.326 60.7415 124.457C60.4545 124.38 60.1587 124.341 59.8616 124.341V124.341Z" fill="black"/>
</g>
<defs>
<linearGradient id="paint0_linear" x1="168.995" y1="21.1154" x2="-16.7016" y2="76.0549" gradientUnits="userSpaceOnUse">
<stop stop-color="#148EFF"/>
<stop offset="1" stop-color="#D0C9FF"/>
</linearGradient>
<clipPath id="clip0">
<rect width="130" height="131.293" fill="white" transform="translate(27 26)"/>
</clipPath>
</defs>
</svg>
