<svg xmlns="http://www.w3.org/2000/svg" viewBox="0 0 90 90" fill-rule="evenodd" stroke-linecap="round" stroke-linejoin="round"><g transform="scale(.491803)"><circle cx="91.5" cy="91.5" r="91.5" fill="url(#B)"/><clipPath id="A"><path d="M27 26h130v131.293H27z"/></clipPath><g clip-path="url(#A)"><g fill-rule="nonzero"><path d="M148.545 98.576c0 33.69-24.353 58.717-65.629 58.717-34.501 0-55.924-25.027-55.924-58.717s24.581-61.001 59.082-61.001 62.471 27.3 62.471 61.001z" fill="#ffcda2"/><path d="M86.074 37.575c-26.954 0-47.848 16.675-55.701 40.019 33.547-5.343 54.716-6.444 64.736-22.21 2.822 14.645 18.789 40.081 53.182 37.967-2.714-31.248-29.524-55.775-62.217-55.775v-.001z"/><path d="M109.785 49.009c13.507 7.565 39.475 22.513 42.585 55.426-.065 3.335-5.939 14.004-9.028 20.81 2.519-31.13-32.141-51.563-43.951-58.602-20.466-12.214-53.654-6.852-68.671 9.561 2.619-7.183 7.119-17.701 9.281-20.523 19.789-17.229 50.539-17.449 69.784-6.672z" fill="#fff"/><path d="M69.692 42.452a1.29 1.29 0 0 0-.215.018l-.174.026h-.197l-4.497.877h-.193l-.472.113c-.335.083-.628.285-.824.568a1.42 1.42 0 0 0-.242.971c.04.342.205.658.462.888a1.41 1.41 0 0 0 .934.359 1.36 1.36 0 0 0 .336-.041l5.302-1.049a1.41 1.41 0 0 0 .966-.489 1.42 1.42 0 0 0 .338-1.029 1.41 1.41 0 0 0-.489-.966 1.42 1.42 0 0 0-1.029-.338l-.008.092h.002zm-9.851 2.329c-.147 0-.293.022-.434.067l-5.292 1.998c-.33.158-.586.438-.714.781s-.118.722.028 1.058a1.41 1.41 0 0 0 .754.742c.338.14.717.144 1.058.01l5.036-1.901c.661-.21 1.074-.88.965-1.565s-.707-1.194-1.401-1.19zm-9.297 3.933a1.42 1.42 0 0 0-.667.167l-.618.346h-.094l-3.928 2.416a1.42 1.42 0 0 0-.402.39c-.107.155-.181.331-.219.516s-.038.375-.002.56.11.361.216.517a1.42 1.42 0 0 0 .4.392 1.4 1.4 0 0 0 .521.206c.186.033.376.029.56-.012s.358-.119.511-.229c1.481-1 3.013-1.922 4.589-2.763a1.42 1.42 0 0 0 .626-.674 1.41 1.41 0 0 0 .079-.916c-.077-.305-.253-.577-.502-.771s-.555-.299-.87-.299l-.2.154zm-8.391 5.58c-.326-.001-.642.113-.893.321l-.359.295-.056.049-.013.013-.018.015-.039.033-.092.076h-.015l-.046.038h-.013l-.056.049-.018.018h-.015l-.018.015a25.12 25.12 0 0 0-2.014 3.43 1.41 1.41 0 0 0-.457.531c-.105.212-.156.449-.146.686s.079.468.202.672a1.41 1.41 0 0 0 .499.492 1.39 1.39 0 0 0 .644.156 1.42 1.42 0 0 0 .738-.207c.222-.135.403-.33.521-.562.472-.966 1.005-1.901 1.596-2.799l.962-.803c.226-.184.389-.434.468-.715s.068-.579-.03-.854a1.41 1.41 0 0 0-.517-.681c-.239-.168-.523-.259-.815-.259v-.01.001zm-4.923 8.242a1.41 1.41 0 0 0-1.283.831l-1.383 3.145v.02l-.02.051v.072l-.77 1.844c-.076.181-.113.376-.109.572s.05.389.134.567a1.41 1.41 0 0 0-.23.715c-.011.255.047.508.169.732s.301.412.52.542a1.42 1.42 0 0 0 .724.199 1.39 1.39 0 0 0 .857-.292l.559-.421.139-.103.12-.092h.03l.015-.013h.015l.018-.013.033-.026.015-.013h.051l3.463-2.258a1.41 1.41 0 0 0 .59-.687c.116-.288.134-.605.052-.904s-.261-.562-.507-.75-.548-.289-.858-.288a1.39 1.39 0 0 0-.718.2l-1.567.967 1.075-2.434a1.41 1.41 0 0 0-.702-1.87c-.183-.082-.382-.125-.582-.126l.149-.169.001.002zm-3.968 9.492a1.42 1.42 0 0 0-.624.142c-.195.094-.364.232-.497.402l-.046-.036-1.385 3.663c1.162-1.264 2.409-2.448 3.73-3.545a1.41 1.41 0 0 0-1.177-.631v.005h-.001zm16.059-10.744a1.42 1.42 0 0 0-.487.087L43.38 63.68c-.172.077-.327.188-.456.326a1.41 1.41 0 0 0-.293.478c-.065.177-.093.366-.084.554s.056.373.138.543.197.322.338.447a1.42 1.42 0 0 0 .485.281 1.4 1.4 0 0 0 .556.07 1.42 1.42 0 0 0 .54-.152l5.205-2.193c.311-.115.572-.335.737-.623s.224-.624.166-.951-.229-.622-.483-.836-.575-.33-.907-.33v-.01h-.001zm10.19-2.835c-.092 0-.184.008-.275.026L53.51 59.85c-.328.093-.611.302-.798.588a1.41 1.41 0 0 0-.216.967c.047.338.215.647.472.871s.587.347.928.347a1.37 1.37 0 0 0 .387-.056l5.495-1.319a1.41 1.41 0 0 0 1.126-1.521 1.42 1.42 0 0 0-.452-.907c-.257-.236-.594-.368-.943-.371h.002zm10.492-1.236h-.059l-5.867.487c-.374.023-.724.194-.972.475s-.375.649-.352 1.023.194.724.475.972.649.375 1.023.352c.059.004.118.004.177 0l5.631-.467c.36-.028.696-.192.938-.459s.374-.617.367-.978-.152-.705-.405-.963a1.41 1.41 0 0 0-.956-.421v-.021zm4.807-.026a1.41 1.41 0 0 0-1.353 1.391c-.005.361.127.71.37.976s.579.429.939.456l3.658.221h.421l1.552.169a1.19 1.19 0 0 0 .169 0c.374.023.742-.104 1.023-.352a1.41 1.41 0 0 0 .474-.973c.023-.375-.104-.742-.352-1.023a1.41 1.41 0 0 0-.973-.474l-5.9-.452-.028.062v-.001zm10.518 1.226c-.723-.006-1.34.545-1.415 1.264s.414 1.387 1.123 1.53l1.909.434.105.026h.018l.079.021h1.036l.056.015h.033l.082.023h.021l2.052.616c.353.102.731.063 1.056-.109a1.41 1.41 0 0 0 .682-.813c.113-.349.086-.729-.076-1.059a1.41 1.41 0 0 0-.792-.707c-1.891-.616-3.813-1.129-5.759-1.539a1.54 1.54 0 0 0-.287-.028l.077.328v-.002zm10.143 3.214c-.323.001-.637.112-.888.316a1.41 1.41 0 0 0-.492.804c-.067.317-.024.646.123.935s.388.518.683.65l3.148 1.539.067.038.069.036.067.036h.015l.049.028h.015l.049.028h.018l.049.028h.015l.049.026h.015l.046.026h.013l.046.026h.013l.044.026h.015l.041.026h.186l.02.013h.072l.02.013h.051l.498.295a1.4 1.4 0 0 0 .721.2c.309 0 .61-.101.856-.288s.424-.451.507-.749.065-.616-.051-.903a1.41 1.41 0 0 0-.586-.687l-.236-.141-.27-.159c-1.549-.922-3.153-1.75-4.802-2.478a1.4 1.4 0 0 0-.57-.121l.316.439-.001-.002zm9.202 5.146a1.41 1.41 0 0 0-1.362 1.023 1.41 1.41 0 0 0 .041.898c.111.287.313.529.574.691l4.769 3.048c.313.207.695.28 1.063.205a1.41 1.41 0 0 0 1.101-1.668c-.075-.367-.294-.69-.607-.896l-4.84-3.078a1.4 1.4 0 0 0-.739-.21v-.013zm8.722 5.751c-.301-.002-.594.092-.838.268a1.41 1.41 0 0 0-.509 1.592c.096.285.28.532.526.705l.89.639.021.018.028.02 3.55 2.66a1.42 1.42 0 0 0 1.035.267c.367-.049.698-.241.925-.533s.33-.661.288-1.029a1.41 1.41 0 0 0-.514-.937l-4.638-3.44c-.238-.169-.524-.259-.816-.257l.052.026v.001zm8.291 6.413a1.42 1.42 0 0 0-.809.254c-.237.165-.418.399-.518.67s-.114.567-.041.846a1.42 1.42 0 0 0 .449.718l1.527 1.319.031.028.03.028.065.056.03.028.031.028.033.028.065.059.03.028.031.026.031.028.064.059.031.026.031.028.03.028.034.028.033.028.031.028.031.026.064.059.033.028.031.026.031.028.031.031.033.028.031.028.03.028.034.028.064.059.033.031.031.028.098.087.066.056.064.059.034.031.066.056.065.062.028.028.031.028.03.028.064.059.062.056.031.031.033.028.031.028.056.052.029.026.03.026.026.026.026.023.025.026.029.026.025.023.023.023.023.021.024.023.023.021.023.02.02.02.021.018h.013l.018.015.017.018.031.031.016.013.018.015.038.038.026.023.025.023.082.074c.135.128.293.228.466.295s.357.099.542.094.368-.046.538-.121a1.41 1.41 0 0 0 .84-1.326c-.009-.375-.167-.73-.438-.989l-4.331-3.879a1.4 1.4 0 0 0-.91-.336l.187.2v.004zm7.645 7.216c-.276.001-.545.082-.775.234a1.42 1.42 0 0 0-.519.62c-.223.516-.118 1.118.267 1.527l.016.018.018.018h.013l.018.018.017.018.013.015.018.018h.013l.015.018.036.036v.013l.036.042.013.013.018.02h.013l.018.018.013.015.038.038.018.023.021.02.02.023.021.023.02.023.021.023.046.046.023.026.026.028.025.028.029.031.028.031.028.028.026.031.025.028.029.031 2.685 3.112.026.033.054.067.023.028.023.026c.114.151.258.278.422.373s.346.156.535.179.379.008.561-.044.352-.141.5-.26a1.43 1.43 0 0 0 .358-.435c.089-.168.144-.351.161-.54a1.4 1.4 0 0 0-.064-.56 1.41 1.41 0 0 0-.277-.49l-3.861-4.412a1.39 1.39 0 0 0-.467-.328c-.176-.076-.367-.116-.559-.116l.175.226v-.001zm6.682 8.178c-.258-.001-.512.069-.733.203a1.4 1.4 0 0 0-.52.554 1.42 1.42 0 0 0-.158.744c.016.258.104.506.252.718l2.108 3.261v.135l.047.077v.069l.62 1.088c.086.17.205.32.35.443s.315.215.496.271a1.41 1.41 0 0 0 .563.055c.189-.02.373-.077.539-.17s.312-.217.429-.367.203-.322.252-.506a1.43 1.43 0 0 0 .033-.564c-.028-.188-.093-.369-.191-.532l-2.92-4.887c-.13-.187-.303-.34-.505-.445s-.426-.16-.654-.16l-.008.013zm5.218 9.251c-.194-.002-.387.039-.564.118a1.41 1.41 0 0 0-.751.775c-.138.348-.132.736.017 1.079l.562 1.345v.182l.015.041v.072l.026.069v.698l.031.084v.198l.746 2.309c.174.603.728 1.022 1.355 1.026.134 0 .268-.019.397-.057.359-.105.662-.349.842-.677a1.42 1.42 0 0 0 .118-1.075c-.565-1.922-1.25-3.807-2.053-5.643-.11-.252-.291-.466-.521-.617a1.41 1.41 0 0 0-.774-.23l.554.303zm7.937 4.771c-.275 0-.544.08-.774.23a1.41 1.41 0 0 0-.521.617l-2.337 5.023c-.028.056-.052.114-.072.174a1.42 1.42 0 0 0-.503-.436 1.41 1.41 0 0 0-.646-.156 1.28 1.28 0 0 0-.239.02c-.368.063-.697.269-.914.573a1.41 1.41 0 0 0-.243 1.051l.377 2.847v.393c.181 2.125.189 4.261.023 6.388a1.35 1.35 0 0 0 .203-.319l2.65-5.51-.362-3.396a1.44 1.44 0 0 0 .341.233 1.42 1.42 0 0 0 .534.139c.185.011.371-.015.546-.076s.337-.156.476-.28a1.39 1.39 0 0 0 .332-.44l1.144-2.396.039-.079 1.203-2.645c.15-.336.164-.716.038-1.062a1.41 1.41 0 0 0-.713-.788c-.177-.078-.37-.119-.564-.118l-.018.013zm1.283-9.209a1.38 1.38 0 0 0-.223.018 1.41 1.41 0 0 0-.518.19c-.158.097-.296.224-.405.374s-.188.32-.231.501a1.4 1.4 0 0 0-.021.551l.477 3.714a5.04 5.04 0 0 1-.149.698c-.097.364-.045.751.144 1.076a1.42 1.42 0 0 0 .863.66c.364.096.751.044 1.076-.144a1.42 1.42 0 0 0 .659-.863l.18-.77.015-.097c0-.041.016-.085.021-.123v-1.383l-.405-2.989a1.42 1.42 0 0 0-.479-.848c-.256-.217-.579-.337-.914-.337l-.09-.228zm-2.427-9.812a1.4 1.4 0 0 0-.647.155c-.2.102-.373.251-.503.434s-.216.394-.249.617-.011.45.062.662l1.493 5.169c.074.309.249.584.498.781a1.41 1.41 0 0 0 .875.304c.11 0 .22-.013.328-.038a1.41 1.41 0 0 0 .875-.632c.196-.319.258-.702.172-1.066l-1.201-4.325v-.187l-.287-.862c-.194-.571-.733-.957-1.336-.957l-.08-.051v-.004zm-4.105-9.235c-.245 0-.486.064-.7.186s-.391.298-.516.509-.192.452-.195.698.056.488.175.703l2.378 4.823a1.41 1.41 0 0 0 .521.619c.23.151.5.232.775.232a1.39 1.39 0 0 0 .561-.118 1.42 1.42 0 0 0 .454-.313c.129-.133.23-.29.299-.462a1.41 1.41 0 0 0 .099-.541c-.003-.185-.042-.368-.115-.538l-.624-1.383v-.086l-.023-.051v-.039l-.038-.079v-.081l-.703-1.424v-.066l-.052-.097v-.067l-.025-.049v-.078l-.69-1.283a1.41 1.41 0 0 0-.519-.53c-.217-.127-.464-.194-.715-.193l-.347-.287v-.005zm-5.643-8.394a1.42 1.42 0 0 0-.752.217c-.225.141-.406.344-.521.584s-.161.507-.131.772.135.515.301.723l3.178 4.361a1.41 1.41 0 0 0 .384.412 1.42 1.42 0 0 0 .515.229c.185.041.376.045.563.01s.364-.106.522-.211.294-.24.399-.398a1.41 1.41 0 0 0 .212-.522c.035-.187.032-.378-.009-.563s-.119-.36-.228-.515l-2.535-3.553-.067-.087v-.015l-.012-.015-.026-.03v-.028l-.513-.664c-.269-.333-.675-.527-1.103-.528l-.177-.177v-.002zm-6.914-7.421c-.283 0-.56.086-.795.246-.479.326-.71.915-.581 1.48a1.41 1.41 0 0 0 .414.721l3.833 3.848c.257.261.605.412.971.422.757.021 1.402-.57 1.447-1.326a1.41 1.41 0 0 0-.335-1.004l-3.994-4.01c-.261-.242-.604-.377-.96-.377zm-7.875-6.454c-.301-.003-.595.09-.84.266a1.41 1.41 0 0 0-.519.711c-.093.286-.092.595.002.88s.278.533.523.708l4.328 3.35c.14.133.307.235.489.301a1.41 1.41 0 0 0 1.123-.07 1.42 1.42 0 0 0 .759-1.44 1.4 1.4 0 0 0-.187-.543c-.099-.166-.232-.31-.389-.423l-4.471-3.463a1.4 1.4 0 0 0-.826-.269l.008-.008zm-8.522-5.623a1.41 1.41 0 0 0-.855.288c-.246.187-.424.449-.507.747-.167.61.092 1.261.633 1.589l4.682 2.94a1.41 1.41 0 0 0 1.045.175c.358-.08.671-.295.873-.601s.277-.678.21-1.039-.272-.681-.571-.893l-4.789-3.009a1.43 1.43 0 0 0-.721-.198v.001zm-8.935-4.951a1.42 1.42 0 0 0-1.378 1.105c-.07.313-.031.641.11.929s.375.521.665.658l2.978 1.539 1.819 1.026c.161.092.339.151.523.174a1.42 1.42 0 0 0 .551-.04 1.4 1.4 0 0 0 .492-.248 1.42 1.42 0 0 0 .361-.418c.091-.162.15-.34.173-.524a1.44 1.44 0 0 0-.041-.55 1.43 1.43 0 0 0-.248-.493 1.39 1.39 0 0 0-.418-.36l-.913-.513-.919-.513-.025-.013-.029-.044-.023-.013h-.023l-.02-.013h-.2l-.049-.026-2.763-1.403c-.186-.087-.389-.131-.595-.131l-.028-.131v.002zm-9.495-3.414a1.42 1.42 0 0 0-.929.353c-.257.226-.422.538-.467.877a1.41 1.41 0 0 0 1.033 1.547l5.13 1.619c.157.057.323.087.49.087a1.42 1.42 0 0 0 1.431-1.162c.06-.333-.001-.676-.172-.967s-.441-.512-.761-.622l-5.387-1.701c-.116-.03-.236-.046-.357-.046l-.013.013.002.002zm-9.966-1.796c-.367-.006-.721.131-.989.381s-.427.595-.446.961a1.41 1.41 0 0 0 .348 1.001c.242.276.581.447.946.478l5.356.77c.085.017.17.025.257.026.351-.003.688-.136.946-.373s.419-.562.451-.911a1.41 1.41 0 0 0-.278-.978 1.42 1.42 0 0 0-.862-.539l-5.6-.806h-.141l.013-.01h-.001zm-6.77-.359h-1.896l-3.751.208c-.753.029-1.356.656-1.356 1.409l.001.058c.029.752.656 1.355 1.409 1.355l.058-.001c.039.003.079.003.118 0l5.413-.221 2.124.033h.046c.36-.015.702-.166.954-.425s.396-.603.402-.963a1.42 1.42 0 0 0-.369-.977 1.41 1.41 0 0 0-.939-.457l-1.578-.033h-.641l.003.013.002.001z" fill="#fcb800"/><path d="M148.18 101.726c-15.43-27.954-26.905-38.903-40.832-45.66-13.473-6.544-31.948-12.313-60.431 3.463-.906 1.188-4.851 3.176-8.173 5.518-1.893 1.331-3.591 2.778-4.394 4.256 7.042-24.365 31.197-45.216 56.86-43.164 51.547 4.138 65.79 14.53 65.79 52.25-.021 11.392-3.431 22.52-9.794 31.969.615-3.863.946-7.193.974-8.632z" fill="#fff"/><path d="M87.693 26h-1.139c-1.505.039-3.008.153-4.502.341a1.41 1.41 0 0 0-.533.142 1.42 1.42 0 0 0-.438.335 1.41 1.41 0 0 0 .127 1.995 1.42 1.42 0 0 0 1.024.35 1.35 1.35 0 0 0 .18 0c1.752-.222 3.516-.333 5.282-.334a1.5 1.5 0 0 0 .241-.02 1.74 1.74 0 0 0 .239.023l2.822.128 2.619.218h.123c.364 0 .715-.141.978-.393a1.41 1.41 0 0 0 .434-.96c.015-.364-.11-.72-.351-.994s-.578-.444-.941-.475l-2.137-.18-.164-.015h-.57l-1.457-.085h-.672l-.644-.013h-.031a1.37 1.37 0 0 0-.239.021 1.39 1.39 0 0 0-.257-.023l.005-.062.001.001zm-9.953 1.144a1.53 1.53 0 0 0-.316.036 49.64 49.64 0 0 0-4.977 1.424h-.015l-.064.021h-.015l-.044.015h-.044l-.041.015h-.161a1.41 1.41 0 0 0-.791.725 1.42 1.42 0 0 0-.054 1.072c.123.35.381.638.715.801a1.41 1.41 0 0 0 1.072.067c1.675-.593 3.383-1.091 5.115-1.491.338-.078.636-.277.837-.561s.29-.631.251-.976-.204-.664-.462-.895-.594-.36-.941-.36l-.064.105-.001.002zM68.222 30.4a1.41 1.41 0 0 0-.582.126c-1.716.786-3.392 1.659-5.02 2.614a1.41 1.41 0 0 0-.59.686c-.116.287-.135.605-.053.903a1.42 1.42 0 0 0 .506.75c.246.188.548.29.857.29.251.001.498-.066.713-.195 1.544-.905 3.132-1.732 4.759-2.478a1.41 1.41 0 0 0 .672-.654 1.42 1.42 0 0 0 .115-.931c-.068-.314-.243-.596-.493-.798s-.562-.313-.884-.314v.001zm-8.75 5.025a1.4 1.4 0 0 0-.808.257l-.257.18h-.058l-4.105 3.194c-.286.243-.463.589-.494.963a1.41 1.41 0 0 0 .332 1.03c.243.286.589.463.963.494a1.41 1.41 0 0 0 1.03-.332l4.269-3.291a1.41 1.41 0 0 0 .521-.703c.095-.284.098-.59.008-.875s-.268-.534-.509-.712a1.41 1.41 0 0 0-.83-.276l-.062.072v-.001zm-7.773 6.47a1.4 1.4 0 0 0-.985.405l-3.03 3.181-.036.038-.02.026-.02.023-.021.023-.018.021-.015.015-.013.018-.015.018-.036.04v.015l-.018.02-.018.023-.02.026-.02.023-.069.078-.026.031-.023.031-.052.062-.056.067-.203.233a1.41 1.41 0 0 0-.366 1.04c.023.382.201.738.492.986a1.41 1.41 0 0 0 .492.273c.181.057.371.078.559.06a1.42 1.42 0 0 0 .538-.163c.167-.09.314-.212.432-.36l3.689-3.95a1.42 1.42 0 0 0 .394-.723c.057-.274.03-.56-.076-.82s-.287-.482-.52-.638-.507-.24-.788-.24l-.131.118h-.001zm-6.634 7.647c-.221 0-.44.052-.638.152a1.42 1.42 0 0 0-.501.423l-2.494 3.643v.015l-.036.056v.015l-.036.059v.015l-.028.044-.026.041-.036.056-.023.038-.015.026-.015.023-.033.056v.013l-.036.056v.015l-.036.056-.041.067a1.41 1.41 0 0 0 .167 2.335 1.4 1.4 0 0 0 .734.208c.242 0 .481-.062.693-.181a1.41 1.41 0 0 0 .515-.497l3.009-4.484a1.41 1.41 0 0 0 .271-.72c.022-.261-.028-.522-.146-.755s-.297-.429-.519-.567a1.41 1.41 0 0 0-.739-.211h.01l-.001.003zm.341 8.081a1.4 1.4 0 0 0-.888.316 36.49 36.49 0 0 1-3.127 2.052l-.413.257.015-.033c.145-.33.159-.704.038-1.044s-.368-.621-.689-.785a1.41 1.41 0 0 0-1.863.546l-1.965 4.246v.033l-.018.049v.03l-.018.041a57.04 57.04 0 0 0-2.083 5.946c.576-.958 1.31-1.813 2.17-2.527l.031-.023.018-.015.056-.046.703-.575 1.283-.952.072-.051.893-2.106c.216.268.522.447.861.506a1.41 1.41 0 0 0 .98-.19l.582-.362.739-.454a37.24 37.24 0 0 0 3.427-2.258 1.41 1.41 0 0 0 .468-.715c.078-.281.068-.579-.03-.854a1.41 1.41 0 0 0-.517-.681c-.239-.168-.523-.259-.814-.259l.087-.092h.002zm9.448-5.02a1.42 1.42 0 0 0-.564.118l-5.259 2.486a1.41 1.41 0 0 0-.642.668c-.133.289-.165.613-.091.922a1.41 1.41 0 0 0 .499.78c.249.196.558.304.875.304.222 0 .441-.052.639-.154l5.11-2.417a1.41 1.41 0 0 0 .686-.648c.148-.289.192-.618.126-.935a1.41 1.41 0 0 0-.491-.806 1.42 1.42 0 0 0-.889-.318h.001zm9.907-3.591c-.132 0-.263.019-.39.056L58.8 50.902a1.42 1.42 0 0 0-.759.739 1.41 1.41 0 0 0-.032 1.059c.127.344.383.625.713.784s.71.183 1.058.068l5.374-1.77a1.41 1.41 0 0 0 .792-.59c.184-.285.26-.628.212-.965a1.41 1.41 0 0 0-.472-.868c-.257-.223-.585-.346-.925-.347zm10.379-2.093h-.159l-5.844.944a1.42 1.42 0 0 0-.898.61 1.43 1.43 0 0 0-.208.513c-.07.369.009.752.22 1.063a1.42 1.42 0 0 0 .907.596 1.41 1.41 0 0 0 .553-.004l.718-.146.177-.036h1.905l.169-.026h.153l.105-.015.216-.03 2.15-.282c.368-.029.71-.201.953-.479s.367-.64.347-1.008-.184-.714-.456-.964-.631-.382-1-.371l-.008-.364v-.001zm6.116-.339l-1.326.015c-.359.026-.696.187-.94.453a1.41 1.41 0 0 0-.373.974 1.42 1.42 0 0 0 .396.965c.25.259.59.413.95.43h3.167l2.509.154c.039.003.079.003.118 0 .364 0 .715-.141.978-.393a1.41 1.41 0 0 0 .434-.96c.015-.364-.11-.72-.351-.994s-.578-.444-.941-.475l-4.618-.197-.005.028h.002zm9.302.829c-.732-.009-1.356.553-1.422 1.282s.444 1.395 1.166 1.519h3.768l.051.013h.046l.049.013h.041l.074.021h.237l.046.013h.532l.054.015h.061l.059.018h.036l.395.113c.127.038.26.057.392.056.34-.001.668-.124.925-.347a1.41 1.41 0 0 0 .472-.868c.048-.337-.028-.679-.212-.965a1.41 1.41 0 0 0-.792-.59c-1.904-.553-3.836-1.007-5.787-1.36-.085-.015-.171-.022-.257-.021l.056 1.088h.01zm10.21 2.845a1.41 1.41 0 0 0-.902.33c-.253.212-.424.506-.483.831a1.41 1.41 0 0 0 .889 1.575l1.706.667h.097l.09.038h.223l.046.018h.093l.079.033h.098l.12.049h.018l2.368 1.052c.185.083.385.127.587.128.257-.034.499-.137.701-.299s.355-.376.444-.619.108-.506.057-.76a1.41 1.41 0 0 0-.345-.679l-5.4-2.27c-.158-.06-.326-.09-.495-.09l.01-.003-.001-.001zm9.6 4.361c-.315 0-.622.105-.87.299-.511.397-.687 1.097-.423 1.688a1.41 1.41 0 0 0 .626.674l2.242 1.249h.149l2.237 1.388h.038l.018.013c.314.184.686.241 1.041.157.732-.171 1.205-.899 1.064-1.638-.067-.358-.27-.676-.566-.887l-5.082-2.999c-.204-.107-.431-.164-.662-.164l.188.221v-.001zm8.901 5.718c-.295 0-.583.092-.823.264s-.421.415-.516.694a1.41 1.41 0 0 0 .477 1.576l4.326 3.635a1.41 1.41 0 0 0 1.016.369c.375-.017.728-.181.981-.458a1.41 1.41 0 0 0 .369-1.017c-.017-.374-.181-.727-.458-.98l-4.512-3.791a1.4 1.4 0 0 0-.86-.292zm7.848 7.068a1.41 1.41 0 0 0-.779.232c-.232.152-.413.369-.523.623s-.141.535-.092.808a1.41 1.41 0 0 0 .368.725l1.664 1.796.029.031.013.015.015.018 1.847 2.111.018.02v.013l.013.015.074.087a1.42 1.42 0 0 0 .483.377 1.4 1.4 0 0 0 .597.136 1.39 1.39 0 0 0 .911-.334c.142-.119.259-.266.344-.43a1.4 1.4 0 0 0 .153-.53c.016-.185-.005-.371-.061-.548s-.147-.341-.267-.483l-3.899-4.338a1.43 1.43 0 0 0-.469-.322 1.42 1.42 0 0 0-.557-.112l.118.087v.003zm6.831 7.986c-.537-.001-1.029.305-1.267.786-.117.236-.165.501-.139.763s.125.512.285.721l3.353 4.561c.221.293.547.489.91.546a1.41 1.41 0 0 0 1.034-.242c.3-.212.506-.532.574-.893s-.007-.734-.209-1.041l-3.42-4.654c-.132-.171-.302-.309-.497-.404a1.42 1.42 0 0 0-.624-.145v.002zm6.054 8.522c-.274 0-.541.081-.769.233-.313.206-.531.528-.607.895a1.41 1.41 0 0 0 .204 1.062l.77 1.193.023.033v.036l1.577 2.483v.015l.013.015.023.036v.052l.513.823c.201.311.515.531.876.613a1.41 1.41 0 0 0 1.054-.175c.315-.194.542-.504.631-.863a1.42 1.42 0 0 0-.154-1.058l-3.079-4.836a1.41 1.41 0 0 0-1.182-.636l.107.077v.002zm5.505 8.861a1.41 1.41 0 0 0-1.226.711c-.124.216-.188.461-.186.71s.07.493.196.707l2.822 4.9c.187.321.492.553.85.651a1.41 1.41 0 0 0 1.728-.97c.104-.356.063-.738-.112-1.065l-2.845-4.951c-.125-.212-.304-.387-.517-.509s-.456-.186-.702-.186h-.008v.002zm5.18 7.024c-.272.001-.538.08-.765.229s-.407.359-.518.608l-1.311 2.719-.449 4.068-.349 2.412c-.019.137-.019.276 0 .413a56.57 56.57 0 0 0 3.872-6.714l.03-.059.029-.059.028-.059v-.11l.015-.028v-.023l.013-.026v-.023l.013-.026v-.02l.013-.026v-.205l.015-.028v-.018l.015-.036v-.018l.029-.059.366-.8c.076-.17.118-.353.123-.538s-.026-.37-.092-.544a1.4 1.4 0 0 0-.294-.467c-.128-.135-.28-.243-.45-.319a1.4 1.4 0 0 0-.574-.123l.241-.121zm3.278-9.546a1.41 1.41 0 0 0-.871.301c-.249.195-.425.467-.501.774l-1.539 5.149a1.42 1.42 0 0 0 .862 1.796 1.44 1.44 0 0 0 .469.079 1.42 1.42 0 0 0 1.334-.941l.9-2.773.036-.124.018-.059.016-.056v-.564l.464-1.77a1.41 1.41 0 0 0 .008-.633 1.42 1.42 0 0 0-.27-.573 1.41 1.41 0 0 0-.493-.397c-.193-.093-.404-.142-.617-.141l.184-.067v-.001zm1.519-9.979c-.359.001-.705.138-.967.385a1.41 1.41 0 0 0-.441.942l-.59 5.336c-.06.37.03.748.25 1.051s.55.508.919.567c.075.012.15.018.226.018.69 0 1.284-.506 1.393-1.188l.588-5.084v-.52c.011-.185-.015-.371-.076-.546a1.4 1.4 0 0 0-.278-.476c-.123-.139-.272-.252-.439-.333a1.42 1.42 0 0 0-.534-.139l-.051-.013zm-.09-10.189h-.079a1.41 1.41 0 0 0-.975.47c-.25.28-.378.647-.357 1.021l.175 5.516a1.41 1.41 0 0 0 1.411 1.4h.015c.374-.004.732-.157.994-.424a1.41 1.41 0 0 0 .404-1.002l-.046-2.481v-.528l-.118-2.635a1.41 1.41 0 0 0-.441-.943c-.262-.246-.608-.385-.967-.385l-.016-.008v-.001zm-1.182-10.077a1.37 1.37 0 0 0-.272.026 1.4 1.4 0 0 0-.511.209c-.155.102-.288.234-.392.388a1.41 1.41 0 0 0-.213.509c-.037.182-.038.369-.003.552l.801 5.354c.037.346.202.665.46.898s.595.361.943.362h.154a1.42 1.42 0 0 0 .526-.165c.163-.089.306-.209.423-.354s.203-.311.255-.489.068-.365.048-.549v-.218l-.642-4.453v-.681c0-.049-.018-.095-.025-.141v-.082c-.062-.321-.234-.611-.487-.819a1.41 1.41 0 0 0-.896-.322l-.169-.023v-.002zm-2.963-9.553c-.236 0-.469.06-.676.174a1.42 1.42 0 0 0-.73 1.138 1.41 1.41 0 0 0 .123.687c.72 1.593 1.326 3.236 1.814 4.915.046.184.129.358.244.509s.259.278.424.372a1.43 1.43 0 0 0 1.099.13 1.41 1.41 0 0 0 .499-.263 1.42 1.42 0 0 0 .356-.438 1.41 1.41 0 0 0 .157-.542 1.42 1.42 0 0 0-.068-.56l-.056-.187v-.033l-.023-.072v-.474c0-.036-.023-.072-.034-.105-.466-1.478-1.022-2.925-1.665-4.335a1.41 1.41 0 0 0-.519-.602c-.228-.146-.492-.224-.763-.224l-.182-.087v-.003zm-5.485-8.183c-.363-.001-.713.139-.975.39-.271.259-.428.615-.437.99a1.41 1.41 0 0 0 .391 1.009c1.179 1.235 2.239 2.578 3.166 4.012a1.41 1.41 0 0 0 .891.614c.367.078.75.007 1.065-.197a1.41 1.41 0 0 0 .613-.892c.078-.367.007-.75-.197-1.064l-1.321-1.88v-.015l-.041-.054-.013-.015v-.015l-.025-.033v-.03l-.013-.018v-.018l-.026-.033v-.09l-.012-.015-.013-.015-.018-.018-.018-.021-.016-.015v-.015l-.028-.031-.028-.028v-.015l-.028-.033h-.013l-.015-.015-.029-.033-.013-.015-.043-.049-.016-.015-.572-.616c-.132-.139-.291-.249-.468-.324s-.366-.113-.558-.112l-1.19-1.267v-.009zm-7.886-5.98c-.314-.003-.621.099-.871.29s-.429.46-.509.764-.056.626.067.915a1.41 1.41 0 0 0 .615.681 34.6 34.6 0 0 1 4.361 2.855c.146.122.315.214.497.27a1.41 1.41 0 0 0 .563.054 1.4 1.4 0 0 0 .538-.171 1.43 1.43 0 0 0 .429-.368 1.4 1.4 0 0 0 .25-.507 1.41 1.41 0 0 0 .032-.564c-.027-.188-.093-.369-.192-.532a1.41 1.41 0 0 0-.385-.414l-2.381-1.688h-.03l-.062-.038h-.146l-.057-.036h-.056l-1.796-1.054c-.209-.117-.445-.179-.685-.18l-.182-.277zm-9.268-3.945c-.336.001-.66.121-.915.339s-.424.52-.477.851.013.671.187.957a1.42 1.42 0 0 0 .763.608l5.046 1.896c.177.075.368.114.56.115.324-.001.638-.113.89-.318a1.41 1.41 0 0 0 .49-.808c.066-.318.021-.648-.128-.937a1.41 1.41 0 0 0-.691-.646l-5.292-1.991c-.14-.045-.286-.067-.433-.067v.001zm-9.869-2.586a1.41 1.41 0 0 0-.951.362c-.261.235-.426.558-.462.907a1.42 1.42 0 0 0 .268.982c.208.283.514.478.858.548l5.353 1.26c.118.032.24.049.362.049.344.001.676-.124.935-.35.534-.466.638-1.266.241-1.853-.192-.285-.482-.491-.814-.578h-.38l-.074-.02h-.026l-.813-.303-.223-.056h-.046l-.075-.018h-.708l-.074-.018h-.036l-.082-.02h-.036l-.08-.018h-.018l-1.026-.233-.131-.028h-.048l-.08-.015h-.336l-.077-.018h-.026l-1.105-.236c-.095-.02-.191-.03-.288-.031l-.002-.31v-.003zm-10.12-1.742c-.374-.026-.744.098-1.026.344a1.42 1.42 0 0 0-.483.969 1.41 1.41 0 0 0 .345 1.026c.246.283.595.456.969.482l5.495.862a1.29 1.29 0 0 0 .256.02 1.41 1.41 0 0 0 .947-.378c.258-.24.416-.566.446-.916s-.072-.699-.285-.978a1.41 1.41 0 0 0-.869-.532l-.323-.064h-.154l-4.449-.729h-.169l-.495-.072c-.066-.009-.133-.014-.2-.013l-.005-.023v.002zM98.395 26.79c-.366-.005-.72.132-.987.383s-.426.595-.444.961.107.724.348 1 .58.447.945.478l5.559.611c.057.004.115.004.172 0 .374.023.742-.104 1.023-.352a1.41 1.41 0 0 0 .121-1.996 1.41 1.41 0 0 0-.972-.474l-5.626-.618c-.046-.003-.093-.003-.139 0v.008-.001z" fill="#fcb800"/><path d="M82.339 33.674H57.145c-4.784 0-8.72 3.936-8.72 8.72v14.33c0 4.784 3.936 8.72 8.72 8.72h25.194c4.784 0 8.72-3.936 8.72-8.72v-14.33c0-4.784-3.936-8.72-8.72-8.72z" fill="#fff"/><path d="M82.337 33.674h-5.644c-.36.022-.697.18-.944.442s-.384.609-.384.969.138.707.384.969.585.42.944.442h5.644c.192.012.385-.016.567-.082a1.41 1.41 0 0 0 .487-.3 1.43 1.43 0 0 0 .329-.469c.077-.177.116-.368.116-.56s-.04-.384-.116-.561a1.4 1.4 0 0 0-.329-.469 1.43 1.43 0 0 0-.487-.3 1.42 1.42 0 0 0-.567-.082v.001zm-10.359 0h-5.644c-.359.022-.697.18-.944.442s-.384.609-.384.969.138.707.384.969.585.42.944.442h5.644c.359-.022.697-.18.944-.442s.384-.609.384-.969-.138-.707-.384-.969-.585-.42-.944-.442zm-10.361 0H56.73c-.2 0-.398.026-.593.049h-.169a1.42 1.42 0 0 0-.533.143 1.41 1.41 0 0 0-.437.336c-.247.282-.372.651-.347 1.025s.197.723.479.97.651.372 1.025.347c.063.005.127.005.19 0 .265-.034.531-.051.798-.051h4.474c.36-.022.697-.18.944-.442s.384-.609.384-.969-.138-.707-.384-.969-.584-.42-.944-.442v.003zm-9.04 1.603c-.32 0-.63.109-.88.308a8.84 8.84 0 0 0-1.896 2.104v.036h-.097v.054a8.66 8.66 0 0 0-1.026 2.47c-.091.364-.034.748.158 1.07s.504.554.868.646a1.44 1.44 0 0 0 .346.041c.644 0 1.21-.442 1.367-1.067a5.94 5.94 0 0 1 2.034-3.155 1.41 1.41 0 0 0 .473-.714c.08-.281.071-.58-.026-.856s-.277-.514-.516-.684a1.41 1.41 0 0 0-.816-.261l.01.008h.001zm-2.74 8.255a1.41 1.41 0 0 0-1.416 1.411v5.644c.022.36.18.697.442.944s.609.384.969.384.707-.137.969-.384.42-.584.442-.944v-5.644c-.001-.374-.15-.733-.415-.998a1.41 1.41 0 0 0-.999-.413h.008zm0 10.359a1.41 1.41 0 0 0-.999.414c-.265.265-.414.625-.414 1v2.525c0 .02.018.041.026.059l.2.405a1.42 1.42 0 0 0 .345.44 1.41 1.41 0 0 0 1.043.333 1.44 1.44 0 0 0 .536-.158c.166-.087.313-.208.432-.354a1.42 1.42 0 0 0 .262-.493c.054-.18.071-.369.05-.556s-.078-.368-.169-.532l.095-.257v-1.419c0-.375-.149-.734-.414-1a1.41 1.41 0 0 0-.999-.414h.008l-.002.007zm3.517 7.668c-.308 0-.607.101-.853.287s-.423.447-.507.744-.068.612.045.899.316.529.578.689h5.397a1.41 1.41 0 0 0 1.054-.382 1.43 1.43 0 0 0 .329-.469c.077-.177.116-.368.116-.561a1.4 1.4 0 0 0-.116-.56 1.41 1.41 0 0 0-.816-.769 1.42 1.42 0 0 0-.567-.082h-.88a5.87 5.87 0 0 1-3.055-.854c-.221-.134-.475-.205-.734-.205v1.262l.009.001zM68.4 62.618h-5.644c-.192-.012-.385.016-.567.082a1.42 1.42 0 0 0-.487.3 1.43 1.43 0 0 0-.329.469c-.077.177-.116.368-.116.561s.039.384.116.561.188.336.329.469a1.42 1.42 0 0 0 .487.3 1.4 1.4 0 0 0 .567.082H68.4c.359-.022.697-.18.944-.442s.384-.609.384-.969-.138-.707-.384-.969-.585-.42-.944-.442v-.002zm10.359 0h-5.644c-.359.022-.697.18-.944.442s-.384.609-.384.969.138.707.384.969.585.42.944.442h5.644a1.4 1.4 0 0 0 .566-.082 1.43 1.43 0 0 0 .488-.3c.141-.132.252-.292.329-.469s.116-.368.116-.561-.04-.384-.116-.561a1.41 1.41 0 0 0-.329-.469c-.141-.133-.306-.234-.488-.3a1.4 1.4 0 0 0-.566-.082v.002zm8.707-2.103c-.371-.001-.728.145-.993.405-.91.905-2.095 1.484-3.368 1.647a1.41 1.41 0 0 0-.971.477c-.247.282-.374.65-.35 1.024a1.41 1.41 0 0 0 .477.971c.282.247.65.374 1.024.35a1.38 1.38 0 0 0 .182 0 8.68 8.68 0 0 0 3.078-1.026h.023l.026-.015h.492l.021-.015.054-.038c.413-.285.8-.605 1.157-.957.374-.113.688-.37.873-.715s.224-.749.111-1.123a1.48 1.48 0 0 0-.715-.873c-.344-.185-.749-.224-1.123-.111l.002-.001zm2.181-8.65a1.41 1.41 0 0 0-1.413 1.411v3.445a5.94 5.94 0 0 1-.187 1.478 1.41 1.41 0 0 0 .154 1.075c.193.323.507.556.872.647.116.031.234.046.354.046.313-.001.617-.105.864-.297a1.42 1.42 0 0 0 .503-.763 8.95 8.95 0 0 0 .231-1.301v-4.327c0-.774-.636-1.41-1.41-1.41l.032-.003v-.001zm0-10.361a1.41 1.41 0 0 0-.999.414c-.265.265-.414.625-.414.999v5.644c.022.359.18.697.442.944s.609.384.969.384.707-.137.969-.384.42-.584.442-.944v-5.644c0-.374-.149-.734-.413-.999s-.623-.414-.998-.415h.003l-.001.001zm-4.176-7.126c-.66-.003-1.238.457-1.383 1.101s.18 1.307.778 1.587c1.159.555 2.108 1.47 2.704 2.609.083.17.199.321.341.445s.308.218.487.277.368.081.556.066.371-.068.538-.155.316-.207.436-.352a1.39 1.39 0 0 0 .265-.494 1.42 1.42 0 0 0 .052-.558c-.02-.188-.078-.369-.169-.534a8.77 8.77 0 0 0-3.999-3.848c-.189-.09-.396-.136-.605-.136v-.008h-.001z" fill="#fcb800"/><path d="M69.741 59.878a10.32 10.32 0 0 0 10.32-10.32c0-5.7-4.621-10.32-10.32-10.32s-10.32 4.621-10.32 10.32 4.621 10.32 10.32 10.32z" fill="#fff"/><path d="M62.227 43.362a1.42 1.42 0 0 0-.68.173c-.209.114-.385.278-.513.479a10.45 10.45 0 0 0-.608 1.108v.045c-.484 1.176-.745 2.431-.77 3.702a1.4 1.4 0 0 0 .097.542c.068.172.169.33.297.463.26.269.616.424.99.431h.028c.765.001 1.397-.621 1.411-1.385.025-1.375.43-2.717 1.17-3.876a1.41 1.41 0 0 0 .05-1.44c-.248-.452-.724-.734-1.24-.733l-.233.49.001.001zm-.559 8.55a1.41 1.41 0 0 0-.681.175c-.209.115-.385.28-.513.48s-.203.43-.219.668.029.475.129.691c.766 1.637 1.948 3.045 3.427 4.084h.013l.018.013h.072a1.4 1.4 0 0 0 .77.239 1.41 1.41 0 0 0 .844-.278c.244-.181.424-.435.512-.726a1.41 1.41 0 0 0-.023-.888c-.103-.286-.295-.531-.548-.699a7.51 7.51 0 0 1-2.647-3.078c-.114-.244-.295-.45-.523-.595s-.491-.221-.76-.221l.128.136.001-.001zm11.682 4.376a1.38 1.38 0 0 0-.559.121c-.956.424-1.991.641-3.037.639-.327 0-.653-.02-.977-.062a1.38 1.38 0 0 0-.182 0c-.374-.025-.743.101-1.025.348a1.41 1.41 0 0 0-.478.971c-.024.375.101.743.348 1.025a1.41 1.41 0 0 0 .971.478l.513.054h2.072l.113-.015h.049c.953-.132 1.883-.398 2.763-.788.296-.132.537-.362.684-.651a1.41 1.41 0 0 0-.374-1.74c-.253-.203-.566-.314-.89-.313l.01-.067h-.001zm5.197-6.806c-.338.001-.665.123-.921.344s-.424.527-.474.862c-.207 1.352-.783 2.622-1.665 3.668a1.41 1.41 0 0 0-.35 1.041c.014.188.066.371.152.539s.205.317.349.438a1.42 1.42 0 0 0 .492.268c.18.056.37.074.558.056a1.38 1.38 0 0 0 .535-.166 1.43 1.43 0 0 0 .429-.361 10.27 10.27 0 0 0 2.211-4.618v-.093c.055-.37-.039-.748-.262-1.049a1.41 1.41 0 0 0-.926-.557c-.07-.01-.14-.015-.21-.015l.082-.357zm-2.958-8.055c-.288 0-.568.088-.805.252a1.41 1.41 0 0 0-.518.665c-.101.269-.117.563-.047.842a1.41 1.41 0 0 0 .441.719 7.51 7.51 0 0 1 2.234 3.386c.184.587.732.989 1.347.988a1.34 1.34 0 0 0 .426-.067 1.41 1.41 0 0 0 .826-.695c.172-.332.207-.718.095-1.075l-.136-.403v-.144l-.015-.036v-.036l-.023-.049a10.44 10.44 0 0 0-1.026-1.727l-.046-.062v-.013l-.013-.018h-.705v-.013l-.043-.043-.477-.444a1.4 1.4 0 0 0-.926-.346l-.587-1.68-.002-.001zm-5.846-2.191h-2.226l-.192.046-.087.021c-.537.135-1.063.311-1.572.528l-.064.028h-.498l-.693.387c-.308.201-.526.514-.607.874s-.018.736.174 1.05.5.54.857.631.735.038 1.054-.145a7.46 7.46 0 0 1 3.899-1.093c.651.003 1.3.089 1.929.257a1.4 1.4 0 0 0 .364.049 1.42 1.42 0 0 0 .929-.353c.257-.226.422-.538.467-.878a1.41 1.41 0 0 0-.226-.968c-.19-.285-.477-.49-.807-.58l-.716-.164h-1.939l-.046.31z" fill="#fcb800"/><path d="M44.716 98.378c-3.035 0-4.848-3.173-4.848-6.244s1.814-6.244 4.848-6.244c2.665 0 4.166 2.396 4.643 4.448a.9.9 0 0 0 .308.498.91.91 0 0 0 .549.205c.77.015 1.539.433 1.539 1.098s-.77 1.083-1.539 1.101c-.201.004-.394.074-.55.201s-.265.301-.309.497c-.474 2.047-1.962 4.441-4.641 4.441v-.001z" fill="#ffeede"/><path d="M44.716 86.793c2.134 0 3.361 2.019 3.763 3.748.089.392.306.742.618.996a1.79 1.79 0 0 0 1.101.402c.225-.001.444.067.629.195-.184.129-.404.198-.629.198-.401.007-.788.148-1.1.401s-.529.603-.619.994c-.403 1.729-1.629 3.748-3.763 3.748a3.42 3.42 0 0 1-1.563-.417c-.48-.262-.891-.635-1.197-1.089-1.576-2.308-1.576-5.362 0-7.67.513-.685 1.401-1.506 2.76-1.506zm0-1.796c-3.561 0-5.751 3.591-5.751 7.147s2.191 7.15 5.751 7.15c2.889 0 4.874-2.358 5.523-5.146 1.219-.028 2.424-.785 2.424-2.004s-1.206-1.975-2.424-2.001c-.649-2.791-2.635-5.146-5.523-5.146zm.277 10.623c1.444 0 2.614-1.561 2.614-3.486s-1.17-3.486-2.614-3.486-2.614 1.561-2.614 3.486 1.17 3.486 2.614 3.486z"/><path d="M85.974 99.65c-2.663 0-4.166-2.396-4.643-4.448a.91.91 0 0 0-.859-.698c-.757-.018-1.539-.434-1.539-1.098s.782-1.082 1.539-1.1a.9.9 0 0 0 .859-.698c.477-2.052 1.981-4.448 4.643-4.448 3.035 0 4.848 3.176 4.848 6.246s-1.814 6.244-4.848 6.244z" fill="#ffeede"/><path d="M85.974 88.066a3.42 3.42 0 0 1 1.563.417c.48.262.891.635 1.197 1.089.772 1.13 1.185 2.466 1.185 3.834s-.413 2.704-1.185 3.834c-.307.452-.718.824-1.198 1.084s-1.016.403-1.562.414c-2.134 0-3.361-2.019-3.763-3.748a1.8 1.8 0 0 0-.624-.988c-.312-.251-.699-.389-1.1-.395a1.11 1.11 0 0 1-.629-.195c.184-.129.404-.198.629-.198.401-.007.788-.148 1.1-.401s.529-.603.619-.994c.403-1.729 1.629-3.748 3.763-3.748l.005-.005zm-.005-1.791c-2.889 0-4.874 2.358-5.523 5.146-1.219.028-2.424.77-2.424 2.004s1.206 1.973 2.424 2.001c.649 2.788 2.635 5.146 5.523 5.146 3.561 0 5.751-3.591 5.751-7.147s-2.191-7.15-5.751-7.15zm-.395 10.615c1.444 0 2.614-1.561 2.614-3.486s-1.17-3.486-2.614-3.486-2.614 1.561-2.614 3.486 1.17 3.486 2.614 3.486z"/></g><path d="M65.392 110.281h-2.288c-2.288 0-4.143-1.303-4.143-3.591s1.855-3.592 4.143-3.592" fill="none" stroke="#000" stroke-width="3.05"/><g fill-rule="nonzero"><path d="M65.526 129.629c-2.067.002-4.125-.28-6.116-.839a2.48 2.48 0 0 1-.983-.473c-.289-.229-.522-.518-.685-.848-.087-.18-.132-.377-.132-.576a1.32 1.32 0 0 1 .132-.576 2.31 2.31 0 0 1 2.091-1.19c.228 0 .455.03.675.09a18.8 18.8 0 0 0 10.018 0 2.48 2.48 0 0 1 .669-.09 2.3 2.3 0 0 1 1.222.295c.372.21.679.519.886.892.177.364.177.791 0 1.155a2.46 2.46 0 0 1-.685.848c-.288.228-.624.389-.983.47-1.988.561-4.045.844-6.111.842h.002z" fill="#ff00f3"/><path d="M59.846 125.929c.154 0 .308.02.457.059 3.414.943 7.022.943 10.436 0 .153-.041.311-.061.469-.061a1.55 1.55 0 0 1 1.38.746c0 .013 0 .023.018.036a.56.56 0 0 1-.021.459 1.71 1.71 0 0 1-.483.563 1.74 1.74 0 0 1-.674.31 21.91 21.91 0 0 1-11.8 0c-.244-.054-.474-.16-.673-.311s-.365-.342-.484-.562a.55.55 0 0 1-.054-.239.57.57 0 0 1 .054-.24c.139-.243.343-.443.588-.578a1.54 1.54 0 0 1 .802-.192l-.015.01zm.015-1.588a3.13 3.13 0 0 0-1.617.417 3.12 3.12 0 0 0-1.169 1.192c-.687 1.295.187 3.05 2.134 3.591 4.142 1.163 8.523 1.163 12.665 0 1.947-.549 2.822-2.308 2.134-3.591-.274-.497-.678-.909-1.169-1.193s-1.05-.427-1.617-.416a3.5 3.5 0 0 0-.882.116 18 18 0 0 1-9.599 0c-.287-.077-.583-.116-.88-.116z"/></g></g></g><defs><linearGradient id="B" x1="168.995" y1="21.115" x2="-16.702" y2="76.055" gradientUnits="userSpaceOnUse"><stop offset="0" stop-color="#148eff"/><stop offset="1" stop-color="#d0c9ff"/></linearGradient></defs></svg>